<?xml version="1.0" encoding="utf-8"?>
<!-- Generator: Adobe Illustrator 16.0.0, SVG Export Plug-In . SVG Version: 6.00 Build 0)  -->
<!DOCTYPE svg PUBLIC "-//W3C//DTD SVG 1.1//EN" "http://www.w3.org/Graphics/SVG/1.1/DTD/svg11.dtd">
<svg version="1.1" id="Layer_1" xmlns="http://www.w3.org/2000/svg" xmlns:xlink="http://www.w3.org/1999/xlink" x="0px" y="0px"
	 width="142.012px" height="110.047px" viewBox="0 0 142.012 110.047" enable-background="new 0 0 142.012 110.047"
	 xml:space="preserve">
<g display="none">
	<path display="inline" fill="#6C757D" d="M116.195,47.37c0,22.989,0,45.981,0,68.968c-44.569,0-89.139,0-133.705,0
		c0-22.99,0-45.979,0-68.968c2.434-0.004,4.87-0.011,7.305-0.011C31.928,47.363,74.063,47.367,116.195,47.37z M11.251,102.974
		c0-0.875,0.002-1.681,0-2.488c-0.03-6.472,1.598-12.44,4.977-17.888c1.938-3.122,3.746-6.338,5.794-9.381
		c1.191-1.77,1.716-3.557,1.569-5.695c-0.129-1.874-0.028-3.764-0.028-5.641c-9.555,0-18.891,0-28.267,0c0,5.357,0,10.638,0,15.916
		c2.585,0,5.08,0,7.679,0c0-2.635,0-5.166,0-7.75c3.907,0,7.701,0,11.881,0C7.854,79.983,2.383,90.252,3.664,102.974
		C6.186,102.974,8.647,102.974,11.251,102.974z M54.834,70.021c-7.018,9.972-12.493,20.214-11.207,32.935c2.474,0,4.969,0,7.438,0
		c0.06-0.166,0.116-0.248,0.116-0.328c0.016-0.817,0.021-1.635,0.029-2.453c0.035-5.934,1.387-11.498,4.397-16.559
		c2.404-4.048,4.894-8.041,7.332-12.064c0.229-0.375,0.533-0.799,0.541-1.203c0.047-2.803,0.027-5.605,0.027-8.457
		c-9.5,0-18.872,0-28.237,0c0,5.369,0,10.65,0,15.939c2.566,0,5.027,0,7.644,0c0-2.635,0-5.197,0-7.811
		C46.842,70.021,50.618,70.021,54.834,70.021z M94.305,69.969c-7.051,10.018-12.522,20.263-11.244,32.994c2.472,0,4.967,0,7.582,0
		c0-0.848,0.004-1.61,0-2.375c-0.041-6.569,1.619-12.616,5.064-18.137c2.252-3.609,4.455-7.256,6.668-10.893
		c0.227-0.378,0.533-0.799,0.541-1.205c0.047-2.801,0.024-5.605,0.024-8.464c-9.494,0-18.862,0-28.239,0c0,5.368,0,10.649,0,15.946
		c2.563,0,5.024,0,7.645,0c0-2.633,0-5.194,0-7.773c0.361-0.042,0.572-0.09,0.783-0.09C86.695,69.967,90.26,69.969,94.305,69.969z"
		/>
	<path display="inline" fill="#6C757D" d="M-17.51,10.84c3.796-1.672,7.598-3.332,11.382-5.038c0.413-0.187,0.752-0.604,1.063-0.971
		c2.588-3.061,5.162-6.135,7.796-9.274C5.138-1.574,7.518,1.199,9.818,4.04c0.896,1.104,1.917,1.896,3.202,2.443
		c3.291,1.405,6.545,2.902,9.956,4.426c-0.394,0.715-0.741,1.363-1.104,2.002c-1.042,1.835-1.935,3.79-3.172,5.466
		c-2.196,2.984-2.634,6.399-2.813,9.965c-0.119,2.396-0.396,4.783-0.625,7.401c-1.54-0.34-3.001-0.648-4.455-0.987
		c-2.371-0.553-4.731-1.158-7.108-1.674c-0.612-0.132-1.3-0.125-1.908,0.012c-3.477,0.789-6.938,1.637-10.408,2.454
		c-0.33,0.078-0.677,0.088-1.171,0.148c-0.218-2.352-0.436-4.631-0.644-6.912c-0.177-1.941-0.338-3.886-0.523-5.828
		c-0.029-0.305-0.102-0.635-0.25-0.894c-2.092-3.658-4.202-7.305-6.307-10.955C-17.51,11.022-17.51,10.933-17.51,10.84z"/>
	<path display="inline" fill="#6C757D" d="M116.195,11.113c-2.108,3.65-4.276,7.262-6.27,10.977
		c-0.477,0.883-0.422,2.101-0.521,3.173c-0.321,3.425-0.604,6.856-0.916,10.488c-1.559-0.346-3.026-0.664-4.483-1.001
		c-0.976-0.226-1.99-0.355-2.906-0.745c-4.395-1.865-8.6-0.345-12.846,0.656c-1.553,0.368-3.109,0.726-4.813,1.125
		c-0.227-2.506-0.442-4.835-0.647-7.167c-0.123-1.4-0.105-2.83-0.371-4.199c-0.252-1.297-0.619-2.629-1.23-3.776
		c-1.731-3.244-3.608-6.403-5.494-9.704c3.328-1.497,6.564-3.012,9.855-4.401c1.375-0.581,2.455-1.428,3.402-2.602
		c2.274-2.805,4.625-5.543,7-8.381c2.575,3.071,5.073,6.093,7.635,9.06c0.531,0.616,1.225,1.168,1.949,1.502
		c3.53,1.62,7.098,3.157,10.653,4.724C116.195,10.933,116.195,11.022,116.195,11.113z"/>
	<path display="inline" fill="#6C757D" d="M61.855,23.523c-3.646-0.868-7.059-1.762-10.504-2.457
		c-1.271-0.256-2.67-0.26-3.939-0.002c-3.489,0.705-6.939,1.607-10.573,2.469c-0.27-2.917-0.654-5.698-0.752-8.49
		c-0.112-3.157-0.787-6.009-2.553-8.654c-1.609-2.408-2.92-5.034-4.441-7.707c1.903-0.866,3.667-1.869,5.544-2.479
		c4.572-1.484,8.105-4.313,10.893-8.328c1.093-1.573,2.444-2.949,3.749-4.5c0.273,0.265,0.535,0.48,0.75,0.735
		c2.354,2.797,4.688,5.615,7.069,8.388c0.443,0.517,1.033,0.971,1.641,1.253c3.132,1.456,6.289,2.845,9.438,4.263
		c0.436,0.195,0.861,0.405,1.408,0.668C68.369,0.829,67.387,3.035,66,4.912c-2.785,3.766-3.478,8.074-3.625,12.622
		C62.303,19.47,62.045,21.401,61.855,23.523z"/>
</g>
<g display="none">
	<path display="inline" fill="#6C757D" d="M195.804,108.93c-6.734,0.061-11.949-4.643-12.832-11.237
		c-2.829-21.157-5.636-42.316-8.461-63.473c-1.301-9.726-2.621-19.449-3.934-29.173c-1.031-7.629,3.678-14.062,10.946-15.118
		c14.131-2.054,28.254-4.177,42.38-6.268c4.104-0.607,8.208-1.216,12.315-1.803c6.742-0.964,12.896,4.041,13.872,11.328
		c2.74,20.453,5.451,40.911,8.186,61.366c1.396,10.428,2.813,20.853,4.219,31.279c0.937,6.938-3.273,13.974-11.684,15.141
		c-17.823,2.474-35.61,5.211-53.415,7.832C196.731,108.9,196.052,108.911,195.804,108.93z M214.764,32.309
		c-0.497-0.309-0.899-0.577-1.317-0.817c-4.866-2.803-10.922-1.296-14.108,3.507c-3.134,4.726-2.498,11.321,1.753,14.967
		c4.325,3.708,8.838,7.186,13.363,10.625c2.588,1.969,6.103,1.447,8.063-1.182c3.446-4.622,6.901-9.25,10.066-14.081
		c4.188-6.396,0.9-15.3-6.242-17.222C221.725,26.863,217.917,28.475,214.764,32.309z M244.729,81.347
		c-0.847-1.289-1.504-2.337-2.206-3.349c-1.193-1.719-2.91-2.127-4.395-1.086c-1.521,1.067-1.813,2.996-0.655,4.801
		c1.801,2.812,3.65,5.588,5.472,8.387c0.77,1.18,1.787,1.884,3.172,1.656c1.359-0.219,2.18-1.133,2.609-2.516
		c1.019-3.264,2.104-6.506,3.124-9.77c0.591-1.891-0.148-3.624-1.74-4.254c-1.675-0.66-3.359,0.188-4.051,2.091
		C245.615,78.536,245.239,79.788,244.729,81.347z M188.329,9.377c0.852,1.296,1.53,2.389,2.268,3.435
		c1.13,1.605,2.881,1.997,4.305,1.011c1.496-1.036,1.85-2.933,0.752-4.663c-1.813-2.861-3.692-5.675-5.553-8.505
		c-0.779-1.187-1.86-1.767-3.229-1.53c-1.292,0.225-2.145,1.044-2.563,2.37c-1.029,3.259-2.104,6.501-3.108,9.769
		c-0.604,1.964,0.204,3.689,1.898,4.276c1.7,0.589,3.247-0.288,3.946-2.273C187.464,12.085,187.834,10.885,188.329,9.377z"/>
	<path display="inline" fill="#6C757D" d="M265.771,99.224c0.894-2.487,1.907-4.828,2.563-7.272c1.048-3.92,0.143-7.849-0.375-11.75
		c-1.687-12.732-3.397-25.462-5.104-38.193c-1.692-12.631-3.389-25.261-5.08-37.891c-0.519-3.859-1.056-7.716-1.545-11.579
		c-0.603-4.752-2.539-8.769-5.884-12.033c-0.318-0.31-0.634-0.621-0.945-0.938c-0.018-0.017,0.016-0.086,0.046-0.246
		c0.382-0.023,0.791-0.072,1.202-0.072c5.979-0.005,11.961-0.019,17.943,0c7.774,0.026,13.011,5.47,13.017,13.618
		c0.018,30.904,0.018,61.808,0,92.712c-0.005,8.155-5.231,13.596-13.001,13.641C267.615,99.228,266.62,99.224,265.771,99.224z"/>
	<path display="inline" fill="#6C757D" d="M287.77-12.135c5.019,0.787,10.298,1.37,15.473,2.488
		c6.208,1.342,10.004,7.951,9.063,14.884c-2.329,17.195-4.609,34.396-6.911,51.594c-1.827,13.64-3.635,27.278-5.493,40.914
		c-0.978,7.168-6.808,11.918-13.887,11.082c-6.313-0.742-12.59-1.826-18.89-2.961c1.339-0.088,2.685-0.127,4.019-0.271
		c9.471-1.029,16.594-9.262,16.615-19.326c0.038-18.396,0.012-36.795,0.012-55.192c0-12.164,0-24.327,0-36.49
		C287.77-7.583,287.77-9.75,287.77-12.135z"/>
</g>
<g display="none">
	<path display="inline" fill="#6C757D" d="M-5.652,39.247c-3.316,1.052-6.063,2.708-8.593,4.796
		c-0.236,0.195-0.431,0.511-0.694,0.59c-0.66,0.2-1.467,0.582-1.986,0.342c-0.402-0.187-0.717-1.25-0.618-1.84
		c0.271-1.646,0.663-3.294,1.213-4.862c2.345-6.701,6.011-12.44,11.372-16.905c3.067-2.556,7.356-3.478,8.957-7.942
		c5.404,16.683,17.095,22.329,32.586,22.146c-1.635,2.727-0.065,4.304,1.866,6.107c2.817,2.632,4.523,6.127,5.454,9.979
		c0.155,0.645-0.083,1.392-0.139,2.093c-0.629-0.152-1.304-0.195-1.881-0.471c-2.513-1.199-5.15-1.49-7.982-1.498
		c-1.699,17.173,2.678,31.343,17.509,41.122c-2.332,0.248-4.141,0.487-5.956,0.625c-11.118,0.847-21.908-0.202-31.659-6.555
		C3.609,80.342-2.361,70.653-4.603,58.323c-1.097-6.03-1.531-12.09-1.051-18.214C-5.638,39.908-5.652,39.704-5.652,39.247z"/>
	<path display="inline" fill="#6C757D" d="M41.415,1.651c1.746,3.366,1.013,6.85,0.344,10.214
		c-1.227,6.171-2.704,12.288-4.127,18.414c-0.103,0.435-0.576,1.021-0.956,1.098c-9.379,1.911-20.791-3.202-26.115-11.565
		c-1.771-2.784-2.576-5.896-3.095-9.118c-0.063-0.378,0.45-0.971,0.826-1.298c5.256-4.552,11.336-7.284,17.979-8.507
		c3.629-0.669,7.348-0.806,11.021-1.23c0.479-0.056,1.021-0.284,1.382-0.615c11.573-10.597,24.627-17.915,40.04-19.909
		c4.438-0.573,8.886-0.443,13.262,0.729c10.86,2.912,15.582,11.532,12.525,22.905c-1.267,4.708-3.445,8.954-6.035,12.979
		c-3.563,5.539-7.099,11.109-9.23,17.458c-0.823,2.45-1.414,5.07-1.597,7.652c-0.295,4.124,1.985,6.74,5.887,7.365
		c4.655,0.747,9.052-0.46,13.338-2.138c8.443-3.305,15.706-8.482,21.746-15.536c0.067-0.078,0.132-0.16,0.198-0.237
		c1.021-1.157,1.998-1.348,2.854-0.562c0.849,0.775,0.865,1.964-0.159,3.032c-2.346,2.436-4.621,4.982-7.19,7.137
		c-7.092,5.951-14.959,10.361-24.021,11.844c-2.663,0.435-5.54,0.495-8.163-0.073c-5.91-1.282-8.811-6.06-8.093-12.387
		c0.506-4.454,1.868-8.642,3.919-12.51c2.504-4.725,5.415-9.209,7.956-13.912c1.794-3.321,3.638-6.7,4.816-10.286
		c3.39-10.283-1.007-17.662-11.242-19.486c-7.353-1.31-14.451-0.012-21.416,2.334c-9.794,3.3-18.473,8.721-26.256,15.764
		C41.664,1.341,41.543,1.507,41.415,1.651z M31.98,8.931c0.028-1.469-1.098-2.708-2.51-2.768c-1.487-0.061-2.716,1.14-2.743,2.68
		c-0.024,1.476,1.098,2.716,2.508,2.769C30.726,11.667,31.952,10.47,31.98,8.931z"/>
	<path display="inline" fill="#6C757D" d="M25.638,117.62c-13.759-0.371-27.518-0.732-41.277-1.121
		c-1.262-0.037-2.531-0.174-3.771-0.381c-0.484-0.08-0.895-0.488-1.337-0.748c0.33-0.354,0.577-0.849,1.005-1.037
		c2.076-0.916,3.634-2.252,4.681-4.02c0.841-1.422,1.06-2.863,0.345-4.425c-0.988-2.154-1.345-4.396-0.569-6.673
		c1.244-3.655,5.151-4.469,8.172-1.691c0.622,0.573,1.189,1.223,1.611,1.914c4.297,7.023,11.271,10.521,20.286,11.079
		c4.81,0.299,9.686,0.509,14.476,0.176c5.688-0.396,10.587-2.86,15.226-5.603c3.177-1.877,6.232-3.92,9.521-5.635
		c1.664-0.865,3.686-1.485,5.613-1.656c3.25-0.284,5.448,1.562,5.645,4.429c0.135,1.972,0.016,3.95,0,5.927
		c-0.012,2.336,0.404,4.424,3.379,5.461c1.096,0.381,0.978,1.434-0.346,1.84c-1.758,0.543-3.65,0.998-5.502,1.053
		c-11.058,0.32-22.114,0.519-33.171,0.748c-1.324,0.029-2.65,0.005-3.975,0.005C25.645,117.379,25.642,117.5,25.638,117.62z"/>
	<path display="inline" fill="#6C757D" d="M98.068,116.215c-6.394-0.461-12.785-0.885-19.171-1.424
		c-0.897-0.076-1.75-0.717-2.62-1.099c0.823-0.36,1.619-0.911,2.482-1.054c6.693-1.1,12.803-3.688,18.578-7.133
		c2.474-1.473,4.85-3.114,7.378-4.479c1.548-0.833,3.257-1.52,4.976-1.861c3.017-0.604,4.917,0.457,6.077,3.338
		c0.906,2.252,1.439,4.654,2.255,6.945c0.37,1.043,1.051,1.971,1.563,2.965c0.253,0.5,0.746,1.153,0.594,1.519
		c-0.2,0.479-0.893,0.989-1.43,1.06c-2.691,0.34-5.396,0.68-8.109,0.76c-4.179,0.121-8.367,0.031-12.554,0.031
		C98.08,115.928,98.076,116.07,98.068,116.215z"/>
	<path display="inline" fill="#6C757D" d="M51.551,92.971c1.168-1.626,2.324-3.008,3.233-4.549
		c2.676-4.547,3.524-9.658,3.898-14.887c0.15-2.127,0.761-2.498,2.46-1.24c2.56,1.896,3.751,4.565,3.664,7.853
		c-0.018,0.772-0.133,1.545-0.231,2.638c2.584-0.992,4.979-1.992,7.43-2.813c0.756-0.253,1.972-0.363,2.409,0.083
		c0.469,0.476,0.523,1.75,0.32,2.554c-0.979,3.887-3.392,6.65-6.725,8.444C62.834,93.836,57.368,94.39,51.551,92.971z"/>
	<path display="inline" fill="#6C757D" d="M-5.494-2.237c-3.623,0.014-5.645-1.742-6.255-4.843
		c-0.603-3.055,0.887-6.518,3.296-7.662c3.328-1.581,8.276-0.302,10.546,2.725c2.609,3.483,1.468,7.622-2.568,8.858
		C-2.308-2.597-4.256-2.453-5.494-2.237z"/>
	<path display="inline" fill="#6C757D" d="M-10.289,90.229c-3.702,0.025-7.187-3.775-7.273-7.952
		c-0.068-3.274,2.759-5.821,6.569-5.915c4.282-0.104,7.998,3.471,7.953,7.652C-3.075,87.22-6.551,90.198-10.289,90.229z"/>
	<path display="inline" fill="#6C757D" d="M87.719,64.04c2.686,0.012,5.139,1.883,6.027,4.601c0.862,2.642,0.104,5.03-2.325,6.896
		c-2.294,1.756-4.813,2.678-7.659,1.651c-3.132-1.123-4.71-4.916-3.407-8.104C81.459,66.363,84.871,64.028,87.719,64.04z"/>
	<path display="inline" fill="#6C757D" d="M105.51,96.974c-3.833,0.004-5.905-2.683-5.148-6.665c0.946-4.964,4.864-7.67,9.531-6.588
		c3.243,0.752,4.638,3.13,3.833,6.527C112.86,93.899,109.109,96.971,105.51,96.974z"/>
	<path display="inline" fill="#6C757D" d="M68.444,8.949c-0.085,5.218-1.933,7.814-5.522,7.773
		c-3.914-0.045-7.121-3.209-7.009-6.923c0.12-3.967,3.092-6.949,6.809-6.827C66.031,3.078,68.499,5.652,68.444,8.949z"/>
</g>
<g display="none">
	<path display="inline" fill="#6C757D" d="M-20.659,74.129c0.482-3.135,0.867-6.287,1.466-9.397
		c1.798-9.32,7.838-21.19,13.867-27.306C3.651,57.297,19.206,68.402,41.64,70.633c-4.38,9.031-8.418,18.094-16.896,24.568
		c1.118,2.299,2.321,4.771,3.705,7.61c1.766-1.319,3.523-2.435,5.038-3.806c4.521-4.092,7.804-9.118,10.94-14.232
		c0.862-1.406,1.746-2.807,2.51-4.262c0.461-0.881,1.02-1.17,2.033-1.053c5.591,0.645,11.188,1.229,16.782,1.834
		c3.149,0.338,6.299,0.674,9.394,1.004c0.545-1.316,0.935-2.584,1.565-3.723c1.888-3.402,4.751-5.283,8.862-5.209
		c3.653,0.065,7.311,0.014,10.887,0.014c0.141,0.162,0.256,0.236,0.255,0.308c-0.113,4.201,0.16,8.457-0.467,12.586
		c-0.628,4.13-3.305,7.097-7.949,8.267c4.004,0.996,6.455,3.446,7.608,6.979c0.587,1.793,0.751,3.753,0.861,5.651
		c0.165,2.845,0.114,5.701,0.156,8.554c-4.526,0-9.052,0-13.579,0c-4.473-1.265-6.896-4.322-7.943-8.586
		c-0.117-0.481-0.225-0.966-0.331-1.427c-0.251,0-0.397-0.021-0.535,0.004c-13.006,2.469-26.006,4.964-39.019,7.396
		c-5.038,0.944-10.101,1.743-15.152,2.611c-1.445,0-2.89,0-4.335,0c-0.415-0.083-0.828-0.21-1.25-0.242
		c-15.484-1.18-28.618-11.124-33.421-25.495c-0.954-2.854-1.36-5.883-2.02-8.83C-20.659,78.814-20.659,76.472-20.659,74.129z"/>
	<path display="inline" fill="#6C757D" d="M127.264-19.735c-2.874,0.188-5.812,0.062-8.604,0.627
		c-6.366,1.291-11.401,6.564-12.72,12.887c0.25,0.142,0.519,0.314,0.805,0.458c4.803,2.398,7.438,6.245,7.431,11.467
		c-0.009,5.283-2.686,9.169-7.591,11.492c-0.833,0.394-1.041,0.857-1.087,1.698c-0.479,9.119-7.754,16.184-16.855,16.426
		c-9.78,0.258-17.836-7.315-17.943-16.938c-0.061-5.526,0.025-11.053-0.038-16.578c-0.042-3.825-2.544-7.086-6.203-8.309
		c-3.63-1.213-7.695-0.251-10.023,2.742c-1.058,1.36-1.824,3.112-2.166,4.794c-1.209,5.916-2.184,11.878-3.228,17.826
		c-0.097,0.55-0.081,1.119-0.096,1.681c-0.188,7.722-0.209,15.455-0.608,23.166c-0.328,6.322-1.813,12.483-3.78,18.611
		c-5.6-0.439-11.106-1.141-16.334-3.211C17.215,54.747,9.138,47.372,4.089,36.887c-0.836-1.736-1.64-3.487-2.528-5.198
		c-0.352-0.679-0.222-1.058,0.354-1.537c9.294-7.724,19.951-12.593,32.028-14.473c1.851-0.288,3.722-0.481,5.591-0.595
		c1.046-0.065,1.471-0.416,1.646-1.451c0.887-5.213,1.709-10.446,2.848-15.61c1.852-8.393,10.19-14.273,18.745-13.451
		c9.293,0.894,16.314,7.878,16.564,16.703c0.158,5.568,0.015,11.146,0.062,16.719c0.039,4.769,3.101,8.187,7.792,8.811
		c4.924,0.655,9.86-3.641,9.582-8.418c-0.023-0.416-0.644-0.948-1.11-1.167c-7.497-3.509-9.896-12.572-4.997-19.046
		c1.397-1.848,3.182-3.261,5.373-4.124c0.747-0.294,1.078-0.67,1.232-1.483c2.09-10.823,10.958-18.966,22.242-20.494
		c0.276-0.037,0.543-0.156,0.813-0.238c2.291,0,4.58,0,6.936,0C127.264-25.356,127.264-22.547,127.264-19.735z M24.043,43.998
		c2.019-1.965,4.007-3.9,5.81-5.654c-1.904-1.845-3.898-3.777-5.792-5.607c-1.872,1.825-3.858,3.762-5.772,5.629
		C20.172,40.209,22.133,42.129,24.043,43.998z"/>
	<path display="inline" fill="#6C757D" d="M63.271,45.299c1.985,1.934,3.942,3.842,5.809,5.663c-1.914,1.86-3.907,3.801-5.807,5.65
		c-1.873-1.814-3.892-3.769-5.82-5.634C59.358,49.116,61.348,47.176,63.271,45.299z"/>
	<path display="inline" fill="#6C757D" d="M11.499-1.716c1.784-1.745,3.741-3.659,5.58-5.458c1.94,1.895,3.923,3.829,5.774,5.636
		c-1.768,1.714-3.755,3.64-5.613,5.443C15.494,2.196,13.488,0.233,11.499-1.716z"/>
	<path display="inline" fill="#6C757D" d="M-3.104,6.979c-1.887,1.831-3.879,3.766-5.78,5.612c-1.902-1.849-3.892-3.78-5.81-5.644
		c1.921-1.854,3.918-3.78,5.821-5.616C-7.029,3.138-5.045,5.079-3.104,6.979z"/>
</g>
<path fill="#FFD700" d="M103.308,77.44c-3.728,1.354-7.157,1.414-10.503-0.15c-4.722-2.209-7.69-6.215-8.776-11.932
	c-0.227-1.182-0.646-1.416-1.595-1.41c-7.606,0.037-15.217,0.021-22.825,0.018c-0.72,0-1.359-0.096-1.534,1.08
	c-1.384,9.359-9.96,15.721-18.621,12.621c-0.132-0.047-0.278-0.045-0.64-0.1c-0.026,0.629-0.059,1.234-0.079,1.838
	c-0.132,3.975,0.126,8.02-0.469,11.896c-1.607,10.486-10.147,17.359-19.817,16.369c-8.617-0.885-15.877-9.83-15.926-19.975
	C2.436,69.135,2.39,50.57,2.54,32.012c0.126-15.492,11.426-28.75,24.94-29.654c0.795-0.054,1.595-0.096,2.392-0.097
	C57.301,2.256,84.73,2.24,112.159,2.263c12.932,0.013,23.563,9.404,26.596,23.531c0.487,2.274,0.751,4.672,0.759,7.014
	c0.063,18.134,0.078,36.262,0.022,54.395c-0.034,10.393-6.908,19.27-15.654,20.438c-9.304,1.25-17.759-5.127-19.921-15.393
	c-0.66-3.135-0.491-6.504-0.643-9.768C103.246,80.891,103.308,79.292,103.308,77.44z M31.291,34.121c2.187,0,4.167,0.157,6.11-0.071
	c0.914-0.105,2.031-0.715,2.589-1.52c1.479-2.14,0.044-5.185-2.422-5.291c-2.046-0.089-4.099-0.018-6.288-0.018
	c0-2.576,0.04-4.931-0.014-7.284c-0.038-1.633-0.841-2.729-2.188-3.187c-1.302-0.443-2.5-0.022-3.214,1.28
	c-0.418,0.766-0.588,1.802-0.626,2.729c-0.09,2.08-0.028,4.167-0.028,6.448c-2.083,0-4-0.099-5.904,0.045
	c-0.83,0.064-1.763,0.427-2.414,1.003c-1.028,0.912-1.146,2.333-0.704,3.685c0.451,1.373,1.394,2.147,2.707,2.165
	c2.054,0.024,4.104,0.005,6.062,0.005c0.134,0.323,0.208,0.419,0.209,0.517c0.021,2.096,0.008,4.193,0.057,6.29
	c0.058,2.382,1.218,3.81,3.027,3.814c1.854,0.002,3.023-1.502,3.041-3.957C31.303,38.634,31.291,36.49,31.291,34.121z
	 M109.79,61.782c-0.011-6.445-5.242-11.795-11.577-11.837c-6.391-0.04-11.694,5.352-11.722,11.914
	c-0.03,6.543,5.27,11.938,11.69,11.912C104.611,73.743,109.801,68.383,109.79,61.782z M32.252,62.637
	c0.03,6.598,5.256,11.914,11.693,11.893c6.3-0.02,11.564-5.381,11.605-11.82c0.039-6.543-5.209-11.964-11.628-12.003
	C37.537,50.663,32.222,56.096,32.252,62.637z M61.886,43.009c0,0.003,0,0.008,0,0.012c0.705,0,1.416,0.065,2.113-0.012
	c1.663-0.193,2.788-1.593,2.813-3.411c0.024-1.822-1.058-3.346-2.706-3.505c-1.443-0.142-2.916-0.138-4.359,0.004
	c-1.568,0.155-2.671,1.658-2.7,3.376c-0.03,1.778,1.104,3.29,2.729,3.519C60.469,43.089,61.183,43.009,61.886,43.009z
	 M80.156,43.036c0.612,0,1.226,0.042,1.835-0.01c1.789-0.151,3.036-1.651,3.002-3.556c-0.035-1.849-1.247-3.298-2.98-3.418
	c-1.262-0.084-2.538-0.082-3.803,0c-1.809,0.118-3.006,1.606-2.98,3.551c0.026,1.874,1.211,3.267,2.956,3.42
	C78.839,43.083,79.498,43.034,80.156,43.036z M126.051,30.608c-0.027-2.198-1.612-3.989-3.514-3.966
	c-1.896,0.022-3.496,1.862-3.499,4.022c-0.001,2.244,1.649,4.082,3.62,4.028C124.581,34.644,126.077,32.838,126.051,30.608z
	 M111.14,30.649c-0.007-2.2-1.573-4.004-3.479-4.007c-1.901-0.003-3.494,1.796-3.519,3.982c-0.023,2.262,1.586,4.1,3.566,4.07
	C109.63,34.663,111.148,32.874,111.14,30.649z M115.061,18.134c-1.93,0.024-3.459,1.802-3.451,4.012
	c0.009,2.191,1.572,3.995,3.481,4.011c1.938,0.016,3.59-1.908,3.535-4.125C118.573,19.839,116.992,18.109,115.061,18.134z
	 M115.115,43.219c1.915,0,3.491-1.783,3.512-3.963c0.021-2.172-1.537-3.984-3.453-4.019c-1.996-0.039-3.585,1.761-3.563,4.033
	C111.633,41.469,113.185,43.226,115.115,43.219z"/>
</svg>
