<?xml version="1.0" encoding="utf-8"?>
<!-- Generator: Adobe Illustrator 16.0.0, SVG Export Plug-In . SVG Version: 6.00 Build 0)  -->
<!DOCTYPE svg PUBLIC "-//W3C//DTD SVG 1.1//EN" "http://www.w3.org/Graphics/SVG/1.1/DTD/svg11.dtd">
<svg version="1.1" id="Layer_1" xmlns="http://www.w3.org/2000/svg" xmlns:xlink="http://www.w3.org/1999/xlink" x="0px" y="0px"
	 width="142.012px" height="134.715px" viewBox="0 0 142.012 134.715" enable-background="new 0 0 142.012 134.715"
	 xml:space="preserve">
<g display="none">
	<path display="inline" fill="#6C757D" d="M116.195,47.37c0,22.989,0,45.981,0,68.969c-44.569,0-89.139,0-133.705,0
		c0-22.991,0-45.979,0-68.969c2.434-0.004,4.87-0.011,7.305-0.011C31.928,47.363,74.063,47.367,116.195,47.37z M11.251,102.975
		c0-0.875,0.002-1.681,0-2.488c-0.03-6.473,1.598-12.44,4.977-17.889c1.938-3.121,3.746-6.338,5.794-9.381
		c1.191-1.77,1.716-3.557,1.569-5.695c-0.129-1.874-0.028-3.763-0.028-5.641c-9.555,0-18.891,0-28.267,0c0,5.358,0,10.639,0,15.917
		c2.585,0,5.08,0,7.679,0c0-2.636,0-5.167,0-7.75c3.907,0,7.701,0,11.881,0C7.854,79.982,2.383,90.253,3.664,102.975
		C6.186,102.975,8.647,102.975,11.251,102.975z M54.834,70.021c-7.018,9.971-12.493,20.213-11.207,32.935c2.474,0,4.969,0,7.438,0
		c0.06-0.166,0.116-0.249,0.116-0.329c0.016-0.816,0.021-1.635,0.029-2.453c0.035-5.933,1.387-11.498,4.397-16.558
		c2.404-4.048,4.894-8.041,7.332-12.064c0.229-0.375,0.533-0.799,0.541-1.204c0.047-2.802,0.027-5.604,0.027-8.457
		c-9.5,0-18.872,0-28.237,0c0,5.37,0,10.65,0,15.939c2.566,0,5.027,0,7.644,0c0-2.635,0-5.197,0-7.811
		C46.842,70.021,50.618,70.021,54.834,70.021z M94.305,69.969c-7.051,10.018-12.522,20.264-11.244,32.994c2.472,0,4.967,0,7.582,0
		c0-0.847,0.004-1.609,0-2.375c-0.041-6.568,1.619-12.615,5.064-18.136c2.252-3.61,4.455-7.257,6.668-10.894
		c0.227-0.377,0.533-0.798,0.541-1.205c0.047-2.801,0.024-5.605,0.024-8.463c-9.494,0-18.862,0-28.239,0c0,5.369,0,10.65,0,15.947
		c2.563,0,5.024,0,7.645,0c0-2.634,0-5.194,0-7.774c0.361-0.041,0.572-0.09,0.783-0.09C86.695,69.968,90.26,69.969,94.305,69.969z"
		/>
	<path display="inline" fill="#6C757D" d="M-17.51,10.84c3.796-1.672,7.598-3.332,11.382-5.038c0.413-0.187,0.752-0.604,1.063-0.971
		c2.588-3.061,5.162-6.135,7.796-9.274C5.138-1.574,7.518,1.199,9.818,4.04c0.896,1.104,1.917,1.896,3.202,2.443
		c3.291,1.405,6.545,2.902,9.956,4.426c-0.394,0.715-0.741,1.363-1.104,2.002c-1.042,1.835-1.935,3.79-3.172,5.466
		c-2.196,2.984-2.634,6.399-2.813,9.965c-0.119,2.396-0.396,4.783-0.625,7.401c-1.54-0.34-3.001-0.648-4.455-0.987
		c-2.371-0.553-4.731-1.158-7.108-1.674c-0.612-0.132-1.3-0.125-1.908,0.012c-3.477,0.789-6.938,1.637-10.408,2.454
		c-0.33,0.078-0.677,0.088-1.171,0.148c-0.218-2.352-0.436-4.631-0.644-6.912c-0.177-1.941-0.338-3.886-0.523-5.828
		c-0.029-0.305-0.102-0.635-0.25-0.894c-2.092-3.658-4.202-7.305-6.307-10.955C-17.51,11.022-17.51,10.933-17.51,10.84z"/>
	<path display="inline" fill="#6C757D" d="M116.195,11.113c-2.108,3.65-4.276,7.262-6.27,10.977
		c-0.477,0.883-0.422,2.101-0.521,3.173c-0.321,3.425-0.604,6.856-0.916,10.488c-1.559-0.346-3.026-0.664-4.483-1.001
		c-0.976-0.226-1.99-0.355-2.906-0.745c-4.395-1.865-8.6-0.345-12.846,0.656c-1.553,0.368-3.109,0.726-4.813,1.125
		c-0.227-2.506-0.442-4.835-0.647-7.167c-0.123-1.4-0.105-2.83-0.371-4.199c-0.252-1.297-0.619-2.629-1.23-3.776
		c-1.731-3.244-3.608-6.403-5.494-9.704c3.328-1.497,6.564-3.012,9.855-4.401c1.375-0.581,2.455-1.428,3.402-2.602
		c2.274-2.805,4.625-5.543,7-8.381c2.575,3.071,5.073,6.093,7.635,9.06c0.531,0.616,1.225,1.168,1.949,1.502
		c3.53,1.62,7.098,3.157,10.653,4.724C116.195,10.933,116.195,11.022,116.195,11.113z"/>
	<path display="inline" fill="#6C757D" d="M61.855,23.523c-3.646-0.868-7.059-1.762-10.504-2.457
		c-1.271-0.256-2.67-0.26-3.939-0.002c-3.489,0.705-6.939,1.607-10.573,2.469c-0.27-2.917-0.654-5.698-0.752-8.49
		c-0.112-3.157-0.787-6.009-2.553-8.654c-1.609-2.408-2.92-5.034-4.441-7.707c1.903-0.866,3.667-1.869,5.544-2.479
		c4.572-1.484,8.105-4.313,10.893-8.328c1.093-1.573,2.444-2.949,3.749-4.5c0.273,0.265,0.535,0.48,0.75,0.735
		c2.354,2.797,4.688,5.615,7.069,8.388c0.443,0.517,1.033,0.971,1.641,1.253c3.132,1.456,6.289,2.845,9.438,4.263
		c0.436,0.195,0.861,0.405,1.408,0.668C68.369,0.829,67.387,3.035,66,4.912c-2.785,3.766-3.478,8.074-3.625,12.622
		C62.303,19.47,62.045,21.401,61.855,23.523z"/>
</g>
<g>
	<path fill="#FFD700" d="M24.805,132.714c-6.735,0.061-11.949-4.643-12.832-11.236c-2.83-21.158-5.637-42.317-8.462-63.474
		C2.21,48.278,0.89,38.555-0.424,28.831c-1.031-7.629,3.678-14.062,10.947-15.118c14.131-2.054,28.254-4.177,42.38-6.268
		c4.104-0.607,8.208-1.216,12.316-1.803c6.741-0.964,12.895,4.041,13.872,11.328c2.739,20.453,5.45,40.911,8.186,61.366
		c1.396,10.428,2.813,20.853,4.218,31.278c0.938,6.938-3.272,13.974-11.683,15.141c-17.823,2.475-35.611,5.211-53.415,7.832
		C25.731,132.685,25.053,132.694,24.805,132.714z M43.764,56.093c-0.497-0.309-0.9-0.577-1.318-0.817
		c-4.866-2.803-10.922-1.296-14.108,3.507c-3.134,4.725-2.498,11.321,1.753,14.966c4.324,3.708,8.838,7.187,13.362,10.625
		c2.588,1.968,6.104,1.445,8.064-1.183c3.445-4.621,6.9-9.25,10.064-14.08c4.189-6.396,0.902-15.3-6.241-17.223
		C50.725,50.647,46.916,52.259,43.764,56.093z M73.73,105.131c-0.847-1.289-1.504-2.337-2.206-3.349
		c-1.194-1.719-2.91-2.127-4.396-1.086c-1.521,1.067-1.813,2.996-0.655,4.802c1.801,2.812,3.649,5.588,5.472,8.386
		c0.77,1.18,1.787,1.885,3.171,1.657c1.36-0.22,2.18-1.134,2.61-2.517c1.018-3.264,2.103-6.506,3.124-9.77
		c0.591-1.891-0.149-3.624-1.74-4.253c-1.675-0.661-3.36,0.187-4.051,2.09C74.615,102.319,74.24,103.571,73.73,105.131z
		 M17.328,33.162c0.853,1.296,1.531,2.389,2.268,3.435c1.13,1.605,2.881,1.997,4.305,1.011c1.497-1.036,1.849-2.933,0.752-4.663
		c-1.813-2.862-3.693-5.676-5.553-8.506c-0.779-1.187-1.86-1.767-3.229-1.53c-1.292,0.225-2.144,1.044-2.563,2.37
		c-1.029,3.259-2.105,6.501-3.109,9.769c-0.603,1.964,0.204,3.689,1.899,4.276c1.7,0.589,3.247-0.288,3.946-2.273
		C16.464,35.869,16.833,34.669,17.328,33.162z"/>
	<path fill="#FFD700" d="M94.772,123.008c0.893-2.487,1.907-4.828,2.563-7.272c1.049-3.92,0.144-7.849-0.375-11.75
		c-1.686-12.732-3.396-25.462-5.103-38.192c-1.693-12.631-3.389-25.261-5.08-37.891c-0.519-3.859-1.056-7.716-1.545-11.579
		c-0.604-4.752-2.539-8.769-5.884-12.033c-0.318-0.31-0.634-0.621-0.945-0.938c-0.018-0.017,0.015-0.086,0.046-0.246
		c0.381-0.023,0.791-0.072,1.202-0.072c5.979-0.005,11.961-0.019,17.943,0c7.773,0.026,13.011,5.47,13.017,13.618
		c0.017,30.904,0.017,61.808,0,92.712c-0.005,8.156-5.232,13.596-13.001,13.641C96.615,123.012,95.62,123.008,94.772,123.008z"/>
	<path fill="#FFD700" d="M116.77,11.65c5.018,0.787,10.298,1.37,15.472,2.488c6.208,1.342,10.004,7.951,9.063,14.884
		c-2.329,17.195-4.61,34.396-6.911,51.593c-1.827,13.64-3.635,27.278-5.493,40.913c-0.978,7.17-6.808,11.918-13.887,11.084
		c-6.314-0.744-12.59-1.828-18.891-2.963c1.339-0.086,2.686-0.125,4.02-0.271c9.471-1.029,16.594-9.263,16.615-19.326
		c0.037-18.397,0.012-36.795,0.012-55.192c0-12.164,0-24.327,0-36.49C116.77,16.201,116.77,14.034,116.77,11.65z"/>
</g>
</svg>
