<?xml version="1.0" encoding="utf-8"?>
<!-- Generator: Adobe Illustrator 16.0.0, SVG Export Plug-In . SVG Version: 6.00 Build 0)  -->
<!DOCTYPE svg PUBLIC "-//W3C//DTD SVG 1.1//EN" "http://www.w3.org/Graphics/SVG/1.1/DTD/svg11.dtd">
<svg version="1.1" id="Layer_1" xmlns="http://www.w3.org/2000/svg" xmlns:xlink="http://www.w3.org/1999/xlink" x="0px" y="0px"
	 width="196.667px" height="166.333px" viewBox="0 0 196.667 166.333" enable-background="new 0 0 196.667 166.333"
	 xml:space="preserve">
<g>
	<path fill-rule="evenodd" clip-rule="evenodd" fill="#757575" d="M166.978,165.573c-41.456,0-82.915,0-124.372,0
		c-0.159-0.09-0.31-0.225-0.48-0.26c-8.444-1.779-12.881-7.207-12.884-15.795c-0.004-11.879-0.001-23.758-0.001-35.635
		c0-0.664,0-1.326,0-1.963c16.647-0.541,28.761-7.867,33.86-23.793c5.197-16.238-0.578-29.366-14.306-39.503c0.89,0,1.546,0,2.204,0
		c18.188,0,36.376,0,54.564,0c19.735,0,39.47-0.013,59.205,0.006c8.968,0.009,15.315,6.248,15.453,15.235
		c0.087,5.69,0.019,11.383,0.013,17.074c0,0.419-0.062,0.838-0.11,1.456c-0.749,0-1.411,0-2.071,0
		c-9.651,0.005-19.309-0.214-28.951,0.077c-9.558,0.289-17.146,4.428-21.222,13.379c-4.157,9.127-3.236,18.033,2.945,26.023
		c4.854,6.277,11.747,8.619,19.447,8.705c9.218,0.104,18.437,0.025,27.654,0.025c0.716,0,1.431,0,2.138,0
		c0,7.434,0.302,14.609-0.089,21.75c-0.354,6.484-5.423,11.572-11.8,12.84C167.767,165.278,167.376,165.446,166.978,165.573z"/>
	<path fill-rule="evenodd" clip-rule="evenodd" fill="#757575" d="M1.767,74.612c0.347-1.426,0.659-2.862,1.047-4.277
		c3.669-13.382,16.221-22.278,30.01-21.282c13.642,0.984,24.713,11.414,26.567,25.023c2.117,15.541-8.813,30.327-23.992,32.458
		c-16.331,2.291-30.846-8.271-33.292-24.216c-0.053-0.35-0.223-0.682-0.339-1.022C1.767,79.068,1.767,76.841,1.767,74.612z
		 M27.385,74.081c-4.083,0-7.908-0.013-11.732,0.005c-2.428,0.011-3.794,1.118-3.847,3.051c-0.054,1.983,1.378,3.207,3.875,3.246
		c2.102,0.034,4.205,0.009,6.306,0.009c1.76,0,3.521,0,5.396,0c0,0.847,0,1.396,0,1.945c0.001,3.462-0.038,6.926,0.021,10.386
		c0.033,1.943,1.338,3.195,3.126,3.201s3.042-1.248,3.152-3.181c0.039-0.678,0.011-1.359,0.011-2.04c0-3.383,0-6.766,0-10.31
		c1.073,0,1.926,0.003,2.78,0c3.153-0.015,6.308,0.046,9.457-0.079c1.827-0.073,3.007-1.479,2.974-3.156
		c-0.033-1.691-1.258-2.925-3.089-3.054c-0.8-0.056-1.606-0.022-2.411-0.022c-3.199-0.002-6.397,0-9.514,0
		c-0.094-0.303-0.128-0.361-0.129-0.42c-0.024-3.769-0.049-7.538-0.067-11.307c-0.009-1.745-0.701-3.009-2.503-3.395
		c-2.144-0.459-3.772,0.969-3.797,3.374C27.356,66.162,27.385,69.99,27.385,74.081z"/>
	<path fill-rule="evenodd" clip-rule="evenodd" fill="#757575" d="M195.566,118.422c-1.761,4.826-5.341,6.373-10.285,6.299
		c-11.745-0.174-23.495-0.018-35.243-0.068c-9.503-0.039-16.763-5.971-18.506-14.99c-2.023-10.475,6.074-21.018,16.744-21.228
		c13.227-0.262,26.463-0.142,39.692-0.041c4.038,0.03,6.285,2.695,7.598,6.267C195.566,102.581,195.566,110.502,195.566,118.422z
		 M157.281,104.331c-1.559,0.055-2.906,1.527-2.823,3.088c0.082,1.512,1.432,2.816,2.912,2.816c1.569,0,2.927-1.402,2.901-2.998
		C160.245,105.635,158.85,104.28,157.281,104.331z"/>
	<path fill-rule="evenodd" clip-rule="evenodd" fill="#757575" d="M113.146,1.474c6.701,1.222,10.218,6.727,14.897,10.923
		c-5.386,3.33-10.63,6.565-15.867,9.811c-10.501,6.506-20.986,13.039-31.517,19.494c-0.934,0.572-2.155,0.915-3.253,0.939
		c-4.566,0.103-9.135,0.043-14.004,0.043c0.443-0.537,0.694-0.911,1.011-1.216C76.729,29.573,89.068,17.7,101.36,5.778
		c2.4-2.329,5.277-3.561,8.445-4.304C110.918,1.474,112.032,1.474,113.146,1.474z"/>
	<path fill-rule="evenodd" clip-rule="evenodd" fill="#757575" d="M161.035,42.617c-23.547,0-46.706,0-70.264,0
		c0.696-0.504,1.091-0.828,1.521-1.095c12.505-7.732,25.007-15.469,37.527-23.182c6.147-3.787,14.47-2.37,18.506,3.63
		C152.762,28.569,156.69,35.509,161.035,42.617z"/>
	<path fill-rule="evenodd" clip-rule="evenodd" fill="#757575" d="M157.281,104.331c1.569-0.051,2.964,1.305,2.99,2.906
		c0.025,1.596-1.332,2.998-2.901,2.998c-1.48,0-2.83-1.305-2.912-2.816C154.375,105.858,155.722,104.385,157.281,104.331z"/>
</g>
<g display="none">
	<path display="inline" fill-rule="evenodd" clip-rule="evenodd" fill="#636566" d="M166.289,165.057c-41.265,0-82.529,0-123.793,0
		c-0.159-0.089-0.308-0.223-0.478-0.259c-8.405-1.769-12.821-7.172-12.825-15.722c-0.004-11.822-0.001-23.646-0.001-35.468
		c0-0.659,0-1.319,0-1.954c16.57-0.537,28.627-7.83,33.702-23.681c5.173-16.163-0.575-29.23-14.239-39.319c0.885,0,1.54,0,2.194,0
		c18.104,0,36.207,0,54.311,0c19.643,0,39.286-0.014,58.929,0.006c8.926,0.008,15.242,6.218,15.38,15.163
		c0.087,5.664,0.021,11.33,0.013,16.995c0,0.418-0.061,0.834-0.109,1.449c-0.744,0-1.403,0-2.062,0
		c-9.605,0.004-19.219-0.213-28.815,0.077c-9.515,0.287-17.066,4.408-21.124,13.317c-4.138,9.085-3.221,17.947,2.932,25.902
		c4.831,6.247,11.693,8.579,19.358,8.665c9.173,0.102,18.351,0.024,27.525,0.024c0.712,0,1.423,0,2.127,0
		c0,7.398,0.3,14.542-0.088,21.647c-0.354,6.455-5.399,11.52-11.746,12.781C167.073,164.764,166.685,164.93,166.289,165.057z"/>
	<path display="inline" fill-rule="evenodd" clip-rule="evenodd" fill="#636566" d="M194.742,118.127
		c-1.751,4.805-5.314,6.342-10.236,6.27c-11.69-0.172-23.387-0.02-35.079-0.068c-9.46-0.039-16.684-5.943-18.42-14.919
		c-2.014-10.427,6.045-20.92,16.667-21.13c13.165-0.261,26.339-0.141,39.507-0.04c4.02,0.031,6.257,2.683,7.562,6.238
		C194.742,102.359,194.742,110.244,194.742,118.127z M156.677,109.977c1.56,0.029,2.934-1.345,2.934-2.936
		c0.003-1.594-1.366-2.965-2.929-2.94c-1.479,0.025-2.799,1.34-2.854,2.844C153.768,108.503,155.126,109.95,156.677,109.977z"/>
	<path display="inline" fill-rule="evenodd" clip-rule="evenodd" fill="#636566" d="M1.846,74.522
		c0.345-1.421,0.657-2.85,1.043-4.258c3.651-13.32,16.146-22.175,29.87-21.184c13.578,0.98,24.598,11.362,26.443,24.907
		c2.108,15.469-8.771,30.186-23.88,32.306C19.067,108.576,4.619,98.062,2.185,82.19c-0.054-0.348-0.223-0.679-0.338-1.017
		C1.846,78.956,1.846,76.739,1.846,74.522z M5.398,80.582c1.143,0.606,1.791,1.055,2.507,1.31c2.717,0.973,5.489,1.798,8.175,2.847
		c1.392,0.544,2.313,0.302,3.424-0.67c6.466-5.661,13.005-11.238,19.52-16.844c0.077,0.068,0.154,0.138,0.23,0.206
		c-5.25,6.563-10.502,13.126-15.858,19.82c5.811,2.113,11.283,4.131,16.78,6.082c1.904,0.676,2.76,0.144,3.025-1.683
		c1.469-10.098,2.938-20.195,4.392-30.294c0.285-1.983-0.465-2.546-2.279-1.768c-0.451,0.194-0.883,0.43-1.32,0.658
		C31.835,66.564,19.678,72.882,7.523,79.212C6.951,79.511,6.43,79.911,5.398,80.582z M21.069,89.557c0,2.698-0.05,5.152,0.042,7.602
		c0.019,0.489,0.486,1.213,0.911,1.362c0.432,0.15,1.269-0.105,1.576-0.477c1.594-1.933,3.075-3.956,4.758-6.162
		C25.89,91.096,23.638,90.377,21.069,89.557z"/>
	<path display="inline" fill-rule="evenodd" clip-rule="evenodd" fill="#636566" d="M112.705,1.724
		c6.673,1.216,10.172,6.696,14.831,10.872c-5.361,3.313-10.582,6.534-15.796,9.765c-10.45,6.476-20.886,12.978-31.369,19.403
		c-0.929,0.57-2.146,0.911-3.238,0.936c-4.544,0.102-9.093,0.042-13.938,0.042c0.441-0.534,0.691-0.906,1.006-1.21
		c12.259-11.84,24.541-23.656,36.774-35.523c2.39-2.318,5.254-3.545,8.406-4.284C110.49,1.724,111.598,1.724,112.705,1.724z"/>
	<path display="inline" fill-rule="evenodd" clip-rule="evenodd" fill="#636566" d="M90.277,42.606
		c8.867-5.477,17.285-10.678,25.705-15.879c4.446-2.746,8.887-5.503,13.345-8.233c5.998-3.673,14.193-2.425,18.174,3.374
		c4.542,6.623,8.495,13.648,12.854,20.738C136.965,42.606,113.893,42.606,90.277,42.606z"/>
</g>
<g display="none">
	<path display="inline" fill-rule="evenodd" clip-rule="evenodd" fill="#636566" d="M163.56,165.057c-26.531,0-53.065,0-79.597,0
		c0.342-0.267,0.675-0.545,1.025-0.798c9.973-7.237,16.719-16.638,20.074-28.238c0.866-2.992,1.337-6.09,2.011-9.245
		c1.276,0,2.592,0,3.906,0c12.275,0,24.549-0.01,36.824,0.009c2.313,0.005,4.095-0.817,5.071-2.878
		c1.552-3.271-0.967-6.688-4.926-6.695c-13.045-0.016-26.09-0.007-39.135-0.007c-0.641,0-1.281,0-1.966,0
		c-0.651-6.804-2.613-13.047-5.677-19.139c7.65,0,15.023,0,22.396,0c8.146,0,16.292-0.005,24.438,0.001
		c2.257,0.001,3.959-0.91,4.887-2.903c1.524-3.278-1.009-6.66-4.982-6.663c-17.008-0.012-34.016-0.027-51.023,0.029
		c-1.622,0.005-2.683-0.453-3.783-1.621C83.567,76.773,71.757,70.877,57.589,69.66c-3.251-0.279-6.549-0.042-9.848-0.042
		c-0.054-0.44-0.103-0.646-0.103-0.851c0-17.704-0.042-35.408,0.037-53.111c0.021-4.444,1.952-8.254,5.734-10.793
		c2.104-1.412,4.72-2.115,7.104-3.139c24.331,0,48.66,0,72.992,0c0,11.94-0.002,23.879,0.001,35.819c0,3.827,1.888,5.65,5.849,5.65
		c12.362,0.004,24.725,0.001,37.086,0.001c0,36.475,0,72.947,0,109.42c-0.119,0.404-0.249,0.805-0.358,1.212
		c-1.333,5.044-4.49,8.535-9.541,10.382C165.576,164.562,164.555,164.778,163.56,165.057z M112.059,69.354c1.925,0,3.85,0,5.774,0
		c10.01,0,20.021-0.012,30.031,0.007c2.316,0.004,4.082-0.863,5.034-2.924c1.514-3.28-1.026-6.646-4.999-6.648
		c-20.295-0.011-40.589-0.005-60.885-0.005c-3.685,0-7.369-0.004-11.054,0.001c-2.261,0.004-3.93,0.978-4.816,2.987
		c-1.431,3.237,1.074,6.568,4.944,6.574C88.079,69.366,100.07,69.354,112.059,69.354z"/>
	<path display="inline" fill-rule="evenodd" clip-rule="evenodd" fill="#636566" d="M8,118.481c0.746-3.302,1.202-6.694,2.284-9.892
		c6.321-18.662,25.032-30.913,44.973-29.607c20.522,1.345,37.268,15.599,41.156,35.032c4.888,24.438-13.289,48.141-38.921,50.761
		c-0.43,0.046-0.848,0.187-1.271,0.282c-2.421,0-4.844,0-7.267,0c-0.367-0.09-0.731-0.216-1.105-0.268
		c-18.678-2.559-31.254-12.428-37.604-29.546c-1.152-3.109-1.516-6.49-2.244-9.743C8,123.16,8,120.821,8,118.481z M57.54,117.205
		c0-4.804,0.018-9.416-0.006-14.029c-0.015-2.966-2.104-5.098-4.932-5.107c-2.832-0.007-4.951,2.125-4.961,5.077
		c-0.023,6.164-0.022,12.331-0.001,18.495c0.009,3.108,2.052,5.106,5.238,5.129c4.182,0.026,8.364,0.022,12.545,0.002
		c3.088-0.017,5.29-1.999,5.322-4.731c0.032-2.793-2.205-4.811-5.384-4.832C62.834,117.193,60.307,117.205,57.54,117.205z"/>
	<path display="inline" fill-rule="evenodd" clip-rule="evenodd" fill="#636566" d="M143.529,4.888
		c9.897,9.565,19.723,19.058,29.602,28.602c-9.806,0-19.647,0-29.602,0C143.529,24.01,143.529,14.485,143.529,4.888z"/>
</g>
</svg>
