<?xml version="1.0" encoding="utf-8"?>
<!-- Generator: Adobe Illustrator 16.0.0, SVG Export Plug-In . SVG Version: 6.00 Build 0)  -->
<!DOCTYPE svg PUBLIC "-//W3C//DTD SVG 1.1//EN" "http://www.w3.org/Graphics/SVG/1.1/DTD/svg11.dtd">
<svg version="1.1" id="Layer_1" xmlns="http://www.w3.org/2000/svg" xmlns:xlink="http://www.w3.org/1999/xlink" x="0px" y="0px"
	 width="142.012px" height="139.215px" viewBox="-20.747 -23 142.012 139.215" enable-background="new -20.747 -23 142.012 139.215"
	 xml:space="preserve">
<g display="none">
	<path display="inline" fill="#6C757D" d="M116.195,47.37c0,22.989,0,45.981,0,68.969c-44.57,0-89.139,0-133.706,0
		c0-22.991,0-45.98,0-68.969c2.434-0.004,4.871-0.011,7.305-0.011C31.928,47.363,74.063,47.367,116.195,47.37z M11.251,102.974
		c0-0.875,0.002-1.68,0-2.488c-0.03-6.472,1.598-12.44,4.977-17.888c1.938-3.122,3.746-6.338,5.794-9.381
		c1.191-1.77,1.716-3.557,1.569-5.695c-0.129-1.874-0.028-3.763-0.028-5.641c-9.555,0-18.891,0-28.267,0c0,5.358,0,10.638,0,15.917
		c2.585,0,5.08,0,7.679,0c0-2.636,0-5.167,0-7.75c3.907,0,7.701,0,11.881,0C7.854,79.983,2.383,90.253,3.664,102.974
		C6.186,102.974,8.647,102.974,11.251,102.974z M54.834,70.021c-7.017,9.971-12.493,20.214-11.207,32.935c2.474,0,4.969,0,7.438,0
		c0.059-0.166,0.116-0.249,0.116-0.329c0.016-0.817,0.021-1.635,0.029-2.453c0.035-5.933,1.387-11.498,4.398-16.558
		c2.404-4.048,4.893-8.041,7.332-12.064c0.229-0.375,0.533-0.799,0.541-1.204c0.047-2.802,0.027-5.605,0.027-8.457
		c-9.5,0-18.872,0-28.237,0c0,5.37,0,10.65,0,15.939c2.566,0,5.027,0,7.643,0c0-2.634,0-5.197,0-7.81
		C46.842,70.021,50.618,70.021,54.834,70.021z M94.305,69.969c-7.051,10.018-12.523,20.263-11.244,32.994c2.471,0,4.967,0,7.582,0
		c0-0.847,0.004-1.61,0-2.375c-0.041-6.569,1.619-12.616,5.064-18.136c2.252-3.61,4.455-7.256,6.668-10.893
		c0.227-0.378,0.533-0.798,0.541-1.205c0.047-2.801,0.025-5.606,0.025-8.464c-9.494,0-18.863,0-28.24,0c0,5.369,0,10.65,0,15.947
		c2.563,0,5.025,0,7.645,0c0-2.634,0-5.195,0-7.774c0.361-0.042,0.572-0.09,0.783-0.09C86.695,69.968,90.26,69.969,94.305,69.969z"
		/>
	<path display="inline" fill="#6C757D" d="M-17.51,10.84c3.796-1.672,7.598-3.332,11.382-5.038c0.413-0.187,0.752-0.604,1.064-0.971
		c2.588-3.061,5.162-6.135,7.796-9.274C5.138-1.574,7.518,1.199,9.818,4.04c0.895,1.104,1.917,1.896,3.202,2.443
		c3.291,1.405,6.545,2.902,9.956,4.426c-0.394,0.715-0.741,1.363-1.104,2.002c-1.042,1.835-1.934,3.79-3.172,5.466
		c-2.196,2.984-2.633,6.399-2.812,9.965c-0.119,2.396-0.397,4.783-0.625,7.401c-1.54-0.34-3.001-0.648-4.455-0.987
		c-2.371-0.553-4.732-1.158-7.109-1.674c-0.612-0.132-1.299-0.125-1.908,0.012c-3.476,0.789-6.938,1.637-10.408,2.454
		c-0.33,0.078-0.677,0.088-1.171,0.148c-0.218-2.352-0.435-4.631-0.643-6.912c-0.177-1.941-0.338-3.886-0.524-5.828
		c-0.029-0.305-0.101-0.635-0.25-0.894c-2.092-3.658-4.202-7.305-6.306-10.955C-17.51,11.022-17.51,10.933-17.51,10.84z"/>
	<path display="inline" fill="#6C757D" d="M116.195,11.113c-2.109,3.65-4.277,7.262-6.27,10.977
		c-0.477,0.883-0.422,2.101-0.52,3.173c-0.322,3.425-0.604,6.856-0.916,10.488c-1.559-0.346-3.027-0.664-4.484-1.001
		c-0.975-0.226-1.99-0.355-2.906-0.745c-4.395-1.865-8.6-0.345-12.846,0.656c-1.553,0.368-3.109,0.726-4.813,1.125
		c-0.227-2.506-0.443-4.835-0.648-7.167c-0.123-1.4-0.105-2.83-0.371-4.199c-0.252-1.297-0.619-2.629-1.23-3.776
		c-1.732-3.244-3.609-6.403-5.494-9.704c3.328-1.497,6.564-3.012,9.855-4.401c1.375-0.581,2.455-1.428,3.402-2.602
		c2.275-2.805,4.625-5.543,7-8.381c2.576,3.071,5.074,6.093,7.635,9.06c0.531,0.616,1.225,1.168,1.949,1.502
		c3.531,1.62,7.098,3.157,10.654,4.724C116.195,10.933,116.195,11.022,116.195,11.113z"/>
	<path display="inline" fill="#6C757D" d="M61.855,23.523c-3.646-0.868-7.059-1.762-10.504-2.457c-1.272-0.256-2.67-0.26-3.94-0.002
		c-3.489,0.705-6.939,1.607-10.573,2.469c-0.269-2.917-0.654-5.698-0.752-8.49c-0.112-3.157-0.787-6.009-2.553-8.654
		c-1.609-2.408-2.919-5.034-4.441-7.707c1.903-0.866,3.667-1.869,5.544-2.479c4.572-1.484,8.105-4.313,10.893-8.328
		c1.092-1.573,2.444-2.949,3.749-4.5c0.273,0.265,0.535,0.48,0.75,0.735c2.354,2.797,4.688,5.615,7.069,8.388
		c0.443,0.517,1.033,0.971,1.641,1.253c3.131,1.456,6.289,2.845,9.438,4.263c0.436,0.195,0.861,0.405,1.408,0.668
		C68.369,0.829,67.387,3.035,66,4.912c-2.785,3.766-3.477,8.074-3.625,12.622C62.303,19.47,62.045,21.401,61.855,23.523z"/>
</g>
<g display="none">
	<path display="inline" fill-rule="evenodd" clip-rule="evenodd" fill="#6C757D" d="M195.804,108.93
		c-6.734,0.061-11.949-4.642-12.832-11.237c-2.829-21.157-5.636-42.316-8.461-63.473c-1.301-9.726-2.621-19.449-3.934-29.173
		c-1.031-7.629,3.678-14.062,10.947-15.118c14.131-2.054,28.254-4.177,42.38-6.268c4.104-0.607,8.208-1.216,12.315-1.803
		c6.742-0.964,12.896,4.041,13.872,11.328c2.74,20.453,5.451,40.911,8.186,61.366c1.395,10.428,2.812,20.853,4.218,31.278
		c0.937,6.938-3.273,13.974-11.683,15.141c-17.823,2.474-35.611,5.211-53.415,7.832C196.731,108.9,196.052,108.911,195.804,108.93z
		 M214.764,32.309c-0.497-0.309-0.9-0.577-1.317-0.817c-4.867-2.803-10.922-1.296-14.109,3.507
		c-3.134,4.726-2.498,11.321,1.753,14.967c4.325,3.708,8.838,7.186,13.363,10.625c2.588,1.968,6.103,1.446,8.063-1.183
		c3.446-4.621,6.901-9.249,10.066-14.08c4.189-6.396,0.901-15.3-6.242-17.222C221.725,26.863,217.917,28.475,214.764,32.309z
		 M244.729,81.347c-0.847-1.289-1.504-2.337-2.206-3.349c-1.194-1.718-2.91-2.127-4.395-1.086c-1.521,1.068-1.813,2.996-0.655,4.802
		c1.801,2.811,3.65,5.588,5.472,8.386c0.769,1.18,1.787,1.884,3.171,1.657c1.36-0.22,2.18-1.134,2.61-2.516
		c1.018-3.264,2.103-6.506,3.124-9.77c0.591-1.89-0.149-3.624-1.74-4.253c-1.675-0.661-3.36,0.187-4.051,2.09
		C245.615,78.535,245.239,79.788,244.729,81.347z M188.329,9.377c0.852,1.296,1.531,2.389,2.268,3.435
		c1.13,1.605,2.881,1.997,4.305,1.011c1.496-1.036,1.849-2.933,0.752-4.663c-1.814-2.861-3.693-5.675-5.553-8.505
		c-0.779-1.187-1.861-1.767-3.229-1.53c-1.292,0.225-2.144,1.044-2.563,2.37c-1.029,3.259-2.105,6.501-3.109,9.769
		c-0.603,1.964,0.205,3.689,1.899,4.276c1.7,0.589,3.247-0.288,3.946-2.273C187.464,12.085,187.834,10.885,188.329,9.377z"/>
	<path display="inline" fill-rule="evenodd" clip-rule="evenodd" fill="#6C757D" d="M265.771,99.224
		c0.893-2.487,1.907-4.828,2.563-7.273c1.048-3.919,0.143-7.848-0.375-11.749c-1.686-12.733-3.397-25.463-5.103-38.193
		c-1.693-12.631-3.389-25.261-5.08-37.891c-0.519-3.859-1.056-7.716-1.545-11.579c-0.603-4.752-2.539-8.769-5.884-12.033
		c-0.318-0.31-0.634-0.621-0.945-0.938c-0.018-0.017,0.015-0.086,0.046-0.246c0.381-0.023,0.791-0.072,1.202-0.072
		c5.979-0.005,11.961-0.019,17.943,0c7.774,0.026,13.011,5.47,13.017,13.618c0.017,30.904,0.017,61.808,0,92.712
		c-0.005,8.156-5.232,13.596-13.001,13.641C267.614,99.228,266.62,99.224,265.771,99.224z"/>
	<path display="inline" fill-rule="evenodd" clip-rule="evenodd" fill="#6C757D" d="M287.77-12.135
		c5.018,0.787,10.298,1.37,15.472,2.488c6.208,1.342,10.004,7.951,9.063,14.884c-2.329,17.195-4.61,34.396-6.911,51.594
		c-1.827,13.639-3.635,27.278-5.493,40.913c-0.978,7.169-6.808,11.918-13.887,11.083c-6.314-0.743-12.59-1.827-18.89-2.962
		c1.339-0.087,2.685-0.126,4.019-0.271c9.471-1.029,16.594-9.262,16.615-19.326c0.038-18.397,0.012-36.795,0.012-55.192
		c0-12.164,0-24.327,0-36.49C287.77-7.583,287.77-9.75,287.77-12.135z"/>
</g>
<g display="none">
	<path display="inline" fill-rule="evenodd" clip-rule="evenodd" fill="#6C757D" d="M-5.652,39.247
		c-3.317,1.052-6.064,2.708-8.593,4.796c-0.236,0.195-0.431,0.511-0.694,0.59c-0.66,0.2-1.467,0.582-1.987,0.342
		c-0.402-0.187-0.716-1.25-0.618-1.84c0.272-1.646,0.663-3.294,1.213-4.862c2.345-6.701,6.011-12.44,11.372-16.905
		c3.068-2.556,7.357-3.478,8.957-7.942c5.405,16.683,17.095,22.329,32.586,22.146c-1.635,2.727-0.065,4.304,1.866,6.107
		c2.818,2.632,4.524,6.127,5.455,9.979c0.155,0.645-0.083,1.392-0.139,2.093c-0.629-0.152-1.304-0.195-1.881-0.471
		c-2.513-1.199-5.15-1.49-7.982-1.498c-1.7,17.173,2.677,31.344,17.508,41.122c-2.332,0.248-4.14,0.487-5.956,0.625
		c-11.118,0.847-21.908-0.202-31.659-6.555C3.609,80.342-2.361,70.653-4.603,58.323c-1.097-6.03-1.532-12.09-1.051-18.214
		C-5.638,39.908-5.652,39.704-5.652,39.247z"/>
	<path display="inline" fill-rule="evenodd" clip-rule="evenodd" fill="#6C757D" d="M41.415,1.651
		c1.746,3.366,1.013,6.85,0.344,10.214c-1.227,6.171-2.704,12.288-4.127,18.414c-0.102,0.435-0.576,1.021-0.956,1.098
		c-9.379,1.911-20.791-3.202-26.115-11.565c-1.771-2.784-2.576-5.896-3.095-9.118c-0.062-0.378,0.45-0.971,0.826-1.298
		c5.256-4.552,11.336-7.284,17.98-8.507c3.629-0.669,7.347-0.806,11.02-1.23c0.48-0.056,1.021-0.284,1.382-0.615
		c11.573-10.597,24.627-17.915,40.04-19.909c4.438-0.573,8.886-0.443,13.262,0.729c10.86,2.912,15.582,11.532,12.525,22.905
		c-1.266,4.708-3.445,8.954-6.035,12.979c-3.563,5.539-7.099,11.109-9.23,17.458c-0.824,2.45-1.414,5.07-1.597,7.652
		c-0.295,4.124,1.985,6.74,5.887,7.365c4.655,0.747,9.051-0.46,13.338-2.138c8.443-3.305,15.706-8.482,21.746-15.536
		c0.067-0.078,0.131-0.16,0.198-0.237c1.021-1.157,1.998-1.348,2.854-0.562c0.849,0.775,0.866,1.964-0.159,3.032
		c-2.346,2.436-4.621,4.982-7.19,7.137c-7.092,5.951-14.959,10.361-24.022,11.844c-2.663,0.435-5.54,0.495-8.163-0.073
		c-5.91-1.282-8.81-6.06-8.093-12.387c0.506-4.454,1.869-8.642,3.919-12.51c2.504-4.725,5.415-9.209,7.956-13.912
		c1.794-3.321,3.638-6.7,4.817-10.286c3.389-10.283-1.007-17.662-11.242-19.486c-7.353-1.31-14.452-0.012-21.416,2.334
		c-9.794,3.3-18.473,8.721-26.256,15.764C41.664,1.341,41.543,1.507,41.415,1.651z M31.98,8.931c0.028-1.469-1.098-2.708-2.51-2.768
		c-1.487-0.061-2.716,1.14-2.743,2.68c-0.025,1.476,1.097,2.716,2.508,2.769C30.726,11.667,31.952,10.47,31.98,8.931z"/>
	<path display="inline" fill-rule="evenodd" clip-rule="evenodd" fill="#6C757D" d="M25.638,117.62
		c-13.759-0.371-27.518-0.733-41.277-1.122c-1.262-0.037-2.532-0.173-3.771-0.38c-0.484-0.08-0.894-0.488-1.337-0.748
		c0.33-0.354,0.577-0.849,1.005-1.038c2.076-0.916,3.634-2.251,4.681-4.019c0.841-1.422,1.059-2.864,0.344-4.425
		c-0.988-2.154-1.344-4.395-0.569-6.673c1.244-3.655,5.151-4.468,8.172-1.691c0.622,0.573,1.189,1.223,1.611,1.914
		c4.297,7.024,11.271,10.522,20.286,11.079c4.81,0.299,9.686,0.509,14.476,0.176c5.688-0.396,10.587-2.861,15.226-5.602
		c3.176-1.878,6.232-3.92,9.521-5.635c1.664-0.866,3.686-1.486,5.613-1.656c3.25-0.285,5.449,1.561,5.645,4.428
		c0.135,1.971,0.016,3.95,0,5.927c-0.012,2.335,0.404,4.423,3.379,5.46c1.096,0.382,0.977,1.434-0.346,1.84
		c-1.758,0.543-3.65,0.999-5.502,1.054c-11.057,0.32-22.114,0.518-33.171,0.748c-1.324,0.028-2.65,0.004-3.974,0.004
		C25.645,117.38,25.642,117.5,25.638,117.62z"/>
	<path display="inline" fill-rule="evenodd" clip-rule="evenodd" fill="#6C757D" d="M98.068,116.215
		c-6.394-0.46-12.786-0.884-19.171-1.424c-0.898-0.075-1.75-0.717-2.62-1.098c0.823-0.36,1.619-0.912,2.482-1.054
		c6.693-1.099,12.803-3.688,18.578-7.132c2.474-1.474,4.85-3.115,7.378-4.479c1.548-0.833,3.257-1.52,4.976-1.862
		c3.016-0.603,4.917,0.458,6.077,3.338c0.906,2.253,1.439,4.654,2.255,6.946c0.37,1.042,1.05,1.97,1.563,2.964
		c0.253,0.5,0.746,1.154,0.594,1.519c-0.2,0.48-0.893,0.99-1.43,1.059c-2.691,0.341-5.396,0.681-8.109,0.76
		c-4.179,0.122-8.367,0.032-12.554,0.032C98.08,115.928,98.076,116.07,98.068,116.215z"/>
	<path display="inline" fill-rule="evenodd" clip-rule="evenodd" fill="#6C757D" d="M51.551,92.971
		c1.168-1.626,2.324-3.007,3.233-4.549c2.676-4.547,3.525-9.658,3.899-14.886c0.15-2.127,0.761-2.498,2.46-1.24
		c2.559,1.896,3.751,4.565,3.664,7.852c-0.018,0.773-0.133,1.545-0.232,2.638c2.584-0.993,4.979-1.992,7.43-2.813
		c0.756-0.253,1.972-0.363,2.409,0.083c0.469,0.475,0.524,1.75,0.321,2.554c-0.98,3.887-3.392,6.651-6.725,8.444
		C62.834,93.837,57.368,94.39,51.551,92.971z"/>
	<path display="inline" fill-rule="evenodd" clip-rule="evenodd" fill="#6C757D" d="M-5.494-2.237
		c-3.623,0.014-5.644-1.742-6.255-4.843c-0.602-3.055,0.887-6.518,3.296-7.662c3.328-1.581,8.276-0.302,10.546,2.725
		c2.609,3.483,1.468,7.622-2.568,8.858C-2.308-2.597-4.256-2.453-5.494-2.237z"/>
	<path display="inline" fill-rule="evenodd" clip-rule="evenodd" fill="#6C757D" d="M-10.289,90.229
		c-3.702,0.026-7.186-3.776-7.273-7.952c-0.069-3.274,2.759-5.821,6.569-5.915c4.282-0.104,7.998,3.47,7.953,7.652
		C-3.075,87.22-6.551,90.198-10.289,90.229z"/>
	<path display="inline" fill-rule="evenodd" clip-rule="evenodd" fill="#6C757D" d="M87.719,64.04
		c2.686,0.012,5.139,1.882,6.027,4.6c0.863,2.641,0.104,5.03-2.325,6.896c-2.294,1.756-4.813,2.678-7.659,1.651
		c-3.132-1.123-4.71-4.916-3.407-8.104C81.459,66.363,84.871,64.028,87.719,64.04z"/>
	<path display="inline" fill-rule="evenodd" clip-rule="evenodd" fill="#6C757D" d="M105.51,96.974
		c-3.833,0.004-5.905-2.682-5.148-6.665c0.946-4.964,4.864-7.67,9.531-6.588c3.243,0.752,4.638,3.13,3.833,6.527
		C112.86,93.899,109.109,96.971,105.51,96.974z"/>
	<path display="inline" fill-rule="evenodd" clip-rule="evenodd" fill="#6C757D" d="M68.444,8.949
		c-0.085,5.218-1.933,7.814-5.523,7.773c-3.914-0.045-7.121-3.209-7.009-6.923c0.12-3.967,3.092-6.949,6.809-6.827
		C66.031,3.078,68.499,5.652,68.444,8.949z"/>
</g>
<g>
	<path fill-rule="evenodd" clip-rule="evenodd" fill="#6C757D" d="M-20.659,74.13c0.482-3.136,0.867-6.287,1.466-9.398
		c1.798-9.32,7.838-21.19,13.867-27.306c8.977,19.872,24.532,30.976,46.966,33.207c-4.38,9.032-8.418,18.094-16.897,24.569
		c1.119,2.298,2.322,4.771,3.705,7.61c1.766-1.32,3.524-2.435,5.039-3.806c4.521-4.092,7.803-9.118,10.94-14.232
		c0.862-1.407,1.746-2.806,2.51-4.262c0.461-0.88,1.019-1.17,2.033-1.053c5.591,0.645,11.187,1.229,16.782,1.834
		c3.15,0.339,6.299,0.675,9.394,1.005c0.545-1.317,0.934-2.584,1.565-3.724c1.888-3.401,4.751-5.283,8.862-5.208
		c3.654,0.065,7.311,0.013,10.887,0.013c0.141,0.163,0.256,0.237,0.255,0.308c-0.113,4.201,0.16,8.457-0.467,12.586
		c-0.628,4.13-3.304,7.097-7.949,8.267c4.004,0.995,6.455,3.446,7.608,6.979c0.587,1.793,0.751,3.753,0.862,5.652
		c0.165,2.844,0.114,5.701,0.156,8.553c-4.526,0-9.052,0-13.579,0c-4.473-1.264-6.897-4.322-7.943-8.586
		c-0.118-0.481-0.225-0.966-0.331-1.426c-0.251,0-0.398-0.022-0.536,0.004c-13.005,2.468-26.005,4.963-39.018,7.396
		c-5.038,0.944-10.101,1.743-15.153,2.611c-1.445,0-2.889,0-4.334,0c-0.416-0.083-0.829-0.21-1.25-0.242
		c-15.485-1.18-28.619-11.124-33.421-25.495c-0.954-2.854-1.361-5.883-2.02-8.83C-20.659,78.814-20.659,76.472-20.659,74.13z"/>
	<path fill-rule="evenodd" clip-rule="evenodd" fill="#6C757D" d="M127.264-19.735c-2.874,0.188-5.812,0.062-8.604,0.627
		c-6.366,1.291-11.401,6.564-12.719,12.887c0.25,0.142,0.518,0.314,0.804,0.458c4.803,2.398,7.438,6.245,7.431,11.467
		c-0.009,5.283-2.686,9.169-7.591,11.492c-0.833,0.394-1.041,0.857-1.087,1.698c-0.479,9.119-7.754,16.184-16.855,16.426
		c-9.78,0.258-17.836-7.315-17.944-16.938c-0.06-5.526,0.026-11.053-0.038-16.578c-0.042-3.825-2.544-7.086-6.203-8.309
		c-3.63-1.213-7.695-0.251-10.023,2.742c-1.058,1.36-1.824,3.112-2.166,4.794c-1.209,5.916-2.184,11.878-3.228,17.826
		c-0.096,0.55-0.081,1.119-0.095,1.681c-0.189,7.722-0.209,15.455-0.609,23.166c-0.328,6.322-1.813,12.483-3.78,18.611
		c-5.6-0.439-11.107-1.14-16.334-3.211C17.215,54.747,9.138,47.372,4.089,36.887c-0.836-1.736-1.64-3.487-2.528-5.198
		c-0.352-0.679-0.222-1.058,0.354-1.537c9.294-7.724,19.951-12.593,32.029-14.473c1.85-0.288,3.721-0.481,5.59-0.595
		c1.046-0.065,1.471-0.416,1.647-1.451c0.887-5.213,1.709-10.446,2.848-15.61c1.851-8.393,10.19-14.273,18.745-13.451
		c9.293,0.894,16.314,7.878,16.564,16.703c0.158,5.568,0.015,11.146,0.062,16.719c0.039,4.769,3.1,8.187,7.792,8.811
		c4.923,0.655,9.86-3.641,9.582-8.418c-0.024-0.416-0.644-0.948-1.111-1.167c-7.497-3.509-9.895-12.572-4.997-19.046
		c1.398-1.848,3.182-3.261,5.373-4.124c0.747-0.294,1.078-0.67,1.233-1.483c2.09-10.823,10.958-18.966,22.242-20.494
		c0.276-0.037,0.543-0.156,0.813-0.238c2.291,0,4.58,0,6.936,0C127.264-25.356,127.264-22.547,127.264-19.735z M24.043,43.998
		c2.019-1.965,4.007-3.9,5.81-5.654c-1.905-1.845-3.899-3.777-5.792-5.607c-1.872,1.825-3.859,3.762-5.773,5.629
		C20.172,40.209,22.133,42.129,24.043,43.998z"/>
	<path fill-rule="evenodd" clip-rule="evenodd" fill="#6C757D" d="M63.271,45.299c1.985,1.934,3.942,3.842,5.808,5.663
		c-1.914,1.86-3.907,3.801-5.806,5.65c-1.873-1.814-3.892-3.769-5.821-5.634C59.358,49.116,61.348,47.176,63.271,45.299z"/>
	<path fill-rule="evenodd" clip-rule="evenodd" fill="#6C757D" d="M11.499-1.716c1.784-1.745,3.741-3.659,5.58-5.458
		c1.941,1.895,3.923,3.829,5.775,5.636c-1.768,1.714-3.755,3.64-5.614,5.443C15.494,2.196,13.488,0.233,11.499-1.716z"/>
	<path fill-rule="evenodd" clip-rule="evenodd" fill="#6C757D" d="M-3.104,6.979c-1.887,1.831-3.879,3.766-5.781,5.612
		c-1.902-1.849-3.891-3.78-5.809-5.644c1.921-1.854,3.918-3.78,5.821-5.616C-7.029,3.138-5.045,5.079-3.104,6.979z"/>
</g>
</svg>
