<?xml version="1.0" encoding="utf-8"?>
<!-- Generator: Adobe Illustrator 16.0.0, SVG Export Plug-In . SVG Version: 6.00 Build 0)  -->
<!DOCTYPE svg PUBLIC "-//W3C//DTD SVG 1.1//EN" "http://www.w3.org/Graphics/SVG/1.1/DTD/svg11.dtd">
<svg version="1.1" id="Layer_1" xmlns="http://www.w3.org/2000/svg" xmlns:xlink="http://www.w3.org/1999/xlink" x="0px" y="0px"
	 width="100px" height="100px" viewBox="0 0 100 100" enable-background="new 0 0 100 100" xml:space="preserve">
<path fill="#FFD700" d="M83.629,91.326c-2.926,1.395-5.695,2.927-8.643,4.08c-8.182,3.193-16.752,4.174-25.593,3.275
	c-8.8-0.894-17.03-3.313-24.49-7.681C14.317,84.803,7.827,76.018,5.295,64.85C3.192,55.566,3.41,46.328,6.756,37.294
	c3.869-10.447,11.51-18.062,22.041-23.371c7.821-3.941,16.221-6.204,25.141-6.743c7.358-0.447,14.334,1.045,20.971,3.891
	c5.584,2.398,10.658,5.47,14.542,9.907c1.206,1.384,2.262,2.973,2.948,4.618c1.615,3.868-0.75,7.069-5.309,7.428
	c-0.861,0.068-1.792,0.078-2.604-0.146c-0.793-0.218-1.618-0.646-2.18-1.194C74.32,23.931,64.613,19.65,52.805,20.162
	c-17.254,0.747-32.943,12.906-34.753,29.766c-1.004,9.331,1.183,17.974,7.49,25.522c6.345,7.592,14.933,11.724,25.312,12.8
	c6.498,0.674,12.842,0.044,18.873-2.374c5.449-2.185,9.799-5.551,13.068-10.092c0.903-1.251,0.755-2.552,0.607-3.861
	c-0.088-0.772-0.811-1.259-1.67-1.271c-3.325-0.036-6.651-0.02-9.978-0.006c-0.216,0.002-0.503,0.117-0.632,0.269
	c-2.782,3.181-6.607,4.66-10.85,5.284c-6.098,0.898-12.085,0.371-17.821-1.764c-7.487-2.785-11.617-7.992-12.794-15.16
	c-0.729-4.44-0.476-8.865,1.044-13.166c2.955-8.364,9.351-13.244,18.795-14.721c9.207-1.441,17.03,1.27,23.495,7.23
	c1.607,1.483,1.572,3.564,0.915,5.485c-0.673,1.958-2.438,2.829-4.552,3.098c-0.979,0.125-2.012,0.097-2.998-0.02
	c-0.647-0.078-1.293-0.376-1.869-0.683c-1.754-0.935-3.396-2.073-5.223-2.861c-7.863-3.385-16.416,1.188-17.044,9.051
	c-0.171,2.115-0.077,4.215,0.811,6.218c1.622,3.645,4.819,5.444,8.874,6.28c3.252,0.672,6.222-0.064,9.039-1.455
	c1.289-0.637,2.505-1.414,3.673-2.221c1.534-1.061,3.212-1.629,5.138-1.623c6.688,0.006,13.366,0,20.053,0.002
	c3.103,0.002,5.278,1.971,5.282,4.772c0.002,10.505,0.002,21.011,0,31.515c0,1.814-1.079,2.799-3.065,2.803
	c-1.76,0.004-3.516,0.002-5.272,0c-2.044-0.002-3.114-0.976-3.124-2.851C83.623,94.494,83.629,92.854,83.629,91.326z"/>
</svg>
