<?xml version="1.0" encoding="utf-8"?>
<!-- Generator: Adobe Illustrator 16.0.0, SVG Export Plug-In . SVG Version: 6.00 Build 0)  -->
<!DOCTYPE svg PUBLIC "-//W3C//DTD SVG 1.1//EN" "http://www.w3.org/Graphics/SVG/1.1/DTD/svg11.dtd">
<svg version="1.1" id="Layer_1" xmlns="http://www.w3.org/2000/svg" xmlns:xlink="http://www.w3.org/1999/xlink" x="0px" y="0px"
	 width="100px" height="100px" viewBox="0 0 100 100" enable-background="new 0 0 100 100" xml:space="preserve">
<g>
	<path fill="#6C757D" d="M1.62,48.688c0.438-1.756,1.598-3.009,2.837-4.245C16.158,32.77,27.837,21.076,39.529,9.395
		c4.915-4.909,12.126-5.86,18.017-2.327c1.067,0.64,2.041,1.479,2.934,2.354c3.238,3.172,6.424,6.398,9.632,9.603
		c0.234,0.235,0.484,0.455,0.88,0.825c0-1.97-0.021-3.749,0.004-5.528c0.036-2.618,1.473-4.703,3.729-5.469
		c3.733-1.266,7.342,1.411,7.372,5.533c0.037,5.225,0.022,10.452-0.006,15.678c-0.003,0.684,0.189,1.161,0.677,1.645
		c4.271,4.233,8.502,8.506,12.777,12.736c1.243,1.231,2.398,2.489,2.834,4.245c0,0.629,0,1.259,0,1.89
		c-0.551,1.649-1.347,3.121-2.996,3.92c-2.123,1.028-4.144,0.829-6.019-0.609c-0.371-0.288-0.707-0.627-1.039-0.961
		c-11.82-11.816-23.639-23.635-35.457-35.453c-2.05-2.05-3.688-2.049-5.738,0.002C35.243,29.36,23.359,41.246,11.47,53.128
		c-2.189,2.188-4.807,2.619-7.188,1.194c-1.436-0.857-2.152-2.229-2.663-3.744C1.62,49.947,1.62,49.317,1.62,48.688z"/>
	<path fill="#6C757D" d="M59.028,70.396c-6.055,0-11.993,0-18.046,0c0,8.202,0,16.369,0,24.594
		c-0.353,0.024-0.596,0.055-0.838,0.055c-4.943,0.002-9.888,0.025-14.831-0.005c-5.335-0.032-9.338-3.439-10.186-8.635
		c-0.095-0.586-0.091-1.194-0.092-1.789c-0.005-7.494,0.01-14.988-0.019-22.481c-0.005-1.19,0.379-2.1,1.217-2.934
		c10.478-10.451,20.939-20.92,31.405-31.382c1.666-1.664,3.05-1.669,4.704-0.018c10.468,10.462,20.928,20.93,31.405,31.38
		c0.832,0.831,1.241,1.733,1.235,2.928c-0.03,7.651,0.009,15.303-0.026,22.955c-0.021,4.9-3.474,8.967-8.273,9.837
		c-0.614,0.11-1.251,0.137-1.879,0.138c-5.009,0.011-10.015,0.008-15.021,0.005c-0.214,0-0.429-0.028-0.756-0.05
		C59.028,86.785,59.028,78.618,59.028,70.396z"/>
</g>
</svg>
