<?xml version="1.0" encoding="utf-8"?>
<!-- Generator: Adobe Illustrator 16.0.0, SVG Export Plug-In . SVG Version: 6.00 Build 0)  -->
<!DOCTYPE svg PUBLIC "-//W3C//DTD SVG 1.1//EN" "http://www.w3.org/Graphics/SVG/1.1/DTD/svg11.dtd">
<svg version="1.1" id="Layer_1" xmlns="http://www.w3.org/2000/svg" xmlns:xlink="http://www.w3.org/1999/xlink" x="0px" y="0px"
	 width="230.153px" height="214.331px" viewBox="-7.076 0.835 230.153 214.331"
	 enable-background="new -7.076 0.835 230.153 214.331" xml:space="preserve">
<g display="none">
	<path display="inline" fill="#FFFFFF" d="M139.456,132.468c3.944,3.964,7.802,7.841,11.821,11.88
		c2.766-2.777,5.572-5.611,8.395-8.428c2.902-2.896,5.121-2.941,7.944-0.121c12.192,12.176,24.399,24.335,36.545,36.559
		c6.28,6.32,8.382,13.943,5.858,22.474c-2.476,8.364-8.258,13.636-16.806,15.446c-7.251,1.535-13.928-0.155-19.358-5.267
		c-6.194-5.829-12.111-11.954-18.137-17.963c-6.521-6.506-13.035-13.022-19.543-19.544c-2.964-2.971-2.957-5.124,0.021-8.107
		c2.82-2.828,5.666-5.631,8.311-8.256c-4.023-4.016-7.893-7.873-11.767-11.738c-32.65,29.564-83.186,24.121-110.248-8.508
		C-2.51,100.746-0.667,56.268,27.141,27.946C54.716-0.14,99.363-2.596,130.137,22.553c16.754,13.692,26.187,31.564,27.961,53.159
		C159.866,97.224,153.258,116.166,139.456,132.468z M22.938,82.006c0.076,32.469,26.552,58.846,58.867,58.651
		c32.433-0.195,58.619-26.46,58.587-58.759c-0.033-32.358-26.59-58.815-58.907-58.688C49.148,23.338,22.863,49.734,22.938,82.006z"
		/>
	<path display="inline" fill="#FFFFFF" d="M131.346,82.108c-0.191,27.677-22.563,49.767-50.172,49.542
		c-27.439-0.227-49.452-22.711-49.212-50.271C32.2,54.157,54.825,31.891,81.901,32.233C109.467,32.583,131.532,54.84,131.346,82.108
		z M119.213,80.01c-0.38-2.282-0.639-4.591-1.158-6.84c-3.791-16.403-19.035-28.607-35.73-28.665
		c-3.074-0.011-5.089,1.688-5.16,4.349c-0.071,2.644,1.885,4.501,4.911,4.658c0.351,0.018,0.703,0.011,1.054,0.023
		c14.223,0.479,26.454,12.694,26.941,26.903c0.138,3.988,1.744,6.064,4.645,6.003C117.729,86.378,119.246,84.133,119.213,80.01z"/>
</g>
<g>
	<path fill-rule="evenodd" clip-rule="evenodd" fill="#FCD507" d="M-7.076,104.879c1.039-4.176,3.799-7.156,6.747-10.096
		c27.833-27.765,55.613-55.582,83.426-83.367c11.689-11.677,28.843-13.94,42.854-5.534c2.538,1.521,4.855,3.519,6.977,5.598
		c7.703,7.545,15.281,15.219,22.91,22.84c0.56,0.559,1.151,1.084,2.094,1.963c0-4.687-0.048-8.918,0.01-13.15
		c0.084-6.227,3.5-11.187,8.87-13.008c8.881-3.013,17.464,3.356,17.535,13.159c0.089,12.43,0.052,24.861-0.014,37.291
		c-0.007,1.628,0.452,2.764,1.612,3.914c10.157,10.068,20.222,20.232,30.388,30.293c2.959,2.929,5.708,5.921,6.745,10.097
		c0,1.497,0,2.996,0,4.495c-1.312,3.922-3.208,7.425-7.13,9.325c-5.048,2.445-9.854,1.972-14.315-1.451
		c-0.885-0.682-1.68-1.491-2.471-2.283c-28.117-28.106-56.228-56.218-84.339-84.329c-4.875-4.875-8.77-4.873-13.649,0.006
		C72.9,58.908,44.631,87.179,16.354,115.442c-5.208,5.204-11.435,6.226-17.096,2.841c-3.414-2.04-5.119-5.302-6.334-8.909
		C-7.076,107.875-7.076,106.376-7.076,104.879z"/>
	<path fill-rule="evenodd" clip-rule="evenodd" fill="#FCD507" d="M129.477,156.513c-14.402,0-28.528,0-42.927,0
		c0,19.513,0,38.938,0,58.5c-0.839,0.057-1.417,0.127-1.993,0.127c-11.759,0.007-23.519,0.06-35.276-0.008
		c-12.692-0.078-22.213-8.184-24.228-20.541c-0.226-1.394-0.218-2.837-0.219-4.254c-0.013-17.827,0.026-35.651-0.044-53.476
		c-0.012-2.828,0.903-4.994,2.894-6.979c24.924-24.856,49.806-49.759,74.702-74.643c3.961-3.958,7.258-3.972,11.187-0.043
		c24.898,24.885,49.779,49.784,74.704,74.644c1.979,1.974,2.949,4.12,2.938,6.961c-0.073,18.201,0.02,36.4-0.063,54.6
		c-0.052,11.657-8.265,21.334-19.679,23.399c-1.464,0.265-2.98,0.326-4.473,0.328c-11.909,0.026-23.817,0.018-35.726,0.011
		c-0.509,0-1.018-0.065-1.797-0.12C129.477,195.496,129.477,176.073,129.477,156.513z"/>
</g>
</svg>
