<?xml version="1.0" encoding="utf-8"?>
<!-- Generator: Adobe Illustrator 16.0.0, SVG Export Plug-In . SVG Version: 6.00 Build 0)  -->
<!DOCTYPE svg PUBLIC "-//W3C//DTD SVG 1.1//EN" "http://www.w3.org/Graphics/SVG/1.1/DTD/svg11.dtd">
<svg version="1.1" id="Layer_1" xmlns="http://www.w3.org/2000/svg" xmlns:xlink="http://www.w3.org/1999/xlink" x="0px" y="0px"
	 width="149.568px" height="129.662px" viewBox="0 0 149.568 129.662" enable-background="new 0 0 149.568 129.662"
	 xml:space="preserve">
<g display="none">
	<path display="inline" fill="#6C757D" d="M116.195,47.37c0,22.988,0,45.98,0,68.969c-44.569,0-89.139,0-133.705,0
		c0-22.99,0-45.979,0-68.969c2.434-0.004,4.87-0.011,7.305-0.011C31.928,47.363,74.063,47.367,116.195,47.37z M11.251,102.976
		c0-0.875,0.002-1.682,0-2.488c-0.029-6.473,1.599-12.44,4.978-17.889c1.938-3.121,3.746-6.339,5.794-9.382
		c1.19-1.77,1.716-3.557,1.568-5.694c-0.129-1.875-0.027-3.764-0.027-5.642c-9.556,0-18.892,0-28.268,0c0,5.358,0,10.64,0,15.917
		c2.585,0,5.08,0,7.68,0c0-2.636,0-5.167,0-7.75c3.906,0,7.7,0,11.881,0C7.854,79.981,2.383,90.253,3.664,102.976
		C6.186,102.976,8.647,102.976,11.251,102.976z M54.834,70.021c-7.018,9.972-12.493,20.213-11.207,32.936c2.475,0,4.97,0,7.438,0
		c0.06-0.166,0.116-0.249,0.116-0.329c0.016-0.815,0.021-1.635,0.028-2.453c0.035-5.933,1.388-11.498,4.397-16.558
		c2.404-4.049,4.894-8.041,7.332-12.064c0.229-0.375,0.533-0.799,0.541-1.203c0.047-2.803,0.026-5.604,0.026-8.458
		c-9.5,0-18.872,0-28.236,0c0,5.37,0,10.65,0,15.939c2.565,0,5.026,0,7.644,0c0-2.636,0-5.197,0-7.81
		C46.842,70.021,50.618,70.021,54.834,70.021z M94.305,69.969c-7.052,10.019-12.522,20.265-11.244,32.994c2.472,0,4.967,0,7.582,0
		c0-0.847,0.004-1.608,0-2.375c-0.041-6.567,1.619-12.614,5.063-18.136c2.252-3.61,4.455-7.258,6.668-10.895
		c0.228-0.377,0.533-0.798,0.541-1.205c0.047-2.801,0.024-5.604,0.024-8.462c-9.494,0-18.862,0-28.239,0c0,5.369,0,10.65,0,15.947
		c2.563,0,5.024,0,7.646,0c0-2.634,0-5.193,0-7.773c0.36-0.043,0.571-0.09,0.782-0.09C86.695,69.968,90.26,69.969,94.305,69.969z"/>
	<path display="inline" fill="#6C757D" d="M-17.51,10.84c3.796-1.672,7.598-3.332,11.382-5.038c0.413-0.187,0.752-0.604,1.063-0.971
		c2.588-3.061,5.162-6.135,7.796-9.274C5.138-1.574,7.518,1.199,9.818,4.04c0.896,1.104,1.917,1.896,3.202,2.443
		c3.291,1.405,6.545,2.902,9.956,4.426c-0.395,0.715-0.741,1.363-1.104,2.002c-1.042,1.835-1.935,3.79-3.172,5.466
		c-2.196,2.984-2.634,6.399-2.813,9.965c-0.119,2.396-0.396,4.783-0.625,7.401c-1.54-0.34-3.001-0.648-4.455-0.987
		c-2.371-0.553-4.731-1.158-7.108-1.674c-0.612-0.132-1.3-0.125-1.908,0.012c-3.477,0.789-6.938,1.637-10.408,2.454
		c-0.329,0.078-0.677,0.088-1.171,0.148c-0.218-2.352-0.436-4.631-0.644-6.912c-0.177-1.941-0.338-3.886-0.523-5.828
		c-0.028-0.305-0.102-0.635-0.25-0.894c-2.092-3.658-4.202-7.305-6.307-10.955C-17.51,11.022-17.51,10.933-17.51,10.84z"/>
	<path display="inline" fill="#6C757D" d="M116.195,11.113c-2.108,3.65-4.276,7.262-6.271,10.977
		c-0.477,0.883-0.422,2.101-0.521,3.173c-0.321,3.425-0.604,6.856-0.916,10.488c-1.559-0.346-3.026-0.664-4.483-1.001
		c-0.976-0.226-1.989-0.355-2.905-0.745c-4.396-1.865-8.601-0.345-12.847,0.656c-1.553,0.368-3.108,0.726-4.813,1.125
		c-0.228-2.506-0.442-4.835-0.647-7.167c-0.123-1.4-0.104-2.83-0.371-4.199c-0.252-1.297-0.618-2.629-1.229-3.776
		c-1.731-3.244-3.608-6.403-5.494-9.704c3.328-1.497,6.564-3.012,9.854-4.401c1.375-0.581,2.455-1.428,3.402-2.602
		c2.274-2.805,4.625-5.543,7-8.381c2.575,3.071,5.073,6.093,7.635,9.06c0.531,0.616,1.226,1.168,1.949,1.502
		c3.53,1.62,7.099,3.157,10.653,4.724C116.195,10.933,116.195,11.022,116.195,11.113z"/>
	<path display="inline" fill="#6C757D" d="M61.855,23.523c-3.646-0.868-7.06-1.762-10.504-2.457c-1.271-0.256-2.67-0.26-3.939-0.002
		c-3.489,0.705-6.938,1.607-10.573,2.469c-0.27-2.917-0.653-5.698-0.752-8.49c-0.111-3.157-0.787-6.009-2.553-8.654
		c-1.609-2.408-2.92-5.034-4.441-7.707c1.903-0.866,3.667-1.869,5.545-2.479c4.571-1.484,8.104-4.313,10.893-8.328
		c1.093-1.573,2.444-2.949,3.749-4.5c0.272,0.265,0.535,0.48,0.75,0.735c2.354,2.797,4.688,5.615,7.069,8.388
		c0.442,0.517,1.032,0.971,1.641,1.253c3.132,1.456,6.289,2.845,9.438,4.263c0.437,0.195,0.861,0.405,1.408,0.668
		C68.369,0.829,67.387,3.035,66,4.912c-2.785,3.766-3.478,8.074-3.625,12.622C62.303,19.47,62.045,21.401,61.855,23.523z"/>
</g>
<g display="none">
	<path display="inline" fill="#6C757D" d="M195.804,108.931c-6.734,0.062-11.949-4.643-12.832-11.236
		c-2.829-21.157-5.637-42.316-8.461-63.473c-1.302-9.726-2.621-19.449-3.935-29.173c-1.031-7.629,3.678-14.062,10.946-15.118
		c14.131-2.054,28.254-4.177,42.38-6.268c4.104-0.607,8.208-1.216,12.314-1.803c6.742-0.964,12.896,4.041,13.872,11.328
		c2.74,20.453,5.451,40.911,8.187,61.366c1.396,10.428,2.813,20.853,4.219,31.278c0.938,6.938-3.272,13.975-11.684,15.141
		c-17.823,2.475-35.61,5.211-53.415,7.832C196.731,108.899,196.052,108.911,195.804,108.931z M214.764,32.309
		c-0.497-0.309-0.899-0.577-1.317-0.817c-4.866-2.803-10.922-1.296-14.108,3.507c-3.134,4.726-2.498,11.321,1.753,14.967
		c4.325,3.708,8.839,7.186,13.363,10.625c2.588,1.968,6.104,1.446,8.063-1.183c3.445-4.621,6.9-9.249,10.065-14.08
		c4.188-6.396,0.9-15.3-6.242-17.222C221.725,26.863,217.917,28.475,214.764,32.309z M244.729,81.349
		c-0.848-1.289-1.504-2.339-2.206-3.351c-1.193-1.72-2.91-2.127-4.396-1.086c-1.521,1.067-1.813,2.996-0.654,4.802
		c1.801,2.813,3.649,5.588,5.472,8.387c0.77,1.18,1.787,1.885,3.172,1.656c1.359-0.22,2.18-1.134,2.609-2.516
		c1.019-3.266,2.104-6.508,3.124-9.771c0.591-1.89-0.148-3.623-1.74-4.253c-1.675-0.661-3.359,0.187-4.051,2.091
		C245.615,78.535,245.239,79.788,244.729,81.349z M188.329,9.377c0.853,1.296,1.53,2.389,2.269,3.435
		c1.13,1.605,2.881,1.997,4.305,1.011c1.496-1.036,1.85-2.933,0.752-4.663c-1.813-2.861-3.692-5.675-5.553-8.505
		c-0.779-1.187-1.86-1.767-3.229-1.53c-1.292,0.225-2.145,1.044-2.563,2.37c-1.029,3.259-2.104,6.501-3.108,9.769
		c-0.604,1.964,0.204,3.689,1.898,4.276c1.699,0.589,3.247-0.288,3.945-2.273C187.464,12.085,187.834,10.885,188.329,9.377z"/>
	<path display="inline" fill="#6C757D" d="M265.771,99.226c0.894-2.488,1.907-4.828,2.563-7.273
		c1.048-3.919,0.144-7.848-0.375-11.749c-1.687-12.733-3.396-25.463-5.104-38.193c-1.692-12.631-3.39-25.261-5.08-37.891
		c-0.52-3.859-1.057-7.716-1.545-11.579c-0.604-4.752-2.539-8.769-5.884-12.033c-0.318-0.31-0.635-0.621-0.945-0.938
		c-0.019-0.017,0.016-0.086,0.046-0.246c0.382-0.023,0.791-0.072,1.202-0.072c5.979-0.005,11.961-0.019,17.942,0
		c7.774,0.026,13.012,5.47,13.018,13.618c0.018,30.904,0.018,61.808,0,92.712c-0.005,8.156-5.231,13.596-13.001,13.641
		C267.615,99.229,266.62,99.226,265.771,99.226z"/>
	<path display="inline" fill="#6C757D" d="M287.77-12.135c5.019,0.787,10.298,1.37,15.473,2.488
		c6.208,1.342,10.004,7.951,9.063,14.884c-2.329,17.195-4.608,34.396-6.91,51.594c-1.827,13.641-3.636,27.277-5.493,40.913
		c-0.979,7.169-6.809,11.918-13.887,11.083c-6.313-0.743-12.591-1.827-18.891-2.962c1.339-0.089,2.686-0.126,4.02-0.271
		c9.471-1.028,16.594-9.262,16.614-19.325c0.038-18.396,0.013-36.794,0.013-55.191c0-12.164,0-24.327,0-36.49
		C287.77-7.583,287.77-9.75,287.77-12.135z"/>
</g>
<g display="none">
	<path display="inline" fill="#6C757D" d="M-5.652,39.247c-3.316,1.052-6.063,2.708-8.594,4.796
		c-0.235,0.195-0.431,0.511-0.693,0.59c-0.66,0.2-1.468,0.582-1.986,0.342c-0.402-0.187-0.717-1.25-0.618-1.84
		c0.271-1.646,0.663-3.294,1.213-4.862c2.346-6.701,6.012-12.44,11.372-16.905c3.067-2.556,7.356-3.478,8.957-7.942
		c5.404,16.683,17.095,22.329,32.586,22.146c-1.635,2.727-0.064,4.304,1.866,6.107c2.817,2.632,4.523,6.127,5.454,9.979
		c0.155,0.645-0.083,1.392-0.139,2.093c-0.629-0.152-1.305-0.195-1.882-0.471c-2.513-1.199-5.149-1.49-7.981-1.498
		c-1.699,17.173,2.678,31.344,17.509,41.121c-2.332,0.248-4.141,0.486-5.956,0.625c-11.118,0.848-21.908-0.201-31.659-6.555
		C3.609,80.342-2.361,70.651-4.603,58.323c-1.098-6.03-1.531-12.09-1.051-18.214C-5.638,39.908-5.652,39.704-5.652,39.247z"/>
	<path display="inline" fill="#6C757D" d="M41.415,1.651c1.746,3.366,1.014,6.85,0.344,10.214
		c-1.227,6.171-2.703,12.288-4.127,18.414c-0.103,0.435-0.575,1.021-0.956,1.098c-9.379,1.911-20.791-3.202-26.114-11.565
		c-1.771-2.784-2.576-5.896-3.096-9.118c-0.063-0.378,0.45-0.971,0.826-1.298c5.256-4.552,11.336-7.284,17.979-8.507
		c3.629-0.669,7.348-0.806,11.021-1.23c0.479-0.056,1.021-0.284,1.382-0.615c11.573-10.597,24.627-17.915,40.04-19.909
		c4.438-0.573,8.887-0.443,13.263,0.729c10.859,2.912,15.582,11.532,12.524,22.905c-1.267,4.708-3.444,8.954-6.035,12.979
		c-3.563,5.539-7.099,11.109-9.229,17.458c-0.823,2.45-1.414,5.07-1.597,7.652c-0.295,4.124,1.984,6.74,5.887,7.365
		c4.655,0.747,9.052-0.46,13.338-2.138c8.443-3.305,15.706-8.482,21.746-15.536c0.066-0.078,0.132-0.16,0.198-0.237
		c1.021-1.157,1.998-1.348,2.854-0.562c0.85,0.775,0.865,1.964-0.159,3.032c-2.346,2.436-4.621,4.982-7.189,7.137
		c-7.092,5.951-14.959,10.361-24.021,11.844c-2.663,0.435-5.54,0.495-8.163-0.073c-5.909-1.282-8.811-6.06-8.093-12.387
		c0.506-4.454,1.868-8.642,3.919-12.51c2.504-4.725,5.415-9.209,7.956-13.912c1.794-3.321,3.638-6.7,4.816-10.286
		c3.39-10.283-1.007-17.662-11.242-19.486c-7.354-1.31-14.451-0.012-21.416,2.334c-9.794,3.3-18.473,8.721-26.256,15.764
		C41.664,1.341,41.543,1.507,41.415,1.651z M31.98,8.931c0.027-1.469-1.099-2.708-2.51-2.768c-1.487-0.061-2.717,1.14-2.743,2.68
		c-0.024,1.476,1.098,2.716,2.508,2.769C30.726,11.667,31.952,10.47,31.98,8.931z"/>
	<path display="inline" fill="#6C757D" d="M25.638,117.62c-13.76-0.371-27.519-0.732-41.277-1.122
		c-1.262-0.037-2.531-0.173-3.771-0.38c-0.483-0.08-0.895-0.488-1.337-0.748c0.33-0.354,0.577-0.85,1.005-1.038
		c2.076-0.916,3.635-2.251,4.682-4.021c0.841-1.422,1.06-2.862,0.345-4.424c-0.988-2.154-1.345-4.396-0.569-6.674
		c1.244-3.654,5.151-4.468,8.173-1.691c0.621,0.574,1.188,1.225,1.61,1.914c4.297,7.024,11.271,10.522,20.286,11.08
		c4.81,0.299,9.687,0.508,14.476,0.176c5.688-0.396,10.588-2.86,15.227-5.603c3.177-1.878,6.231-3.92,9.521-5.635
		c1.664-0.866,3.687-1.485,5.613-1.656c3.25-0.284,5.448,1.562,5.646,4.429c0.135,1.972,0.016,3.949,0,5.928
		c-0.013,2.335,0.403,4.423,3.379,5.46c1.096,0.382,0.978,1.434-0.347,1.84c-1.758,0.543-3.649,0.999-5.502,1.054
		c-11.058,0.32-22.113,0.52-33.171,0.748c-1.324,0.028-2.649,0.006-3.975,0.006C25.645,117.38,25.642,117.5,25.638,117.62z"/>
	<path display="inline" fill="#6C757D" d="M98.068,116.215c-6.395-0.46-12.785-0.884-19.171-1.424
		c-0.897-0.075-1.75-0.717-2.62-1.099c0.823-0.359,1.619-0.911,2.481-1.055c6.693-1.099,12.804-3.688,18.578-7.132
		c2.475-1.474,4.851-3.114,7.378-4.479c1.549-0.832,3.258-1.52,4.977-1.86c3.017-0.604,4.917,0.458,6.077,3.338
		c0.905,2.253,1.438,4.654,2.255,6.946c0.37,1.042,1.051,1.97,1.563,2.964c0.253,0.5,0.746,1.153,0.595,1.521
		c-0.2,0.479-0.894,0.988-1.431,1.059c-2.69,0.341-5.396,0.681-8.108,0.76c-4.18,0.122-8.367,0.032-12.555,0.032
		C98.08,115.929,98.076,116.069,98.068,116.215z"/>
	<path display="inline" fill="#6C757D" d="M51.551,92.972c1.168-1.625,2.324-3.008,3.233-4.55c2.676-4.547,3.524-9.657,3.898-14.886
		c0.149-2.127,0.761-2.498,2.46-1.24c2.56,1.896,3.751,4.564,3.664,7.854c-0.019,0.771-0.134,1.545-0.231,2.638
		c2.584-0.993,4.979-1.992,7.43-2.813c0.757-0.252,1.973-0.363,2.409,0.084c0.469,0.476,0.523,1.75,0.32,2.553
		c-0.979,3.889-3.393,6.652-6.726,8.445C62.834,93.837,57.368,94.392,51.551,92.972z"/>
	<path display="inline" fill="#6C757D" d="M-5.494-2.237c-3.623,0.014-5.645-1.742-6.255-4.843
		c-0.603-3.055,0.888-6.518,3.296-7.662c3.328-1.581,8.276-0.302,10.546,2.725c2.609,3.483,1.469,7.622-2.567,8.858
		C-2.308-2.597-4.256-2.453-5.494-2.237z"/>
	<path display="inline" fill="#6C757D" d="M-10.289,90.229c-3.702,0.025-7.187-3.775-7.272-7.951
		c-0.068-3.274,2.759-5.821,6.568-5.916c4.282-0.104,7.998,3.471,7.953,7.652C-3.075,87.222-6.551,90.198-10.289,90.229z"/>
	<path display="inline" fill="#6C757D" d="M87.719,64.04c2.686,0.012,5.139,1.882,6.026,4.6c0.862,2.642,0.104,5.03-2.325,6.896
		c-2.294,1.756-4.813,2.678-7.658,1.65c-3.133-1.123-4.71-4.916-3.407-8.104C81.459,66.362,84.871,64.028,87.719,64.04z"/>
	<path display="inline" fill="#6C757D" d="M105.51,96.976c-3.833,0.004-5.904-2.684-5.147-6.666c0.946-4.963,4.864-7.67,9.531-6.588
		c3.243,0.752,4.638,3.131,3.833,6.526C112.86,93.897,109.109,96.972,105.51,96.976z"/>
	<path display="inline" fill="#6C757D" d="M68.444,8.949c-0.085,5.218-1.933,7.814-5.522,7.773
		c-3.914-0.045-7.121-3.209-7.009-6.923c0.12-3.967,3.092-6.949,6.81-6.827C66.031,3.078,68.499,5.652,68.444,8.949z"/>
</g>
<g display="none">
	<path display="inline" fill="#6C757D" d="M-1.999,97.62c0.482-3.137,0.867-6.287,1.466-9.396c1.799-9.32,7.839-21.19,13.867-27.308
		C22.311,80.788,37.866,91.894,60.3,94.123c-4.38,9.032-8.418,18.094-16.896,24.569c1.118,2.298,2.321,4.771,3.705,7.609
		c1.766-1.32,3.522-2.436,5.038-3.807c4.521-4.092,7.804-9.117,10.939-14.232c0.862-1.406,1.746-2.806,2.511-4.262
		c0.461-0.88,1.02-1.17,2.032-1.053c5.592,0.645,11.188,1.229,16.782,1.834c3.149,0.339,6.299,0.675,9.395,1.005
		c0.545-1.317,0.935-2.584,1.564-3.724c1.888-3.401,4.751-5.283,8.862-5.209c3.653,0.065,7.311,0.014,10.887,0.014
		c0.142,0.163,0.256,0.236,0.255,0.309c-0.112,4.201,0.16,8.457-0.467,12.586c-0.628,4.129-3.305,7.098-7.949,8.268
		c4.004,0.994,6.455,3.445,7.608,6.979c0.587,1.793,0.751,3.752,0.861,5.651c0.164,2.845,0.113,5.7,0.155,8.554
		c-4.525,0-9.052,0-13.579,0c-4.473-1.265-6.896-4.322-7.942-8.586c-0.117-0.48-0.226-0.967-0.331-1.427
		c-0.251,0-0.397-0.022-0.535,0.004c-13.006,2.468-26.006,4.964-39.02,7.396c-5.037,0.945-10.101,1.744-15.151,2.611
		c-1.445,0-2.891,0-4.335,0c-0.415-0.082-0.828-0.209-1.25-0.242c-15.484-1.18-28.618-11.123-33.421-25.494
		c-0.954-2.854-1.36-5.883-2.021-8.83C-1.999,102.306-1.999,99.963-1.999,97.62z"/>
	<path display="inline" fill="#6C757D" d="M145.924,3.755c-2.874,0.188-5.812,0.062-8.604,0.627
		c-6.366,1.291-11.401,6.564-12.72,12.887c0.25,0.142,0.519,0.314,0.805,0.458c4.803,2.398,7.438,6.245,7.431,11.467
		c-0.009,5.283-2.686,9.169-7.591,11.492c-0.833,0.394-1.041,0.857-1.087,1.698c-0.479,9.119-7.754,16.184-16.854,16.426
		c-9.78,0.258-17.837-7.315-17.943-16.938c-0.062-5.526,0.024-11.053-0.038-16.578c-0.042-3.825-2.544-7.086-6.203-8.309
		c-3.63-1.213-7.695-0.251-10.022,2.742c-1.059,1.36-1.824,3.112-2.166,4.794c-1.209,5.916-2.185,11.878-3.229,17.826
		c-0.097,0.55-0.081,1.119-0.096,1.681c-0.188,7.722-0.209,15.455-0.608,23.167c-0.328,6.32-1.813,12.482-3.78,18.609
		c-5.6-0.438-11.105-1.14-16.334-3.211c-11.008-4.355-19.085-11.73-24.134-22.216c-0.836-1.736-1.64-3.487-2.527-5.198
		C19.87,54.5,20,54.121,20.576,53.642c9.294-7.724,19.951-12.593,32.028-14.473c1.851-0.288,3.722-0.481,5.591-0.595
		c1.046-0.065,1.471-0.416,1.646-1.451c0.888-5.213,1.709-10.446,2.849-15.61C64.54,13.12,72.879,7.24,81.434,8.063
		c9.293,0.894,16.313,7.878,16.563,16.703c0.158,5.568,0.016,11.146,0.063,16.719c0.039,4.769,3.101,8.187,7.792,8.811
		c4.924,0.655,9.859-3.641,9.582-8.418c-0.023-0.416-0.645-0.948-1.11-1.167c-7.497-3.509-9.896-12.572-4.997-19.046
		c1.397-1.848,3.182-3.261,5.373-4.124c0.747-0.294,1.078-0.67,1.232-1.483c2.09-10.823,10.958-18.966,22.241-20.494
		c0.276-0.037,0.543-0.156,0.813-0.238c2.291,0,4.58,0,6.936,0C145.924-1.866,145.924,0.943,145.924,3.755z M42.703,67.487
		c2.02-1.965,4.007-3.899,5.811-5.653c-1.904-1.845-3.898-3.777-5.792-5.607c-1.872,1.825-3.858,3.762-5.772,5.629
		C38.832,63.699,40.793,65.619,42.703,67.487z"/>
	<path display="inline" fill="#6C757D" d="M81.931,68.789c1.984,1.935,3.941,3.842,5.809,5.663
		c-1.914,1.859-3.907,3.802-5.807,5.648c-1.873-1.813-3.893-3.769-5.82-5.633C78.018,72.606,80.008,70.666,81.931,68.789z"/>
	<path display="inline" fill="#6C757D" d="M30.159,21.774c1.784-1.745,3.741-3.659,5.58-5.458c1.94,1.895,3.923,3.829,5.774,5.636
		c-1.769,1.714-3.756,3.64-5.613,5.443C34.155,25.686,32.148,23.723,30.159,21.774z"/>
	<path display="inline" fill="#6C757D" d="M15.556,30.469c-1.888,1.831-3.88,3.766-5.78,5.612c-1.902-1.849-3.893-3.78-5.811-5.644
		c1.922-1.854,3.918-3.78,5.821-5.616C11.631,26.628,13.615,28.569,15.556,30.469z"/>
</g>
<g display="none">
	<path display="inline" fill="#6C757D" d="M102.257,142.188c-2.862,0-5.727,0-8.587,0c-0.43-0.105-0.85-0.266-1.286-0.311
		c-7.084-0.729-13.602-2.893-19.703-6.204c-1.042-0.565-2.388-0.94-3.596-0.944c-15.21-0.063-30.42-0.008-45.63-0.054
		c-11.354-0.036-20.361-6.625-22.846-16.587c-0.228-0.904-0.407-1.82-0.609-2.73C0,81.703,0,48.046,0,14.39
		c0.114-0.329,0.275-0.65,0.336-0.987C1.881,4.762,7.289-0.922,16.396-3.769c1.146-0.359,2.337-0.606,3.508-0.906
		c29.792,0,59.586,0,89.377,0c0.166,0.086,0.321,0.23,0.495,0.251c10.33,1.255,19.686,9.811,19.478,21.768
		c-0.276,15.75-0.088,31.507-0.016,47.26c0.004,0.852,0.539,1.924,1.224,2.515c6.247,5.383,10.873,11.69,13.229,19.215
		c1.052,3.36,1.537,6.869,2.278,10.313c0,1.528,0,3.059,0,4.588c-0.109,0.393-0.286,0.775-0.324,1.174
		c-1.821,18.326-15.558,33.354-35.033,38.216C107.875,141.31,105.044,141.676,102.257,142.188z M116.698,58.782
		c0-0.664,0-1.249,0-1.834c0-13.292,0.002-26.584-0.002-39.877c-0.001-6.666-4.217-10.447-11.646-10.447
		C78.133,6.622,51.214,6.622,24.295,6.623C16.792,6.624,12.59,10.418,12.59,17.22c-0.006,31.818-0.005,63.638-0.001,95.458
		c0.001,6.904,4.194,10.707,11.81,10.711c10.534,0.006,21.064,0.004,31.6-0.002c0.685,0,1.371-0.051,2.101-0.08
		C46.344,104.533,46.56,86.335,62.56,70.041C77.196,55.135,95.888,52.387,116.698,58.782z M97.981,66.909
		c-19.504-0.01-35.385,14.297-35.43,31.914c-0.042,17.58,15.854,32.027,35.291,32.068c19.559,0.039,35.547-14.377,35.527-32.033
		C133.353,81.245,117.484,66.919,97.981,66.909z"/>
	<path display="inline" fill="#6C757D" d="M64.582,29.216c-10.985,0-21.974,0-32.961,0c-2.648-0.001-4.65-1.052-5.847-3.174
		c-1.091-1.938-0.891-3.892,0.462-5.682c1.219-1.61,2.978-2.432,5.14-2.432c22.169-0.008,44.339-0.019,66.506,0.006
		c3.618,0.003,6.356,2.56,6.317,5.699c-0.039,3.136-2.786,5.563-6.461,5.572C86.686,29.234,75.635,29.216,64.582,29.216z"/>
	<path display="inline" fill="#6C757D" d="M47.999,40.514c5.325,0,10.65-0.008,15.977,0.004c4.084,0.009,6.977,2.391,6.938,5.685
		c-0.038,3.303-2.9,5.603-7.027,5.606c-10.586,0.008-21.174,0.008-31.759,0c-4.133-0.003-6.997-2.301-7.032-5.604
		c-0.036-3.374,2.844-5.683,7.12-5.689C37.475,40.508,42.738,40.514,47.999,40.514z"/>
	<path display="inline" fill="#6C757D" d="M35.559,63.118c1.426-0.002,2.855-0.045,4.28,0.006c3.376,0.124,6.029,2.559,6.098,5.544
		c0.066,3.022-2.641,5.626-6.092,5.716c-2.917,0.076-5.841,0.084-8.755-0.006c-3.356-0.104-5.998-2.652-5.994-5.624
		c0.003-3,2.61-5.479,5.99-5.624C32.573,63.066,34.067,63.119,35.559,63.118z"/>
	<path display="inline" fill="#6C757D" d="M104.204,93.211c3.508,0,6.694-0.051,9.878,0.017c3.029,0.063,5.365,1.682,6.135,4.092
		c0.73,2.289-0.089,4.769-2.332,6.057c-1.091,0.626-2.516,1.047-3.802,1.074c-5.327,0.117-10.661,0.091-15.992,0.035
		c-3.806-0.039-6.335-2.369-6.361-5.805c-0.039-5-0.043-9.998,0.004-14.998c0.029-3.315,2.729-5.758,6.231-5.754
		c3.493,0.002,6.182,2.459,6.23,5.772C104.243,86.802,104.204,89.906,104.204,93.211z"/>
</g>
<g display="none">
	<path display="inline" fill="#6C757D" d="M152.198,84.908c0,8.989,0,17.981,0,26.971c-1.332,3.438-4.103,4.33-7.651,3.868
		c0,0.809,0,1.373,0,1.938c-0.002,6.563,0.03,13.133-0.013,19.698c-0.031,4.772-3.066,8.604-7.709,9.913
		c-0.296,0.084-0.573,0.221-0.861,0.333c-44.351,0-88.701,0-133.052,0c-1.677-0.837-3.472-1.51-5.003-2.556
		c-2.038-1.395-2.864-3.659-3.591-5.911c0-27.179,0-54.356,0-81.535c0.997-3.07,2.595-5.668,5.604-7.252
		c0.304-0.159,0.402-0.893,0.412-1.363c0.119-5.548,3.219-8.56,8.873-8.575c1.62-0.004,3.241-0.001,4.854-0.001
		c0.107-0.526,0.2-0.828,0.229-1.136c1.095-10.966,2.214-21.929,3.258-32.9c0.471-4.931,3.873-7.847,8.938-7.364
		c11.659,1.112,23.313,2.267,34.971,3.412c1.607,0.158,2.608,1.178,2.494,2.488c-0.122,1.399-1.335,2.24-3,2.076
		C49.876,5.924,38.8,4.833,27.723,3.745c-4.674-0.459-5.282,0.125-5.718,4.713c-0.973,10.244-2.043,20.476-3.065,30.715
		c-0.332,3.306-0.641,6.614-0.957,9.907c2.834,0.535,2.867,0.506,3.126-2.088c0.838-8.367,1.678-16.733,2.524-25.099
		c0.229-2.257,1.292-3.957,3.486-4.833c2.686-1.072,4.813-2.789,6.44-5.151c1.274-1.853,3.095-2.598,5.354-2.375
		c5.59,0.552,11.184,1.081,16.774,1.631c2.012,0.197,3.056,1.162,2.862,2.601c-0.189,1.425-1.324,2.104-3.252,1.919
		c-5.381-0.519-10.763-1.023-16.139-1.589c-1.025-0.108-1.659,0.147-2.248,1.006c-1.765,2.565-4.124,4.522-7.021,5.7
		c-1.258,0.51-1.637,1.253-1.746,2.44c-0.417,4.472-0.888,8.94-1.329,13.409c-0.41,4.141-0.808,8.283-1.232,12.645
		c3.309,0,6.478-0.061,9.641,0.03c1.27,0.037,1.993-0.399,2.697-1.422C50.787,29.241,63.709,10.617,76.56-8.055
		c1.533-2.231,3.241-4.089,5.928-4.879c0.955,0,1.91,0,2.866,0c0.954,0.438,1.988,0.756,2.85,1.331
		c15.737,10.53,31.467,21.072,47.165,31.658c3.68,2.48,4.433,6.77,1.954,10.477c-1.894,2.834-3.869,5.616-5.802,8.424
		c-0.286,0.415-0.537,0.852-0.938,1.49c0.779,0,1.301-0.025,1.818,0.003c3.856,0.218,6.879,2.646,7.575,6.22
		c0.217,1.114,0.049,2.296,0.19,3.431c0.068,0.554,0.31,1.221,0.708,1.579c2.517,2.249,3.685,5.021,3.676,8.342
		c-0.021,6.425-0.006,12.851-0.006,19.277c0,0.559,0,1.117,0,1.926C148.111,80.638,150.76,81.659,152.198,84.908z M139.791,70.521
		c-47.009,0-93.825,0-140.661,0c0,18.707,0,37.315,0,56.045c4.169,0,8.193-0.021,12.218,0.014c1.49,0.014,2.372,0.867,2.416,2.156
		c0.046,1.377-0.835,2.297-2.401,2.328c-2.439,0.054-4.88,0.021-7.32,0.022c-1.63,0.002-3.26,0-4.943,0
		c0,2.642-0.181,5.103,0.083,7.519c0.115,1.069,0.977,2.184,1.768,3.03c1.281,1.371,3.09,1.403,4.879,1.403
		c42.385-0.012,84.768-0.01,127.154-0.012c0.583,0,1.167,0.008,1.748-0.041c2.354-0.191,4.596-1.766,4.878-4.033
		c0.317-2.544,0.074-5.154,0.074-7.866c-0.753,0-1.437,0-2.117,0c-36.55,0-73.099,0-109.646-0.002c-0.688,0-1.542,0.199-2.027-0.12
		c-0.748-0.492-1.579-1.279-1.767-2.08c-0.255-1.094,0.521-2.007,1.726-2.244c0.667-0.131,1.374-0.078,2.063-0.078
		c36.602,0,73.204,0,109.807,0c0.67,0,1.341,0,2.021,0c0-3.689,0-7.162,0-10.742c-0.756,0-1.387,0-2.019,0
		c-6.472-0.002-12.941,0.045-19.412-0.012c-11.817-0.105-20.066-9.974-17.688-21.084c1.635-7.629,8.668-13.455,16.573-13.564
		c6.948-0.098,13.897-0.031,20.846-0.037c0.566-0.001,1.13,0,1.749,0C139.791,77.483,139.791,74.054,139.791,70.521z
		 M139.866,65.731c0-1.824,0.002-3.492,0-5.16c-0.007-4.668-2.057-6.698-6.767-6.698c-42.44,0-84.881,0-127.319,0
		c-0.531,0-1.064-0.024-1.591,0.019c-2.444,0.202-4.788,2.006-5.02,4.313c-0.247,2.462-0.055,4.967-0.055,7.525
		C46.008,65.731,92.827,65.731,139.866,65.731z M51.74,49.296c3.22,0,6.073,0,8.927,0c2.643,0,2.643,0,3.177-2.436
		c1.979-9.012,10.055-15.407,19.076-15.11c9.646,0.318,17.201,6.937,18.614,16.371c0.123,0.819,0.318,1.211,1.229,1.188
		c1.962-0.048,3.929,0.046,5.888-0.055c0.521-0.026,1.188-0.426,1.496-0.858c2.73-3.854,5.426-7.735,8.046-11.665
		c0.321-0.484,0.399-1.422,0.146-1.937c-1.474-2.995-2.141-6.116-1.813-9.42c0.098-0.98-0.286-1.521-1.066-2.043
		c-7.685-5.125-15.354-10.268-23.001-15.447c-0.864-0.586-1.544-0.611-2.462-0.151c-2.807,1.404-5.817,1.96-8.941,1.645
		c-1.229-0.125-1.916,0.244-2.601,1.24c-6.739,9.823-13.532,19.611-20.309,29.411C56.09,42.998,54.038,45.97,51.74,49.296z
		 M131.575,111.243c0,0.002,0,0.006,0,0.008c4.664,0,9.327-0.053,13.99,0.031c1.476,0.025,2.018-0.327,2.001-1.885
		c-0.079-7.309-0.077-14.619-0.002-21.93c0.017-1.492-0.501-1.828-1.913-1.822c-9.009,0.054-18.019,0.017-27.028,0.043
		c-1.212,0.002-2.453,0.066-3.629,0.328c-6.36,1.414-10.804,7.392-10.113,13.5c0.765,6.764,6.062,11.627,12.861,11.715
		C122.354,111.292,126.966,111.243,131.575,111.243z M42.713,49.114c2.323,0.538,3.728-0.004,4.95-1.941
		c2.741-4.342,5.795-8.491,8.72-12.721c6.179-8.932,12.366-17.858,18.523-26.805c1.287-1.872,2.956-3.097,5.286-2.849
		c3.061,0.327,5.887-0.181,8.616-1.543c1.783-0.891,3.643-0.834,5.303,0.27c8.299,5.526,16.576,11.086,24.834,16.671
		c1.711,1.157,2.433,2.891,2.202,4.911c-0.313,2.735,0.143,5.311,1.441,7.731c1.222,2.271,1,4.377-0.485,6.463
		c-2.039,2.864-4.011,5.776-6.001,8.672c-0.243,0.354-0.438,0.74-0.683,1.162c2.186,0.481,3.558,0.023,4.79-1.847
		c4.155-6.306,8.547-12.459,12.843-18.674c1.621-2.348,1.391-3.656-0.952-5.229C116.864,13.146,101.62,2.913,86.377-7.316
		c-2.44-1.638-3.716-1.381-5.4,1.054C68.53,11.732,56.085,29.728,43.641,47.723C43.352,48.142,43.076,48.569,42.713,49.114z
		 M96.89,49.189c-0.419-7.215-7.057-12.99-14.592-12.874c-7.267,0.112-13.816,6.088-14.001,12.874
		C77.795,49.189,87.291,49.189,96.89,49.189z M135.388,49.216c0.051-0.179,0.126-0.324,0.128-0.471
		c0.031-1.525-0.413-3.105-1.988-3.336c-2.111-0.309-4.43-0.406-6.429,0.174c-1.084,0.313-1.69,2.22-2.668,3.633
		C128.24,49.216,131.751,49.216,135.388,49.216z M13.642,45.068c-1.895,0-3.682-0.055-5.467,0.013
		c-2.292,0.089-3.482,1.792-2.896,4.214c1.377,0,2.794,0,4.211,0C13.394,49.296,13.394,49.296,13.642,45.068z"/>
	<path display="inline" fill="#6C757D" d="M118.379,89.224c5.24,0.01,9.374,4.102,9.36,9.268c-0.013,5.115-4.246,9.289-9.409,9.268
		c-5.16-0.019-9.411-4.232-9.4-9.316C108.94,93.34,113.169,89.212,118.379,89.224z M118.372,103.135
		c2.619-0.007,4.783-2.136,4.772-4.688c-0.012-2.521-2.244-4.709-4.802-4.702c-2.602,0.008-4.731,2.141-4.727,4.731
		C113.625,101.085,115.726,103.144,118.372,103.135z"/>
</g>
<g display="none">
	<path display="inline" fill="#6C757D" d="M142.811,50.254c0,3.65,0,7.301,0,10.951c-11.53,0-23.061-0.033-34.59,0.01
		c-11.062,0.042-19.894,8.404-19.959,18.833c-0.026,4.346-0.012,8.691-0.005,13.037c0.011,11.491,8.644,19.645,20.814,19.65
		c11.245,0.006,22.491,0,33.738,0c0,3.65,0,7.301,0,10.951c-0.54,1.676-0.887,3.438-1.655,5.016
		c-3.788,7.77-10.321,11.499-19.341,11.495c-31.065-0.011-62.131-0.003-93.197-0.007c-2.839,0-5.684,0.078-8.517-0.057
		c-7.023-0.336-12.538-3.33-16.112-9.029c-1.409-2.246-2.033-4.934-3.015-7.418c0-24.478,0-48.955,0-73.434
		c0.54-1.677,0.883-3.44,1.651-5.017c3.791-7.769,10.33-11.496,19.346-11.493c30.498,0.009,60.997,0.002,91.495,0.005
		c3.407,0,6.821-0.065,10.224,0.056c6.288,0.224,11.287,2.851,15.135,7.524C141.002,43.975,141.995,47.076,142.811,50.254z"/>
	<path display="inline" fill="#6C757D" d="M142.811,102.433c-11.239,0-22.48,0.002-33.721-0.002
		c-6.217-0.005-9.916-3.523-9.924-9.428c-0.006-4.129-0.012-8.259,0.002-12.388c0.02-5.472,3.815-9.093,9.58-9.099
		c11.354-0.017,22.708-0.006,34.063-0.006C142.811,81.817,142.811,92.124,142.811,102.433z M111.85,93.804
		c4.038,0.02,7.293-2.994,7.331-6.789c0.04-3.768-3.214-6.858-7.237-6.88c-4.036-0.021-7.291,3.003-7.315,6.79
		C104.607,90.722,107.821,93.785,111.85,93.804z"/>
	<path display="inline" fill="#6C757D" d="M25.906,26.823c0.636-1.283,1.113-2.244,1.588-3.207
		c3.352-6.798,6.694-13.6,10.052-20.395c1.887-3.817,4.548-4.746,8.563-2.98C61.013,6.802,75.915,13.366,90.816,19.94
		c2.636,1.163,3.761,2.858,3.679,5.252c-0.038,1.186-0.452,1.688-1.833,1.661c-4.257-0.083-8.517-0.03-12.775-0.03
		c-17.208,0-34.416,0-51.623,0C27.59,26.823,26.917,26.823,25.906,26.823z"/>
	<path display="inline" fill="#6C757D" d="M101.968,26.741c-0.215-1.745-0.238-3.414-0.654-4.99
		c-0.977-3.715-3.471-6.306-7.128-7.918c-7.296-3.213-14.589-6.429-21.885-9.645c-0.561-0.248-1.114-0.51-1.854-0.848
		c1.461-2.886,2.757-5.792,4.371-8.532c1.344-2.285,4.301-2.901,7.048-1.704c7.31,3.185,14.599,6.406,21.894,9.618
		c7.554,3.324,15.104,6.653,22.656,9.981c4.544,2.003,5.482,4.383,3.396,8.628c-0.788,1.603-1.533,3.227-2.403,4.789
		c-0.23,0.414-0.854,0.899-1.298,0.898c-7.775-0.023-15.549-0.117-23.324-0.2C102.456,26.814,102.127,26.757,101.968,26.741z"/>
</g>
<g>
	<path fill="#FFD700" d="M0,101.406c0-29.414,0-58.824,0-88.237c0.956-2.13,2.532-3.193,5.07-3.189
		c25.659,0.041,51.314,0.023,76.972,0.029c0.444,0,0.891,0.057,1.339,0.087c-8.744,14.41-9.658,28.977,0.063,42.807
		c11.745,16.705,28.581,21.013,48.52,15.587c0.016,0.168,0.042,0.352,0.042,0.535c0.008,18.707,0.01,37.416,0,56.123
		c0,1.889-0.798,3.369-2.642,4.141c-1.847,0.771-3.488,0.295-4.982-0.945c-9.188-7.625-18.408-15.221-27.583-22.863
		c-0.829-0.688-1.635-0.984-2.729-0.984c-29.455,0.023-58.909-0.004-88.363,0.059C3.01,104.557,1.098,103.791,0,101.406z
		 M52.72,86.617c1.997,0,3.991,0,5.986,0c8.225-0.002,16.448,0.002,24.672-0.004c2.355-0.002,4.056-1.189,4.572-3.152
		c0.741-2.826-1.409-5.205-4.748-5.207c-15.475-0.006-30.951-0.002-46.426-0.002c-4.866,0-9.732,0-14.6,0
		c-1.861,0-3.303,0.732-4.159,2.332c-1.536,2.879,0.641,6.021,4.19,6.025C32.379,86.625,42.552,86.615,52.72,86.617z M39.639,53.118
		c5.888,0,11.772,0.02,17.659-0.01c2.595-0.013,4.526-1.853,4.522-4.177c-0.002-2.317-1.951-4.172-4.533-4.177
		c-11.725-0.022-23.451-0.013-35.177-0.006c-1.861,0-3.292,0.774-4.125,2.387c-1.442,2.787,0.631,5.937,3.992,5.966
		C27.865,53.153,33.752,53.114,39.639,53.118z M36.62,36.366c4.767,0,9.535,0.004,14.302-0.005c0.58-0.001,1.18-0.005,1.736-0.139
		c2.145-0.517,3.561-2.496,3.276-4.503c-0.317-2.257-2.12-3.721-4.681-3.724c-9.583-0.012-19.167-0.008-28.75-0.003
		c-2.953,0.001-4.961,1.699-4.973,4.175c-0.011,2.492,1.965,4.189,4.934,4.197C27.183,36.374,31.9,36.366,36.62,36.366z
		 M35.162,69.875c4.28,0,8.563,0.002,12.842-0.008c0.58-0.004,1.181-0.006,1.734-0.143c2.146-0.52,3.562-2.5,3.278-4.503
		c-0.313-2.207-2.097-3.713-4.538-3.717c-8.659-0.021-17.318-0.012-25.979-0.006c-2.95,0.002-4.958,1.699-4.969,4.174
		c-0.01,2.493,1.963,4.188,4.934,4.198C26.697,69.885,30.928,69.875,35.162,69.875z"/>
	<path fill="#FFD700" d="M149.568,34.67c-0.554,2.249-0.934,4.554-1.691,6.74c-4.685,13.508-18.411,22.09-33.213,20.857
		C99.961,61.045,87.967,50.17,85.818,36.118C82.839,16.614,99.772-0.503,120.349,1.209c14.927,1.243,27.146,12.504,28.947,26.674
		c0.043,0.313,0.182,0.615,0.271,0.922C149.568,30.76,149.568,32.715,149.568,34.67z M114.238,28.615c0,0.646,0,1.156,0,1.666
		c0,4.929-0.031,9.858,0.014,14.787c0.02,2.41,1.896,4.203,4.292,4.252c2.339,0.046,4.409-1.682,4.422-3.95
		c0.053-9.114,0.04-18.229,0.009-27.343c-0.01-1.68-0.973-2.903-2.558-3.604c-1.604-0.709-3.24-0.574-4.502,0.569
		c-2.855,2.588-5.647,5.252-8.363,7.979c-1.322,1.326-1.328,3.404-0.305,4.93c1.02,1.504,3.009,2.235,4.86,1.699
		C112.783,29.404,113.398,29.01,114.238,28.615z"/>
</g>
<g display="none">
	<path display="inline" fill="#6C757D" d="M63.015-13.882c6.493,0,12.986,0,19.48,0c3.016,1.296,4.086,3.612,4.221,6.848
		c0.24,5.865,3.025,10.501,7.856,13.813c7.366,5.051,16.514,4.318,23.169-1.756c2.738-2.499,5.766-2.661,8.195-0.286
		c3.938,3.846,7.829,7.738,11.678,11.674c2.268,2.32,2.243,5.345,0.09,7.815c-0.306,0.35-0.646,0.667-0.94,1.023
		c-4.839,5.859-5.896,12.388-2.913,19.326c2.892,6.727,8.163,10.61,15.528,11.061c3.237,0.198,5.552,1.234,6.865,4.231
		c0,6.493,0,12.985,0,19.479c-1.176,2.567-3.016,4.055-5.983,4.158c-7.84,0.275-13.45,4.131-16.467,11.278
		c-3.053,7.231-1.752,13.942,3.546,19.805c2.682,2.966,2.639,5.856-0.193,8.705c-3.391,3.409-6.799,6.8-10.198,10.201
		c-3.514,3.513-5.914,3.507-9.719,0.245c-5.828-4.992-12.438-6.041-19.445-3.037c-6.729,2.886-10.61,8.156-11.061,15.527
		c-0.195,3.23-1.231,5.552-4.229,6.865c-6.494,0-12.987,0-19.48,0c-2.743-1.225-4.102-3.242-4.181-6.34
		c-0.241-9.529-8.071-17.299-17.628-17.645c-5.249-0.188-9.734,1.6-13.565,5.182c-2.764,2.582-5.763,2.491-8.445-0.175
		c-3.697-3.677-7.354-7.394-11.071-11.05c-1.64-1.614-2.331-3.549-1.651-5.684c0.382-1.201,1.331-2.27,2.171-3.277
		c4.863-5.838,6.001-12.353,3.084-19.312C8.872,87.983,3.581,84.03-3.867,83.577c-3.235-0.196-5.547-1.237-6.865-4.229
		c0-6.496,0-12.988,0-19.48c1.186-2.674,3.125-4.082,6.164-4.169c9.892-0.285,17.684-8.278,17.813-18.175
		c0.067-5.05-1.736-9.364-5.187-13.042c-2.433-2.592-2.504-5.675-0.168-8.061c3.852-3.93,7.744-7.82,11.672-11.675
		c2.248-2.206,5.29-2.238,7.685-0.204C27.644,4.879,28,5.266,28.402,5.596c5.798,4.784,12.276,5.878,19.167,2.983
		c6.813-2.864,10.755-8.157,11.218-15.598C58.986-10.255,60.013-12.572,63.015-13.882z M21.627,69.585
		c0,28.123,22.871,51.111,50.888,51.148c28.421,0.035,51.351-22.817,51.368-51.2c0.021-28.047-22.935-51.033-50.979-51.051
		C44.576,18.465,21.628,41.336,21.627,69.585z"/>
	<path display="inline" fill="#6C757D" d="M72.888,81.228c14.101,0.596,24.97,6.724,32.356,18.896
		c0.688,1.137,0.626,1.822-0.354,2.777c-17.669,17.184-46.406,17.231-64.152,0.119c-1.093-1.053-1.164-1.795-0.394-3.049
		C47.797,87.839,58.694,81.763,72.888,81.228z"/>
	<path display="inline" fill="#6C757D" d="M72.865,36.748c9.471,0.025,17.208,7.808,17.201,17.302
		c-0.005,9.53-7.854,17.311-17.42,17.272c-9.443-0.036-17.284-7.93-17.204-17.316C55.524,44.384,63.26,36.722,72.865,36.748z"/>
</g>
</svg>
