<?xml version="1.0" encoding="utf-8"?>
<!-- Generator: Adobe Illustrator 16.0.0, SVG Export Plug-In . SVG Version: 6.00 Build 0)  -->
<!DOCTYPE svg PUBLIC "-//W3C//DTD SVG 1.1//EN" "http://www.w3.org/Graphics/SVG/1.1/DTD/svg11.dtd">
<svg version="1.1" id="Layer_1" xmlns="http://www.w3.org/2000/svg" xmlns:xlink="http://www.w3.org/1999/xlink" x="0px" y="0px"
	 width="100px" height="100px" viewBox="0 0 100 100" enable-background="new 0 0 100 100" xml:space="preserve">
<path fill-rule="evenodd" clip-rule="evenodd" fill="#393D40" d="M52.408,0.808c1.999,0.334,4.019,0.59,5.995,1.016
	c14.659,3.158,26.395,14.614,28.928,28.198c1.933,10.352-0.565,19.721-7.414,28.119c-6.714,8.225-13.429,16.446-20.163,24.655
	c-5.524,6.734-15.647,6.73-21.158-0.002c-6.984-8.529-14.077-16.988-20.902-25.627C1.673,36.887,13.168,8.016,39.633,1.888
	c1.834-0.424,3.735-0.599,5.605-0.896c0.24-0.038,0.47-0.122,0.705-0.184C48.098,0.808,50.252,0.808,52.408,0.808z M49.243,8.636
	c-1.534,0.143-3.075,0.234-4.597,0.44c-14.281,1.918-25.19,13.157-25.613,26.438C18.821,42.17,21.02,48.126,25.4,53.443
	c6.665,8.092,13.273,16.222,19.904,24.336c2.316,2.836,5.415,2.854,7.723,0.032c6.678-8.163,13.355-16.325,20.02-24.496
	c5.1-6.252,7.18-13.246,5.915-21C76.764,18.784,64.136,8.77,49.243,8.636z"/>
<path fill-rule="evenodd" clip-rule="evenodd" fill="#393D40" d="M30.857,100c-0.311-0.146-0.625-0.289-0.933-0.438
	c-1.739-0.842-2.672-2.712-2.21-4.425c0.479-1.778,2.141-3.035,4.124-3.037c11.558-0.01,23.116-0.01,34.673,0
	c1.986,0.002,3.643,1.255,4.123,3.037c0.463,1.714-0.466,3.581-2.207,4.424c-0.31,0.15-0.623,0.293-0.932,0.439
	C55.281,100,43.069,100,30.857,100z"/>
<path fill-rule="evenodd" clip-rule="evenodd" fill="#393D40" d="M49.163,24.54c7.16-0.001,12.936,5.287,12.939,11.849
	c0,6.569-5.765,11.869-12.917,11.871C42.03,48.26,36.25,42.968,36.249,36.408C36.247,29.839,42.013,24.541,49.163,24.54z
	 M53.483,36.396c-0.003-2.136-2.018-3.968-4.34-3.95c-2.333,0.02-4.315,1.875-4.276,4.004c0.039,2.104,1.995,3.887,4.284,3.903
	C51.471,40.368,53.485,38.528,53.483,36.396z"/>
</svg>
