<?xml version="1.0" encoding="utf-8"?>
<!-- Generator: Adobe Illustrator 16.0.0, SVG Export Plug-In . SVG Version: 6.00 Build 0)  -->
<!DOCTYPE svg PUBLIC "-//W3C//DTD SVG 1.1//EN" "http://www.w3.org/Graphics/SVG/1.1/DTD/svg11.dtd">
<svg version="1.1" id="Layer_1" xmlns="http://www.w3.org/2000/svg" xmlns:xlink="http://www.w3.org/1999/xlink" x="0px" y="0px"
	 width="167.988px" height="166.979px" viewBox="0 0 167.988 166.979" enable-background="new 0 0 167.988 166.979"
	 xml:space="preserve">
<g display="none">
	<path display="inline" fill="#6C757D" d="M116.195,47.37c0,22.988,0,45.98,0,68.969c-44.568,0-89.139,0-133.704,0
		c0-22.991,0-45.979,0-68.969c2.434-0.004,4.869-0.012,7.305-0.012C31.928,47.363,74.063,47.367,116.195,47.37z M11.251,102.975
		c0-0.875,0.002-1.681,0-2.488c-0.03-6.473,1.598-12.439,4.977-17.889c1.938-3.121,3.746-6.338,5.794-9.381
		c1.191-1.771,1.716-3.557,1.569-5.695c-0.129-1.874-0.028-3.763-0.028-5.641c-9.555,0-18.891,0-28.267,0c0,5.357,0,10.639,0,15.917
		c2.585,0,5.08,0,7.679,0c0-2.636,0-5.167,0-7.75c3.907,0,7.701,0,11.881,0C7.854,79.982,2.383,90.253,3.664,102.975
		C6.186,102.975,8.647,102.975,11.251,102.975z M54.834,70.021c-7.019,9.972-12.493,20.213-11.207,32.936c2.474,0,4.969,0,7.438,0
		c0.061-0.166,0.116-0.249,0.116-0.329c0.016-0.816,0.021-1.635,0.029-2.453c0.035-5.933,1.387-11.498,4.396-16.558
		c2.404-4.049,4.895-8.041,7.332-12.064c0.229-0.375,0.533-0.799,0.541-1.204c0.047-2.802,0.027-5.604,0.027-8.457
		c-9.5,0-18.872,0-28.237,0c0,5.37,0,10.65,0,15.939c2.566,0,5.027,0,7.645,0c0-2.636,0-5.197,0-7.811
		C46.842,70.021,50.618,70.021,54.834,70.021z M94.305,69.969c-7.051,10.018-12.521,20.264-11.244,32.994c2.473,0,4.967,0,7.582,0
		c0-0.847,0.004-1.609,0-2.375c-0.041-6.568,1.619-12.615,5.064-18.136c2.252-3.61,4.455-7.258,6.668-10.895
		c0.227-0.377,0.533-0.798,0.541-1.205c0.047-2.801,0.023-5.604,0.023-8.463c-9.494,0-18.861,0-28.238,0c0,5.369,0,10.65,0,15.947
		c2.563,0,5.023,0,7.645,0c0-2.634,0-5.194,0-7.774c0.361-0.042,0.572-0.09,0.783-0.09C86.695,69.968,90.26,69.969,94.305,69.969z"
		/>
	<path display="inline" fill="#6C757D" d="M-17.51,10.84c3.796-1.672,7.598-3.332,11.382-5.038c0.413-0.188,0.752-0.604,1.063-0.971
		c2.588-3.062,5.162-6.136,7.796-9.274C5.138-1.574,7.518,1.199,9.818,4.04c0.896,1.104,1.917,1.896,3.202,2.442
		c3.291,1.405,6.545,2.902,9.956,4.427c-0.394,0.715-0.741,1.362-1.104,2.002c-1.042,1.835-1.936,3.79-3.172,5.466
		c-2.196,2.983-2.635,6.398-2.813,9.965c-0.119,2.396-0.396,4.783-0.625,7.401c-1.54-0.341-3.001-0.648-4.455-0.987
		c-2.371-0.553-4.73-1.158-7.107-1.674c-0.612-0.132-1.301-0.125-1.908,0.012c-3.478,0.789-6.938,1.637-10.408,2.454
		c-0.33,0.078-0.677,0.088-1.171,0.147c-0.218-2.352-0.437-4.631-0.645-6.911c-0.177-1.941-0.338-3.887-0.522-5.828
		c-0.029-0.306-0.103-0.636-0.25-0.895c-2.092-3.658-4.202-7.305-6.308-10.955C-17.51,11.022-17.51,10.933-17.51,10.84z"/>
	<path display="inline" fill="#6C757D" d="M116.195,11.113c-2.107,3.65-4.275,7.263-6.27,10.978
		c-0.477,0.883-0.422,2.101-0.521,3.173c-0.32,3.425-0.604,6.856-0.916,10.488c-1.559-0.347-3.025-0.664-4.482-1.001
		c-0.977-0.227-1.99-0.355-2.906-0.745c-4.395-1.865-8.6-0.345-12.846,0.656c-1.553,0.367-3.109,0.726-4.813,1.125
		c-0.227-2.507-0.441-4.835-0.646-7.167c-0.123-1.4-0.105-2.83-0.371-4.199c-0.252-1.297-0.619-2.629-1.23-3.776
		c-1.73-3.244-3.607-6.402-5.494-9.704c3.328-1.497,6.564-3.012,9.855-4.4c1.375-0.581,2.455-1.429,3.402-2.603
		c2.273-2.805,4.625-5.543,7-8.381c2.574,3.071,5.072,6.093,7.635,9.061c0.531,0.615,1.225,1.168,1.949,1.502
		c3.529,1.619,7.098,3.156,10.652,4.724C116.195,10.933,116.195,11.022,116.195,11.113z"/>
	<path display="inline" fill="#6C757D" d="M61.855,23.523c-3.646-0.868-7.059-1.762-10.504-2.457
		c-1.271-0.256-2.67-0.26-3.938-0.002c-3.489,0.705-6.939,1.607-10.573,2.47c-0.271-2.917-0.654-5.698-0.752-8.49
		c-0.112-3.157-0.787-6.009-2.553-8.654c-1.609-2.408-2.921-5.034-4.441-7.707c1.903-0.866,3.667-1.869,5.544-2.479
		c4.572-1.484,8.105-4.313,10.893-8.328c1.094-1.573,2.444-2.949,3.749-4.5c0.273,0.265,0.535,0.479,0.75,0.734
		c2.354,2.798,4.688,5.615,7.069,8.389c0.443,0.517,1.033,0.971,1.641,1.253c3.133,1.456,6.289,2.845,9.438,4.263
		c0.436,0.195,0.861,0.405,1.408,0.668C68.369,0.829,67.387,3.035,66,4.912c-2.785,3.766-3.479,8.073-3.625,12.622
		C62.303,19.47,62.045,21.401,61.855,23.523z"/>
</g>
<g display="none">
	<path display="inline" fill="#6C757D" d="M195.804,108.93c-6.734,0.063-11.949-4.642-12.832-11.236
		c-2.829-21.156-5.636-42.315-8.461-63.473c-1.301-9.726-2.621-19.449-3.934-29.173c-1.031-7.629,3.678-14.063,10.945-15.118
		c14.131-2.054,28.254-4.177,42.38-6.268c4.104-0.607,8.208-1.217,12.315-1.804c6.742-0.964,12.896,4.041,13.872,11.328
		c2.74,20.453,5.451,40.911,8.186,61.366c1.396,10.428,2.813,20.853,4.22,31.278c0.937,6.938-3.273,13.975-11.685,15.141
		c-17.823,2.475-35.609,5.211-53.415,7.832C196.731,108.9,196.052,108.911,195.804,108.93z M214.764,32.309
		c-0.497-0.309-0.898-0.577-1.317-0.816c-4.865-2.804-10.922-1.297-14.107,3.507c-3.134,4.726-2.498,11.32,1.753,14.967
		c4.325,3.708,8.838,7.186,13.363,10.625c2.588,1.968,6.103,1.446,8.063-1.183c3.446-4.621,6.901-9.249,10.066-14.08
		c4.188-6.396,0.899-15.301-6.242-17.223C221.725,26.863,217.917,28.475,214.764,32.309z M244.729,81.348
		c-0.847-1.289-1.504-2.338-2.206-3.35c-1.192-1.72-2.91-2.127-4.395-1.086c-1.521,1.067-1.813,2.996-0.655,4.802
		c1.801,2.812,3.65,5.588,5.472,8.386c0.771,1.18,1.787,1.885,3.173,1.657c1.358-0.22,2.18-1.134,2.608-2.516
		c1.02-3.266,2.104-6.508,3.124-9.771c0.591-1.89-0.147-3.623-1.74-4.253c-1.675-0.661-3.358,0.187-4.051,2.091
		C245.615,78.535,245.239,79.788,244.729,81.348z M188.329,9.377c0.852,1.296,1.529,2.389,2.268,3.435
		c1.13,1.605,2.881,1.997,4.305,1.011c1.496-1.035,1.851-2.933,0.752-4.662c-1.813-2.861-3.691-5.676-5.553-8.506
		c-0.779-1.187-1.859-1.767-3.229-1.529c-1.292,0.225-2.146,1.044-2.563,2.37c-1.029,3.259-2.104,6.501-3.107,9.769
		c-0.604,1.964,0.203,3.689,1.897,4.276c1.7,0.589,3.247-0.288,3.946-2.273C187.464,12.085,187.834,10.885,188.329,9.377z"/>
	<path display="inline" fill="#6C757D" d="M265.771,99.225c0.895-2.488,1.907-4.828,2.563-7.272
		c1.048-3.919,0.143-7.849-0.375-11.749c-1.688-12.733-3.397-25.464-5.104-38.193c-1.691-12.631-3.389-25.261-5.08-37.891
		c-0.519-3.859-1.056-7.717-1.545-11.579c-0.603-4.752-2.539-8.77-5.884-12.033c-0.318-0.311-0.634-0.621-0.945-0.938
		c-0.018-0.017,0.017-0.086,0.046-0.246c0.383-0.022,0.791-0.071,1.202-0.071c5.979-0.005,11.961-0.02,17.943,0
		c7.774,0.025,13.011,5.47,13.017,13.618c0.019,30.903,0.019,61.808,0,92.712c-0.005,8.155-5.23,13.596-13.001,13.641
		C267.615,99.229,266.62,99.225,265.771,99.225z"/>
	<path display="inline" fill="#6C757D" d="M287.77-12.135c5.02,0.786,10.298,1.369,15.474,2.487
		c6.208,1.342,10.004,7.951,9.063,14.884c-2.329,17.195-4.608,34.396-6.911,51.595c-1.827,13.64-3.635,27.277-5.493,40.913
		c-0.978,7.169-6.808,11.918-13.887,11.083c-6.313-0.743-12.59-1.827-18.89-2.962c1.339-0.089,2.685-0.127,4.019-0.271
		c9.471-1.029,16.594-9.262,16.615-19.326c0.038-18.396,0.012-36.794,0.012-55.19c0-12.164,0-24.327,0-36.49
		C287.77-7.583,287.77-9.75,287.77-12.135z"/>
</g>
<g display="none">
	<path display="inline" fill="#6C757D" d="M-5.652,39.247c-3.315,1.052-6.063,2.708-8.593,4.796
		c-0.236,0.194-0.431,0.511-0.694,0.59c-0.66,0.2-1.467,0.582-1.985,0.342c-0.402-0.187-0.718-1.25-0.618-1.84
		c0.271-1.646,0.663-3.294,1.213-4.862c2.345-6.701,6.011-12.439,11.372-16.904c3.066-2.557,7.355-3.479,8.957-7.942
		c5.403,16.683,17.095,22.329,32.586,22.146c-1.635,2.728-0.065,4.305,1.866,6.107c2.816,2.632,4.522,6.127,5.453,9.979
		c0.155,0.645-0.083,1.392-0.139,2.093c-0.629-0.152-1.304-0.195-1.881-0.472c-2.513-1.198-5.15-1.489-7.982-1.497
		c-1.698,17.173,2.679,31.344,17.51,41.121c-2.332,0.248-4.142,0.486-5.956,0.625c-11.118,0.848-21.908-0.201-31.659-6.555
		C3.609,80.342-2.361,70.652-4.603,58.323c-1.097-6.029-1.53-12.09-1.051-18.214C-5.638,39.908-5.652,39.704-5.652,39.247z"/>
	<path display="inline" fill="#6C757D" d="M41.415,1.651c1.746,3.366,1.013,6.851,0.344,10.214
		c-1.227,6.172-2.704,12.288-4.127,18.414c-0.104,0.436-0.576,1.021-0.956,1.099c-9.379,1.911-20.791-3.202-26.115-11.565
		c-1.771-2.784-2.576-5.896-3.095-9.118c-0.063-0.378,0.45-0.971,0.826-1.298c5.256-4.552,11.336-7.284,17.979-8.507
		C29.9,0.22,33.619,0.083,37.292-0.341c0.479-0.057,1.021-0.284,1.382-0.615c11.573-10.598,24.627-17.915,40.04-19.909
		c4.438-0.573,8.886-0.443,13.262,0.729c10.86,2.912,15.582,11.532,12.525,22.905c-1.268,4.708-3.445,8.954-6.035,12.979
		c-3.563,5.539-7.099,11.108-9.23,17.458c-0.822,2.449-1.414,5.069-1.597,7.651c-0.295,4.124,1.985,6.74,5.887,7.365
		c4.655,0.747,9.053-0.46,13.338-2.138c8.443-3.306,15.706-8.482,21.746-15.536c0.067-0.078,0.133-0.16,0.198-0.237
		c1.021-1.157,1.998-1.348,2.854-0.562c0.849,0.774,0.864,1.964-0.159,3.032c-2.346,2.436-4.621,4.981-7.19,7.137
		c-7.092,5.951-14.959,10.36-24.021,11.844c-2.663,0.435-5.54,0.495-8.163-0.073c-5.91-1.281-8.812-6.06-8.093-12.387
		c0.506-4.454,1.867-8.642,3.919-12.51c2.504-4.726,5.415-9.209,7.956-13.912c1.794-3.321,3.638-6.7,4.815-10.286
		c3.391-10.283-1.007-17.662-11.242-19.486c-7.353-1.31-14.45-0.012-21.416,2.334c-9.794,3.301-18.473,8.722-26.256,15.765
		C41.664,1.341,41.543,1.507,41.415,1.651z M31.98,8.931c0.028-1.469-1.098-2.708-2.51-2.768c-1.487-0.062-2.716,1.14-2.743,2.68
		c-0.023,1.476,1.099,2.716,2.508,2.769C30.726,11.667,31.952,10.47,31.98,8.931z"/>
	<path display="inline" fill="#6C757D" d="M25.638,117.62c-13.759-0.371-27.518-0.733-41.277-1.122
		c-1.262-0.037-2.53-0.173-3.771-0.38c-0.484-0.08-0.896-0.488-1.337-0.748c0.33-0.354,0.577-0.85,1.005-1.038
		c2.076-0.916,3.634-2.251,4.681-4.021c0.841-1.422,1.061-2.862,0.346-4.424c-0.988-2.154-1.346-4.396-0.569-6.674
		c1.244-3.654,5.151-4.468,8.172-1.691c0.622,0.574,1.189,1.225,1.611,1.914c4.297,7.024,11.271,10.522,20.286,11.08
		c4.81,0.299,9.686,0.508,14.476,0.176c5.688-0.396,10.587-2.86,15.226-5.603c3.178-1.878,6.232-3.92,9.521-5.635
		c1.664-0.866,3.686-1.485,5.613-1.656c3.25-0.284,5.447,1.562,5.645,4.429c0.135,1.972,0.017,3.949,0,5.927
		c-0.012,2.336,0.404,4.424,3.379,5.461c1.097,0.382,0.979,1.434-0.346,1.84c-1.758,0.543-3.65,0.999-5.502,1.054
		c-11.059,0.32-22.114,0.519-33.171,0.748c-1.324,0.028-2.65,0.005-3.976,0.005C25.645,117.38,25.642,117.5,25.638,117.62z"/>
	<path display="inline" fill="#6C757D" d="M98.068,116.215c-6.394-0.46-12.784-0.884-19.171-1.424
		c-0.896-0.075-1.75-0.717-2.62-1.099c0.823-0.359,1.619-0.912,2.482-1.055c6.693-1.099,12.803-3.688,18.578-7.132
		c2.474-1.474,4.85-3.114,7.378-4.479c1.548-0.832,3.257-1.52,4.976-1.86c3.018-0.604,4.917,0.458,6.077,3.338
		c0.906,2.253,1.439,4.654,2.255,6.946c0.37,1.042,1.052,1.97,1.563,2.964c0.253,0.5,0.746,1.153,0.594,1.52
		c-0.2,0.479-0.893,0.989-1.43,1.06c-2.691,0.341-5.396,0.681-8.109,0.76c-4.179,0.122-8.367,0.032-12.554,0.032
		C98.08,115.928,98.076,116.07,98.068,116.215z"/>
	<path display="inline" fill="#6C757D" d="M51.551,92.971c1.168-1.625,2.324-3.007,3.233-4.549
		c2.676-4.547,3.523-9.658,3.897-14.886c0.15-2.127,0.761-2.498,2.46-1.24c2.561,1.896,3.751,4.564,3.664,7.853
		c-0.018,0.772-0.133,1.545-0.23,2.639c2.584-0.993,4.979-1.992,7.43-2.813c0.756-0.252,1.972-0.363,2.409,0.084
		c0.469,0.476,0.522,1.75,0.319,2.553c-0.979,3.889-3.392,6.651-6.725,8.445C62.834,93.837,57.368,94.391,51.551,92.971z"/>
	<path display="inline" fill="#6C757D" d="M-5.494-2.237c-3.623,0.014-5.646-1.742-6.255-4.843
		c-0.604-3.055,0.887-6.519,3.296-7.662c3.328-1.581,8.276-0.302,10.546,2.725c2.609,3.483,1.468,7.622-2.568,8.858
		C-2.308-2.597-4.256-2.453-5.494-2.237z"/>
	<path display="inline" fill="#6C757D" d="M-10.289,90.229c-3.702,0.026-7.188-3.774-7.273-7.951
		c-0.067-3.273,2.759-5.82,6.569-5.916c4.282-0.104,7.998,3.472,7.953,7.652C-3.075,87.221-6.551,90.198-10.289,90.229z"/>
	<path display="inline" fill="#6C757D" d="M87.719,64.04c2.686,0.012,5.139,1.882,6.027,4.6c0.861,2.641,0.104,5.03-2.325,6.896
		c-2.294,1.756-4.813,2.678-7.659,1.65c-3.132-1.123-4.71-4.916-3.407-8.104C81.459,66.363,84.871,64.028,87.719,64.04z"/>
	<path display="inline" fill="#6C757D" d="M105.51,96.975c-3.833,0.004-5.905-2.683-5.148-6.666c0.946-4.963,4.864-7.67,9.531-6.588
		c3.243,0.752,4.638,3.131,3.833,6.527C112.86,93.898,109.109,96.971,105.51,96.975z"/>
	<path display="inline" fill="#6C757D" d="M68.444,8.949c-0.085,5.218-1.933,7.813-5.521,7.772
		c-3.914-0.045-7.121-3.209-7.009-6.923c0.12-3.967,3.092-6.949,6.809-6.827C66.031,3.078,68.499,5.652,68.444,8.949z"/>
</g>
<g display="none">
	<path display="inline" fill="#6C757D" d="M-1.999,97.62c0.481-3.137,0.867-6.287,1.466-9.397
		c1.798-9.32,7.838-21.189,13.867-27.307C22.311,80.788,37.866,91.893,60.3,94.123c-4.38,9.031-8.418,18.094-16.896,24.568
		c1.118,2.298,2.321,4.771,3.705,7.61c1.767-1.32,3.523-2.436,5.038-3.807c4.521-4.093,7.805-9.117,10.94-14.232
		c0.862-1.406,1.746-2.806,2.51-4.262c0.461-0.88,1.021-1.17,2.033-1.054c5.591,0.646,11.188,1.229,16.782,1.835
		c3.148,0.339,6.299,0.675,9.394,1.005c0.545-1.317,0.936-2.584,1.565-3.725c1.888-3.4,4.751-5.283,8.861-5.208
		c3.653,0.065,7.312,0.014,10.888,0.014c0.141,0.162,0.256,0.236,0.255,0.309c-0.113,4.201,0.16,8.457-0.467,12.586
		c-0.629,4.129-3.306,7.097-7.949,8.267c4.004,0.995,6.455,3.446,7.607,6.979c0.587,1.793,0.751,3.752,0.861,5.651
		c0.165,2.845,0.114,5.7,0.156,8.554c-4.526,0-9.052,0-13.579,0c-4.473-1.265-6.896-4.322-7.943-8.586
		c-0.117-0.481-0.225-0.967-0.331-1.427c-0.251,0-0.396-0.022-0.535,0.004c-13.006,2.468-26.006,4.964-39.019,7.396
		c-5.038,0.945-10.101,1.744-15.152,2.611c-1.444,0-2.89,0-4.335,0c-0.415-0.082-0.828-0.209-1.25-0.242
		c-15.483-1.18-28.618-11.123-33.421-25.494c-0.954-2.854-1.359-5.883-2.02-8.83C-1.999,102.305-1.999,99.963-1.999,97.62z"/>
	<path display="inline" fill="#6C757D" d="M145.924,3.755c-2.874,0.188-5.813,0.062-8.604,0.627
		c-6.365,1.291-11.4,6.563-12.72,12.887c0.25,0.143,0.52,0.314,0.805,0.458c4.804,2.398,7.438,6.245,7.432,11.467
		c-0.009,5.283-2.687,9.169-7.591,11.492c-0.833,0.395-1.041,0.857-1.087,1.698c-0.479,9.119-7.755,16.184-16.855,16.426
		c-9.78,0.258-17.836-7.314-17.943-16.938c-0.061-5.526,0.025-11.054-0.038-16.578c-0.042-3.825-2.544-7.086-6.202-8.31
		c-3.631-1.213-7.695-0.251-10.023,2.742c-1.058,1.36-1.824,3.112-2.166,4.794c-1.209,5.916-2.184,11.878-3.228,17.826
		c-0.098,0.55-0.081,1.119-0.097,1.681c-0.188,7.723-0.209,15.455-0.607,23.166c-0.328,6.321-1.813,12.483-3.78,18.61
		c-5.6-0.438-11.106-1.14-16.334-3.211C35.876,78.237,27.799,70.862,22.75,60.377c-0.836-1.736-1.641-3.487-2.528-5.198
		C19.87,54.5,20,54.121,20.576,53.642c9.294-7.724,19.95-12.593,32.027-14.473c1.852-0.288,3.723-0.481,5.591-0.595
		c1.047-0.065,1.472-0.416,1.646-1.451c0.887-5.213,1.709-10.446,2.848-15.61C64.54,13.12,72.879,7.24,81.434,8.063
		c9.293,0.895,16.314,7.878,16.564,16.703c0.157,5.568,0.015,11.146,0.062,16.719c0.039,4.77,3.102,8.188,7.792,8.812
		c4.924,0.655,9.86-3.642,9.582-8.418c-0.022-0.416-0.644-0.948-1.109-1.167c-7.497-3.509-9.896-12.572-4.997-19.046
		c1.396-1.849,3.182-3.262,5.373-4.124c0.746-0.294,1.077-0.67,1.231-1.483c2.09-10.823,10.958-18.966,22.242-20.494
		c0.276-0.037,0.543-0.155,0.813-0.237c2.291,0,4.58,0,6.937,0C145.924-1.866,145.924,0.943,145.924,3.755z M42.703,67.488
		c2.019-1.965,4.007-3.899,5.81-5.653c-1.904-1.846-3.897-3.777-5.792-5.607c-1.872,1.825-3.858,3.762-5.771,5.629
		C38.832,63.699,40.793,65.619,42.703,67.488z"/>
	<path display="inline" fill="#6C757D" d="M81.931,68.789c1.985,1.934,3.942,3.842,5.81,5.663c-1.914,1.859-3.907,3.802-5.808,5.648
		c-1.873-1.813-3.892-3.769-5.82-5.633C78.018,72.606,80.008,70.666,81.931,68.789z"/>
	<path display="inline" fill="#6C757D" d="M30.159,21.774c1.783-1.745,3.74-3.659,5.579-5.458c1.94,1.896,3.924,3.829,5.774,5.637
		c-1.768,1.714-3.755,3.64-5.613,5.442C34.155,25.686,32.148,23.723,30.159,21.774z"/>
	<path display="inline" fill="#6C757D" d="M15.556,30.469c-1.887,1.831-3.879,3.766-5.78,5.612c-1.901-1.85-3.892-3.78-5.81-5.645
		c1.921-1.854,3.918-3.779,5.821-5.616C11.631,26.628,13.615,28.569,15.556,30.469z"/>
</g>
<g display="none">
	<path display="inline" fill="#6C757D" d="M102.257,142.189c-2.863,0-5.728,0-8.587,0c-0.43-0.105-0.851-0.266-1.286-0.311
		c-7.084-0.729-13.602-2.894-19.704-6.204c-1.042-0.565-2.387-0.94-3.595-0.945c-15.21-0.063-30.42-0.007-45.63-0.053
		c-11.354-0.036-20.361-6.625-22.847-16.587c-0.227-0.905-0.406-1.82-0.608-2.731C0,81.703,0,48.046,0,14.39
		c0.113-0.329,0.274-0.65,0.336-0.987C1.881,4.762,7.289-0.922,16.396-3.769c1.147-0.358,2.337-0.605,3.508-0.905
		c29.792,0,59.587,0,89.377,0c0.166,0.086,0.321,0.229,0.495,0.251c10.33,1.255,19.687,9.811,19.479,21.768
		c-0.277,15.75-0.088,31.507-0.017,47.26c0.005,0.853,0.539,1.924,1.225,2.516c6.247,5.383,10.873,11.69,13.228,19.215
		c1.053,3.359,1.537,6.869,2.279,10.313c0,1.529,0,3.06,0,4.589c-0.11,0.393-0.287,0.775-0.325,1.174
		c-1.82,18.325-15.557,33.354-35.033,38.216C107.875,141.309,105.044,141.676,102.257,142.189z M116.698,58.782
		c0-0.664,0-1.249,0-1.835c0-13.292,0.002-26.584-0.003-39.877c-0.001-6.666-4.217-10.446-11.645-10.446
		C78.133,6.622,51.214,6.622,24.295,6.623C16.792,6.624,12.59,10.418,12.59,17.22c-0.006,31.818-0.005,63.639-0.001,95.458
		c0.001,6.905,4.194,10.708,11.809,10.712c10.534,0.006,21.065,0.003,31.601-0.003c0.684,0,1.371-0.05,2.1-0.08
		C46.344,104.533,46.56,86.335,62.56,70.041C77.196,55.135,95.888,52.387,116.698,58.782z M97.981,66.909
		C78.477,66.9,62.596,81.206,62.552,98.823c-0.042,17.581,15.854,32.027,35.291,32.068c19.558,0.04,35.546-14.376,35.527-32.033
		C133.353,81.245,117.484,66.919,97.981,66.909z"/>
	<path display="inline" fill="#6C757D" d="M64.582,29.216c-10.986,0-21.975,0-32.961,0c-2.649-0.001-4.651-1.052-5.848-3.174
		c-1.091-1.938-0.89-3.893,0.462-5.683c1.22-1.609,2.979-2.432,5.141-2.432c22.169-0.008,44.339-0.019,66.506,0.006
		c3.618,0.003,6.355,2.561,6.317,5.699c-0.039,3.136-2.786,5.563-6.462,5.572C86.686,29.234,75.635,29.216,64.582,29.216z"/>
	<path display="inline" fill="#6C757D" d="M47.999,40.514c5.325,0,10.649-0.008,15.976,0.004c4.084,0.009,6.978,2.392,6.939,5.686
		c-0.038,3.303-2.901,5.603-7.028,5.605c-10.585,0.008-21.173,0.008-31.758,0c-4.133-0.003-6.997-2.301-7.033-5.604
		c-0.036-3.374,2.844-5.684,7.121-5.689C37.475,40.508,42.738,40.514,47.999,40.514z"/>
	<path display="inline" fill="#6C757D" d="M35.559,63.118c1.426-0.002,2.856-0.046,4.281,0.006c3.376,0.124,6.029,2.558,6.097,5.544
		c0.067,3.022-2.64,5.626-6.092,5.716c-2.917,0.076-5.84,0.084-8.754-0.006c-3.357-0.104-5.998-2.653-5.995-5.624
		c0.003-3,2.611-5.479,5.991-5.624C32.573,63.066,34.067,63.119,35.559,63.118z"/>
	<path display="inline" fill="#6C757D" d="M104.204,93.211c3.508,0,6.693-0.051,9.878,0.016c3.028,0.063,5.364,1.683,6.135,4.092
		c0.729,2.29-0.089,4.77-2.332,6.058c-1.091,0.626-2.516,1.047-3.802,1.074c-5.327,0.117-10.661,0.091-15.992,0.034
		c-3.806-0.039-6.335-2.368-6.362-5.804c-0.039-5.001-0.043-9.999,0.004-14.998c0.029-3.315,2.73-5.758,6.232-5.755
		c3.493,0.003,6.181,2.459,6.229,5.773C104.243,86.802,104.204,89.906,104.204,93.211z"/>
</g>
<g display="none">
	<path display="inline" fill="#6C757D" d="M152.198,84.908c0,8.989,0,17.981,0,26.971c-1.332,3.438-4.104,4.33-7.651,3.868
		c0,0.809,0,1.373,0,1.937c-0.002,6.564,0.03,13.134-0.013,19.699c-0.031,4.771-3.066,8.604-7.709,9.913
		c-0.297,0.084-0.573,0.221-0.861,0.333c-44.352,0-88.702,0-133.052,0c-1.678-0.837-3.473-1.51-5.003-2.557
		c-2.038-1.394-2.864-3.658-3.592-5.91c0-27.18,0-54.357,0-81.535c0.997-3.07,2.596-5.668,5.605-7.252
		c0.303-0.159,0.402-0.894,0.412-1.363c0.119-5.548,3.218-8.56,8.873-8.575c1.62-0.004,3.241-0.001,4.854-0.001
		c0.108-0.525,0.2-0.828,0.23-1.136c1.094-10.966,2.214-21.929,3.258-32.9c0.47-4.931,3.873-7.847,8.937-7.363
		c11.659,1.111,23.314,2.267,34.972,3.411c1.606,0.158,2.607,1.179,2.494,2.488c-0.122,1.399-1.335,2.24-3,2.076
		C49.876,5.924,38.8,4.833,27.723,3.745c-4.673-0.459-5.282,0.125-5.717,4.713c-0.973,10.244-2.043,20.476-3.066,30.715
		c-0.332,3.306-0.64,6.614-0.957,9.907c2.834,0.534,2.867,0.506,3.126-2.088c0.838-8.367,1.679-16.733,2.525-25.1
		c0.228-2.257,1.292-3.957,3.486-4.833c2.685-1.072,4.813-2.789,6.439-5.15c1.275-1.854,3.095-2.599,5.355-2.375
		c5.59,0.552,11.183,1.08,16.773,1.631c2.013,0.196,3.057,1.162,2.863,2.601c-0.19,1.425-1.325,2.104-3.252,1.919
		c-5.381-0.519-10.763-1.022-16.139-1.589c-1.025-0.108-1.659,0.147-2.248,1.006c-1.766,2.565-4.124,4.522-7.021,5.7
		c-1.257,0.51-1.636,1.253-1.746,2.44c-0.417,4.472-0.887,8.939-1.329,13.408c-0.409,4.142-0.807,8.283-1.231,12.646
		c3.308,0,6.477-0.062,9.64,0.03c1.271,0.036,1.994-0.399,2.698-1.423C50.787,29.241,63.709,10.617,76.56-8.055
		c1.534-2.23,3.242-4.089,5.928-4.879c0.955,0,1.91,0,2.866,0c0.954,0.438,1.989,0.756,2.851,1.331
		c15.736,10.53,31.467,21.072,47.165,31.658c3.68,2.48,4.433,6.771,1.953,10.478c-1.894,2.834-3.868,5.615-5.802,8.424
		c-0.286,0.415-0.537,0.852-0.937,1.489c0.778,0,1.301-0.024,1.817,0.004c3.857,0.218,6.879,2.646,7.575,6.22
		c0.217,1.114,0.049,2.296,0.191,3.431c0.067,0.554,0.309,1.221,0.708,1.579c2.516,2.249,3.684,5.021,3.676,8.342
		c-0.021,6.425-0.006,12.852-0.006,19.277c0,0.558,0,1.117,0,1.926C148.111,80.638,150.76,81.659,152.198,84.908z M139.791,70.521
		c-47.009,0-93.825,0-140.661,0c0,18.707,0,37.315,0,56.045c4.169,0,8.193-0.021,12.217,0.014c1.491,0.014,2.372,0.866,2.416,2.156
		c0.046,1.376-0.835,2.297-2.401,2.328c-2.438,0.054-4.88,0.021-7.319,0.022c-1.63,0.002-3.26,0-4.944,0
		c0,2.642-0.18,5.103,0.083,7.518c0.116,1.07,0.978,2.185,1.769,3.031c1.28,1.371,3.09,1.403,4.879,1.403
		c42.385-0.013,84.767-0.011,127.153-0.013c0.583,0,1.167,0.009,1.748-0.041c2.355-0.19,4.597-1.766,4.878-4.032
		c0.318-2.544,0.074-5.154,0.074-7.866c-0.753,0-1.436,0-2.117,0c-36.55,0-73.098,0-109.646-0.002c-0.689,0-1.542,0.199-2.028-0.12
		c-0.748-0.493-1.579-1.28-1.766-2.08c-0.255-1.094,0.521-2.007,1.725-2.245c0.667-0.13,1.374-0.077,2.063-0.077
		c36.601-0.001,73.204-0.001,109.806-0.001c0.67,0,1.341,0,2.021,0c0-3.688,0-7.161,0-10.741c-0.757,0-1.388,0-2.02,0
		c-6.471-0.002-12.941,0.045-19.412-0.013c-11.816-0.104-20.065-9.973-17.687-21.083c1.635-7.63,8.668-13.456,16.572-13.564
		c6.948-0.098,13.898-0.031,20.847-0.037c0.565-0.001,1.13,0,1.749,0C139.791,77.483,139.791,74.054,139.791,70.521z
		 M139.866,65.731c0-1.823,0.002-3.492,0-5.159c-0.008-4.668-2.058-6.697-6.768-6.697c-42.439,0-84.88,0-127.319,0
		c-0.53,0-1.063-0.024-1.591,0.019c-2.443,0.202-4.788,2.006-5.019,4.313c-0.247,2.462-0.055,4.967-0.055,7.524
		C46.008,65.731,92.827,65.731,139.866,65.731z M51.74,49.296c3.22,0,6.072,0,8.927,0c2.642,0,2.642,0,3.177-2.437
		c1.979-9.012,10.054-15.406,19.076-15.109c9.646,0.317,17.201,6.937,18.614,16.371c0.123,0.818,0.317,1.211,1.228,1.188
		c1.962-0.048,3.929,0.046,5.888-0.055c0.521-0.026,1.189-0.426,1.496-0.858c2.731-3.854,5.426-7.734,8.046-11.665
		c0.321-0.483,0.4-1.422,0.147-1.937c-1.474-2.995-2.141-6.116-1.814-9.42c0.099-0.98-0.286-1.521-1.065-2.043
		c-7.686-5.125-15.354-10.269-23.001-15.447c-0.864-0.586-1.544-0.611-2.462-0.151c-2.808,1.404-5.818,1.96-8.942,1.646
		c-1.228-0.125-1.916,0.244-2.6,1.24c-6.739,9.822-13.532,19.61-20.31,29.41C56.09,42.998,54.038,45.97,51.74,49.296z
		 M131.575,111.243c0,0.002,0,0.006,0,0.008c4.663,0,9.326-0.054,13.989,0.031c1.477,0.025,2.019-0.327,2.001-1.886
		c-0.079-7.308-0.076-14.618-0.002-21.929c0.018-1.492-0.501-1.829-1.913-1.822c-9.009,0.054-18.018,0.017-27.027,0.042
		c-1.212,0.003-2.453,0.067-3.629,0.328c-6.36,1.414-10.805,7.393-10.113,13.501c0.764,6.763,6.061,11.626,12.861,11.714
		C122.354,111.292,126.966,111.243,131.575,111.243z M42.713,49.114c2.323,0.538,3.727-0.004,4.95-1.94
		c2.74-4.342,5.795-8.491,8.72-12.721c6.178-8.933,12.366-17.858,18.523-26.806c1.286-1.872,2.955-3.097,5.285-2.849
		c3.062,0.327,5.888-0.181,8.616-1.543c1.784-0.892,3.644-0.834,5.303,0.27c8.3,5.526,16.576,11.086,24.834,16.671
		c1.712,1.157,2.434,2.892,2.202,4.911c-0.313,2.735,0.144,5.312,1.442,7.731c1.221,2.271,1,4.377-0.486,6.463
		c-2.039,2.864-4.01,5.776-6.001,8.672c-0.243,0.354-0.437,0.74-0.682,1.162c2.185,0.481,3.557,0.023,4.79-1.847
		c4.155-6.307,8.547-12.459,12.842-18.675c1.622-2.348,1.391-3.655-0.952-5.229C116.864,13.146,101.62,2.913,86.377-7.316
		c-2.441-1.638-3.716-1.381-5.401,1.054C68.53,11.732,56.085,29.728,43.641,47.723C43.352,48.142,43.076,48.569,42.713,49.114z
		 M96.89,49.189c-0.419-7.215-7.056-12.989-14.591-12.874c-7.267,0.112-13.817,6.088-14.001,12.874
		C77.795,49.189,87.291,49.189,96.89,49.189z M135.388,49.216c0.051-0.179,0.126-0.324,0.128-0.471
		c0.032-1.525-0.413-3.105-1.988-3.336c-2.11-0.31-4.43-0.406-6.429,0.174c-1.084,0.313-1.689,2.22-2.668,3.633
		C128.24,49.216,131.751,49.216,135.388,49.216z M13.642,45.068c-1.894,0-3.681-0.055-5.466,0.014
		c-2.292,0.089-3.483,1.792-2.896,4.214c1.378,0,2.795,0,4.212,0C13.394,49.296,13.394,49.296,13.642,45.068z"/>
	<path display="inline" fill="#6C757D" d="M118.379,89.223c5.24,0.01,9.374,4.103,9.359,9.269c-0.013,5.115-4.245,9.288-9.408,9.268
		c-5.16-0.02-9.411-4.232-9.401-9.316C108.94,93.34,113.169,89.212,118.379,89.223z M118.372,103.135
		c2.619-0.007,4.782-2.136,4.771-4.689c-0.011-2.521-2.244-4.708-4.801-4.701c-2.602,0.008-4.732,2.141-4.727,4.731
		C113.625,101.085,115.726,103.143,118.372,103.135z"/>
</g>
<g display="none">
	<path display="inline" fill="#6C757D" d="M142.811,50.254c0,3.649,0,7.301,0,10.951c-11.529,0-23.06-0.033-34.59,0.01
		c-11.061,0.042-19.893,8.404-19.959,18.833c-0.026,4.345-0.011,8.69-0.004,13.037c0.01,11.491,8.643,19.645,20.813,19.649
		c11.245,0.007,22.491,0.001,33.738,0.001c0,3.65,0,7.301,0,10.951c-0.54,1.676-0.886,3.438-1.655,5.016
		c-3.787,7.77-10.32,11.499-19.341,11.494c-31.064-0.01-62.131-0.002-93.196-0.006c-2.84,0-5.685,0.078-8.518-0.057
		c-7.022-0.336-12.538-3.331-16.112-9.03c-1.408-2.246-2.032-4.933-3.015-7.417c0-24.478,0-48.956,0-73.434
		c0.54-1.677,0.883-3.44,1.652-5.018c3.791-7.769,10.33-11.495,19.345-11.492c30.499,0.009,60.998,0.002,91.496,0.005
		c3.407,0,6.821-0.065,10.223,0.056c6.288,0.224,11.287,2.851,15.136,7.524C141.002,43.975,141.995,47.076,142.811,50.254z"/>
	<path display="inline" fill="#6C757D" d="M142.811,102.432c-11.239,0-22.479,0.003-33.72-0.002
		c-6.217-0.004-9.916-3.522-9.924-9.427c-0.006-4.129-0.013-8.259,0.002-12.389c0.019-5.471,3.814-9.092,9.58-9.099
		c11.354-0.016,22.708-0.005,34.062-0.005C142.811,81.818,142.811,92.124,142.811,102.432z M111.85,93.804
		c4.038,0.019,7.293-2.995,7.331-6.789c0.04-3.768-3.213-6.859-7.237-6.88c-4.035-0.021-7.291,3.002-7.314,6.79
		C104.607,90.722,107.821,93.785,111.85,93.804z"/>
	<path display="inline" fill="#6C757D" d="M25.906,26.823c0.636-1.282,1.112-2.243,1.588-3.206
		c3.351-6.799,6.693-13.601,10.052-20.396c1.886-3.817,4.548-4.746,8.563-2.979C61.013,6.802,75.915,13.366,90.816,19.94
		c2.637,1.163,3.762,2.858,3.68,5.252c-0.038,1.187-0.452,1.688-1.833,1.661c-4.258-0.083-8.518-0.03-12.776-0.03
		c-17.208,0-34.416,0-51.623,0C27.59,26.823,26.917,26.823,25.906,26.823z"/>
	<path display="inline" fill="#6C757D" d="M101.968,26.741c-0.215-1.745-0.239-3.414-0.655-4.99
		c-0.976-3.715-3.47-6.307-7.128-7.918c-7.296-3.213-14.589-6.43-21.884-9.646c-0.561-0.248-1.115-0.51-1.854-0.848
		c1.462-2.886,2.758-5.792,4.371-8.532c1.345-2.285,4.302-2.9,7.049-1.704c7.31,3.186,14.599,6.406,21.894,9.618
		c7.553,3.324,15.104,6.653,22.656,9.981c4.544,2.003,5.481,4.383,3.396,8.628c-0.788,1.603-1.533,3.227-2.402,4.789
		c-0.231,0.414-0.855,0.898-1.299,0.897c-7.774-0.022-15.549-0.117-23.323-0.2C102.456,26.814,102.127,26.757,101.968,26.741z"/>
</g>
<g display="none">
	<path display="inline" fill="#6C757D" d="M0,110.585c0-31.001,0-62.002,0-93.003c0.907-2.245,2.399-3.365,4.808-3.361
		c24.328,0.043,48.655,0.024,72.98,0.03c0.422,0,0.844,0.06,1.271,0.092c-8.292,15.188-9.158,30.542,0.062,45.118
		c11.136,17.608,27.099,22.147,46.003,16.43c0.014,0.177,0.041,0.37,0.041,0.563c0.004,19.719,0.006,39.438,0,59.153
		c0,1.992-0.759,3.552-2.506,4.365c-1.751,0.813-3.308,0.311-4.726-0.998c-8.712-8.038-17.453-16.043-26.151-24.098
		c-0.785-0.728-1.551-1.039-2.589-1.037c-27.928,0.023-55.855-0.005-83.781,0.06C2.855,113.905,1.041,113.099,0,110.585z
		 M49.988,94.998c1.894,0,3.784,0,5.677,0c7.798-0.001,15.595,0.003,23.394-0.004c2.233-0.004,3.844-1.256,4.334-3.323
		c0.704-2.979-1.336-5.486-4.501-5.488c-14.673-0.006-29.347-0.002-44.02-0.002c-4.613,0-9.229,0-13.843,0.001
		c-1.766,0-3.132,0.771-3.943,2.459c-1.457,3.032,0.606,6.344,3.973,6.351C30.7,95.008,40.346,94.997,49.988,94.998z M37.585,59.689
		c5.582,0,11.163,0.021,16.745-0.011c2.458-0.015,4.291-1.952,4.287-4.403c-0.002-2.442-1.851-4.396-4.299-4.401
		c-11.116-0.023-22.234-0.015-33.353-0.007c-1.765,0-3.121,0.816-3.911,2.515c-1.367,2.938,0.598,6.258,3.785,6.289
		C26.421,59.726,32.003,59.686,37.585,59.689z M34.721,42.032c4.521,0,9.041,0.004,13.562-0.007c0.55-0.001,1.117-0.004,1.646-0.146
		c2.035-0.546,3.376-2.632,3.107-4.747c-0.302-2.378-2.012-3.921-4.438-3.925c-9.086-0.014-18.174-0.009-27.259-0.002
		c-2.799,0.001-4.704,1.792-4.715,4.399c-0.012,2.627,1.862,4.416,4.678,4.423C25.774,42.041,30.247,42.032,34.721,42.032z
		 M33.34,77.351c4.059,0,8.118,0.003,12.176-0.007c0.549-0.003,1.119-0.006,1.645-0.149c2.034-0.549,3.377-2.636,3.106-4.748
		c-0.296-2.324-1.987-3.911-4.303-3.917c-8.209-0.021-16.42-0.012-24.63-0.007c-2.797,0.001-4.7,1.792-4.712,4.401
		c-0.011,2.629,1.86,4.414,4.678,4.424C25.313,77.36,29.326,77.351,33.34,77.351z"/>
	<path display="inline" fill="#6C757D" d="M141.814,40.244c-0.523,2.37-0.885,4.8-1.604,7.104
		c-4.443,14.237-17.457,23.284-31.491,21.985c-13.941-1.289-25.313-12.752-27.35-27.563C78.545,21.213,94.599,3.172,114.109,4.977
		c14.153,1.312,25.739,13.181,27.448,28.115c0.041,0.33,0.17,0.647,0.257,0.972C141.814,36.124,141.814,38.184,141.814,40.244z
		 M108.315,33.862c0,0.682,0,1.219,0,1.756c0,5.194-0.027,10.391,0.015,15.586c0.018,2.54,1.797,4.43,4.067,4.48
		c2.22,0.049,4.183-1.772,4.194-4.163c0.049-9.605,0.037-19.213,0.005-28.819c-0.006-1.771-0.919-3.061-2.423-3.8
		c-1.521-0.747-3.071-0.604-4.27,0.601c-2.709,2.728-5.354,5.537-7.93,8.411c-1.254,1.397-1.261,3.589-0.288,5.196
		c0.965,1.585,2.853,2.356,4.607,1.79C106.936,34.694,107.519,34.279,108.315,33.862z"/>
</g>
<g>
	<path fill="#FFD700" d="M74.253,0.001c6.494,0,12.987,0,19.481,0c3.015,1.296,4.086,3.611,4.221,6.848
		c0.24,5.865,3.025,10.501,7.856,13.813c7.365,5.052,16.514,4.318,23.169-1.756c2.737-2.499,5.766-2.661,8.194-0.286
		c3.938,3.847,7.829,7.738,11.679,11.675c2.268,2.319,2.242,5.345,0.09,7.814c-0.307,0.351-0.647,0.667-0.941,1.023
		c-4.838,5.858-5.895,12.388-2.913,19.326c2.893,6.727,8.163,10.609,15.529,11.061c3.237,0.198,5.551,1.234,6.865,4.231
		c0,6.492,0,12.984,0,19.479c-1.177,2.567-3.017,4.055-5.984,4.158c-7.839,0.274-13.45,4.131-16.466,11.278
		c-3.053,7.231-1.752,13.942,3.546,19.805c2.681,2.966,2.638,5.856-0.194,8.705c-3.39,3.409-6.799,6.8-10.197,10.201
		c-3.515,3.513-5.914,3.507-9.72,0.244c-5.828-4.991-12.438-6.041-19.444-3.036c-6.729,2.886-10.61,8.156-11.062,15.526
		c-0.195,3.231-1.23,5.552-4.228,6.866c-6.494,0-12.987,0-19.481,0c-2.743-1.225-4.101-3.242-4.18-6.34
		c-0.242-9.53-8.072-17.299-17.628-17.645c-5.249-0.188-9.735,1.6-13.566,5.182c-2.763,2.582-5.762,2.491-8.444-0.175
		c-3.697-3.677-7.354-7.394-11.071-11.051c-1.641-1.613-2.331-3.548-1.652-5.683c0.382-1.202,1.331-2.271,2.171-3.278
		c4.864-5.838,6.001-12.352,3.084-19.311c-2.855-6.813-8.146-10.766-15.595-11.218c-3.236-0.196-5.547-1.237-6.866-4.229
		c0-6.495,0-12.987,0-19.479c1.187-2.675,3.125-4.082,6.164-4.169c9.893-0.285,17.685-8.278,17.814-18.176
		c0.066-5.05-1.736-9.363-5.188-13.042c-2.432-2.592-2.504-5.675-0.168-8.061c3.853-3.93,7.745-7.82,11.672-11.675
		c2.248-2.206,5.29-2.238,7.686-0.204c0.396,0.337,0.753,0.724,1.154,1.054c5.799,4.784,12.276,5.878,19.167,2.983
		c6.814-2.864,10.756-8.157,11.219-15.599C70.224,3.628,71.251,1.311,74.253,0.001z M32.865,83.468
		c0,28.123,22.871,51.11,50.887,51.147c28.421,0.035,51.352-22.816,51.369-51.199c0.021-28.048-22.935-51.033-50.98-51.052
		C55.815,32.348,32.866,55.219,32.865,83.468z"/>
	<path fill="#FFD700" d="M84.126,95.111c14.101,0.595,24.97,6.724,32.357,18.896c0.688,1.137,0.626,1.822-0.354,2.776
		c-17.669,17.185-46.406,17.232-64.152,0.12c-1.093-1.053-1.163-1.795-0.394-3.049C59.035,101.722,69.932,95.645,84.126,95.111z"/>
	<path fill="#FFD700" d="M84.104,50.631c9.471,0.024,17.208,7.808,17.2,17.302c-0.005,9.53-7.853,17.311-17.42,17.271
		c-9.442-0.035-17.284-7.93-17.204-17.315C66.762,58.267,74.498,50.605,84.104,50.631z"/>
</g>
</svg>
