<?xml version="1.0" encoding="utf-8"?>
<!-- Generator: Adobe Illustrator 16.0.0, SVG Export Plug-In . SVG Version: 6.00 Build 0)  -->
<!DOCTYPE svg PUBLIC "-//W3C//DTD SVG 1.1//EN" "http://www.w3.org/Graphics/SVG/1.1/DTD/svg11.dtd">
<svg version="1.1" id="Layer_1" xmlns="http://www.w3.org/2000/svg" xmlns:xlink="http://www.w3.org/1999/xlink" x="0px" y="0px"
	 width="135.019px" height="134.715px" viewBox="-18.167 -18.5 135.019 134.715"
	 enable-background="new -18.167 -18.5 135.019 134.715" xml:space="preserve">
<g>
	<path fill="#6C757D" d="M116.195,47.37c0,22.989,0,45.981,0,68.969c-44.57,0-89.139,0-133.706,0c0-22.991,0-45.98,0-68.969
		c2.434-0.004,4.871-0.011,7.305-0.011C31.928,47.363,74.063,47.367,116.195,47.37z M11.251,102.974c0-0.875,0.002-1.68,0-2.488
		c-0.03-6.472,1.598-12.44,4.977-17.888c1.938-3.122,3.746-6.338,5.794-9.381c1.191-1.77,1.716-3.557,1.569-5.695
		c-0.129-1.874-0.028-3.763-0.028-5.641c-9.555,0-18.891,0-28.267,0c0,5.358,0,10.638,0,15.917c2.585,0,5.08,0,7.679,0
		c0-2.636,0-5.167,0-7.75c3.907,0,7.701,0,11.881,0C7.854,79.983,2.383,90.253,3.664,102.974
		C6.186,102.974,8.647,102.974,11.251,102.974z M54.834,70.021c-7.017,9.971-12.493,20.214-11.207,32.935c2.474,0,4.969,0,7.438,0
		c0.059-0.166,0.116-0.249,0.116-0.329c0.016-0.817,0.021-1.635,0.029-2.453c0.035-5.933,1.387-11.498,4.398-16.558
		c2.404-4.048,4.893-8.041,7.332-12.064c0.229-0.375,0.533-0.799,0.541-1.204c0.047-2.802,0.027-5.605,0.027-8.457
		c-9.5,0-18.872,0-28.237,0c0,5.37,0,10.65,0,15.939c2.566,0,5.027,0,7.643,0c0-2.634,0-5.197,0-7.81
		C46.842,70.021,50.618,70.021,54.834,70.021z M94.305,69.969c-7.051,10.018-12.523,20.263-11.244,32.994c2.471,0,4.967,0,7.582,0
		c0-0.847,0.004-1.61,0-2.375c-0.041-6.569,1.619-12.616,5.064-18.136c2.252-3.61,4.455-7.256,6.668-10.893
		c0.227-0.378,0.533-0.798,0.541-1.205c0.047-2.801,0.025-5.606,0.025-8.464c-9.494,0-18.863,0-28.24,0c0,5.369,0,10.65,0,15.947
		c2.563,0,5.025,0,7.645,0c0-2.634,0-5.195,0-7.774c0.361-0.042,0.572-0.09,0.783-0.09C86.695,69.968,90.26,69.969,94.305,69.969z"
		/>
	<path fill="#6C757D" d="M-17.51,10.84c3.796-1.672,7.598-3.332,11.382-5.038c0.413-0.187,0.752-0.604,1.064-0.971
		c2.588-3.061,5.162-6.135,7.796-9.274C5.138-1.574,7.518,1.199,9.818,4.04c0.895,1.104,1.917,1.896,3.202,2.443
		c3.291,1.405,6.545,2.902,9.956,4.426c-0.394,0.715-0.741,1.363-1.104,2.002c-1.042,1.835-1.934,3.79-3.172,5.466
		c-2.196,2.984-2.633,6.399-2.812,9.965c-0.119,2.396-0.397,4.783-0.625,7.401c-1.54-0.34-3.001-0.648-4.455-0.987
		c-2.371-0.553-4.732-1.158-7.109-1.674c-0.612-0.132-1.299-0.125-1.908,0.012c-3.476,0.789-6.938,1.637-10.408,2.454
		c-0.33,0.078-0.677,0.088-1.171,0.148c-0.218-2.352-0.435-4.631-0.643-6.912c-0.177-1.941-0.338-3.886-0.524-5.828
		c-0.029-0.305-0.101-0.635-0.25-0.894c-2.092-3.658-4.202-7.305-6.306-10.955C-17.51,11.022-17.51,10.933-17.51,10.84z"/>
	<path fill="#6C757D" d="M116.195,11.113c-2.109,3.65-4.277,7.262-6.27,10.977c-0.477,0.883-0.422,2.101-0.52,3.173
		c-0.322,3.425-0.604,6.856-0.916,10.488c-1.559-0.346-3.027-0.664-4.484-1.001c-0.975-0.226-1.99-0.355-2.906-0.745
		c-4.395-1.865-8.6-0.345-12.846,0.656c-1.553,0.368-3.109,0.726-4.813,1.125c-0.227-2.506-0.443-4.835-0.648-7.167
		c-0.123-1.4-0.105-2.83-0.371-4.199c-0.252-1.297-0.619-2.629-1.23-3.776c-1.732-3.244-3.609-6.403-5.494-9.704
		c3.328-1.497,6.564-3.012,9.855-4.401c1.375-0.581,2.455-1.428,3.402-2.602c2.275-2.805,4.625-5.543,7-8.381
		c2.576,3.071,5.074,6.093,7.635,9.06c0.531,0.616,1.225,1.168,1.949,1.502c3.531,1.62,7.098,3.157,10.654,4.724
		C116.195,10.933,116.195,11.022,116.195,11.113z"/>
	<path fill="#6C757D" d="M61.855,23.523c-3.646-0.868-7.059-1.762-10.504-2.457c-1.272-0.256-2.67-0.26-3.94-0.002
		c-3.489,0.705-6.939,1.607-10.573,2.469c-0.269-2.917-0.654-5.698-0.752-8.49c-0.112-3.157-0.787-6.009-2.553-8.654
		c-1.609-2.408-2.919-5.034-4.441-7.707c1.903-0.866,3.667-1.869,5.544-2.479c4.572-1.484,8.105-4.313,10.893-8.328
		c1.092-1.573,2.444-2.949,3.749-4.5c0.273,0.265,0.535,0.48,0.75,0.735c2.354,2.797,4.688,5.615,7.069,8.388
		c0.443,0.517,1.033,0.971,1.641,1.253c3.131,1.456,6.289,2.845,9.438,4.263c0.436,0.195,0.861,0.405,1.408,0.668
		C68.369,0.829,67.387,3.035,66,4.912c-2.785,3.766-3.477,8.074-3.625,12.622C62.303,19.47,62.045,21.401,61.855,23.523z"/>
</g>
</svg>
