<?xml version="1.0" encoding="utf-8"?>
<!-- Generator: Adobe Illustrator 16.0.0, SVG Export Plug-In . SVG Version: 6.00 Build 0)  -->
<!DOCTYPE svg PUBLIC "-//W3C//DTD SVG 1.1//EN" "http://www.w3.org/Graphics/SVG/1.1/DTD/svg11.dtd">
<svg version="1.1" id="Layer_1" xmlns="http://www.w3.org/2000/svg" xmlns:xlink="http://www.w3.org/1999/xlink" x="0px" y="0px"
	 width="135.02px" height="134.715px" viewBox="0 0 135.02 134.715" enable-background="new 0 0 135.02 134.715"
	 xml:space="preserve">
<g>
	<path fill="#FFD700" d="M133.706,63.995c0,22.989,0,45.981,0,68.969c-44.57,0-89.139,0-133.706,0c0-22.991,0-45.979,0-68.969
		c2.434-0.004,4.871-0.011,7.305-0.011C49.439,63.988,91.574,63.992,133.706,63.995z M28.761,119.6c0-0.875,0.002-1.681,0-2.488
		c-0.029-6.473,1.599-12.44,4.978-17.889c1.938-3.121,3.746-6.338,5.794-9.381c1.19-1.77,1.716-3.557,1.568-5.695
		c-0.129-1.873-0.027-3.763-0.027-5.641c-9.556,0-18.892,0-28.268,0c0,5.358,0,10.639,0,15.917c2.585,0,5.08,0,7.68,0
		c0-2.636,0-5.167,0-7.75c3.906,0,7.7,0,11.881,0c-7.002,9.935-12.474,20.205-11.192,32.927C23.697,119.6,26.158,119.6,28.761,119.6
		z M72.344,86.646c-7.017,9.971-12.493,20.213-11.207,32.935c2.475,0,4.97,0,7.438,0c0.059-0.166,0.116-0.249,0.116-0.329
		c0.016-0.816,0.021-1.635,0.028-2.453c0.035-5.933,1.388-11.498,4.398-16.558c2.404-4.048,4.893-8.041,7.332-12.064
		c0.229-0.375,0.533-0.799,0.541-1.204c0.047-2.802,0.026-5.604,0.026-8.457c-9.5,0-18.871,0-28.236,0c0,5.37,0,10.65,0,15.939
		c2.565,0,5.026,0,7.643,0c0-2.635,0-5.197,0-7.811C64.352,86.646,68.129,86.646,72.344,86.646z M111.816,86.594
		c-7.052,10.018-12.523,20.264-11.244,32.994c2.471,0,4.967,0,7.582,0c0-0.847,0.004-1.609,0-2.375
		c-0.041-6.568,1.619-12.615,5.063-18.136c2.252-3.61,4.455-7.257,6.668-10.894c0.228-0.377,0.533-0.798,0.541-1.205
		c0.047-2.801,0.025-5.605,0.025-8.463c-9.494,0-18.863,0-28.24,0c0,5.368,0,10.649,0,15.946c2.563,0,5.025,0,7.646,0
		c0-2.634,0-5.194,0-7.774c0.36-0.041,0.571-0.09,0.782-0.09C104.206,86.593,107.77,86.594,111.816,86.594z"/>
	<path fill="#FFD700" d="M0.001,27.465c3.796-1.672,7.598-3.332,11.382-5.038c0.413-0.187,0.752-0.604,1.064-0.971
		c2.588-3.061,5.162-6.135,7.796-9.274c2.406,2.869,4.786,5.642,7.086,8.483c0.895,1.104,1.917,1.896,3.202,2.443
		c3.291,1.405,6.545,2.902,9.956,4.426c-0.395,0.715-0.741,1.363-1.104,2.002c-1.042,1.835-1.934,3.79-3.172,5.466
		c-2.196,2.984-2.633,6.399-2.812,9.965c-0.119,2.396-0.397,4.783-0.625,7.401c-1.54-0.34-3.001-0.648-4.455-0.987
		c-2.371-0.553-4.732-1.158-7.109-1.674c-0.612-0.132-1.299-0.125-1.908,0.012c-3.476,0.789-6.938,1.637-10.408,2.454
		c-0.329,0.078-0.677,0.088-1.171,0.148c-0.218-2.352-0.435-4.631-0.643-6.912c-0.177-1.941-0.338-3.886-0.524-5.828
		c-0.028-0.305-0.101-0.635-0.25-0.894C4.214,35.029,2.103,31.382,0,27.732C0.001,27.647,0.001,27.558,0.001,27.465z"/>
	<path fill="#FFD700" d="M133.706,27.738c-2.109,3.65-4.277,7.262-6.271,10.977c-0.477,0.883-0.422,2.101-0.52,3.173
		c-0.322,3.425-0.604,6.856-0.916,10.488c-1.559-0.346-3.027-0.664-4.484-1.001c-0.975-0.226-1.989-0.355-2.905-0.745
		c-4.396-1.865-8.601-0.345-12.847,0.656c-1.553,0.368-3.108,0.726-4.813,1.125c-0.228-2.506-0.443-4.835-0.648-7.167
		c-0.123-1.4-0.104-2.83-0.371-4.199c-0.252-1.297-0.619-2.629-1.229-3.776c-1.732-3.244-3.609-6.403-5.494-9.704
		c3.328-1.497,6.564-3.012,9.854-4.401c1.375-0.581,2.455-1.428,3.402-2.602c2.275-2.805,4.625-5.543,7-8.381
		c2.576,3.071,5.074,6.093,7.635,9.06c0.531,0.616,1.226,1.168,1.949,1.502c3.531,1.62,7.098,3.157,10.654,4.724
		C133.706,27.558,133.706,27.647,133.706,27.738z"/>
	<path fill="#FFD700" d="M79.366,40.148c-3.646-0.868-7.06-1.762-10.504-2.457c-1.272-0.256-2.67-0.26-3.94-0.002
		c-3.489,0.705-6.938,1.607-10.573,2.469c-0.269-2.917-0.653-5.698-0.752-8.49c-0.111-3.157-0.787-6.009-2.553-8.654
		c-1.609-2.408-2.919-5.034-4.441-7.707c1.903-0.866,3.667-1.869,5.545-2.479c4.571-1.484,8.104-4.313,10.893-8.328
		c1.092-1.573,2.444-2.949,3.749-4.5c0.272,0.265,0.535,0.48,0.75,0.735c2.354,2.797,4.688,5.615,7.069,8.388
		c0.442,0.517,1.032,0.971,1.641,1.253c3.131,1.456,6.289,2.845,9.438,4.263c0.437,0.195,0.861,0.405,1.408,0.668
		c-1.215,2.147-2.196,4.353-3.584,6.23c-2.785,3.766-3.477,8.074-3.625,12.622C79.814,36.095,79.555,38.026,79.366,40.148z"/>
</g>
</svg>
