<?xml version="1.0" encoding="utf-8"?>
<!-- Generator: Adobe Illustrator 16.0.0, SVG Export Plug-In . SVG Version: 6.00 Build 0)  -->
<!DOCTYPE svg PUBLIC "-//W3C//DTD SVG 1.1//EN" "http://www.w3.org/Graphics/SVG/1.1/DTD/svg11.dtd">
<svg version="1.1" id="Layer_1" xmlns="http://www.w3.org/2000/svg" xmlns:xlink="http://www.w3.org/1999/xlink" x="0px" y="0px"
	 width="100px" height="100px" viewBox="0 0 100 100" enable-background="new 0 0 100 100" xml:space="preserve">
<path display="none" fill-rule="evenodd" clip-rule="evenodd" fill="#393D40" d="M87.958,99.5c-26.848,0-53.695,0-80.542,0
	c-0.175-0.068-0.345-0.151-0.524-0.201c-2.821-0.795-4.669-3.159-4.671-6.106c-0.012-15.957-0.014-31.913,0.002-47.87
	c0.002-2.29,1.041-4.079,2.98-5.288c0.503-0.315,0.677-0.627,0.679-1.21c0.004-3.258,1.954-5.167,5.236-5.185
	c1.016-0.004,2.032,0,3.042,0c0.066-0.313,0.125-0.497,0.144-0.686c0.66-6.674,1.344-13.345,1.96-20.023
	c0.307-3.323,2.379-5.054,5.702-4.712c6.894,0.711,13.792,1.382,20.69,2.064c1.135,0.112,1.779,0.673,1.712,1.536
	c-0.071,0.917-0.834,1.376-1.998,1.261c-6.993-0.692-13.986-1.379-20.981-2.053c-1.479-0.143-2.113,0.358-2.26,1.812
	c-0.642,6.288-1.26,12.579-1.884,18.87c-0.24,2.415-0.474,4.831-0.709,7.236c1.707,0.342,1.742,0.311,1.898-1.27
	c0.506-5.142,1.016-10.282,1.528-15.423c0.138-1.385,0.778-2.433,2.105-2.971c1.625-0.66,2.916-1.712,3.901-3.165
	c0.771-1.139,1.871-1.6,3.239-1.463c3.417,0.342,6.834,0.67,10.251,1.01c1.129,0.112,1.753,0.725,1.643,1.585
	c-0.112,0.878-0.799,1.298-1.965,1.184c-3.257-0.319-6.516-0.629-9.77-0.976c-0.618-0.066-1.004,0.086-1.363,0.614
	c-1.088,1.604-2.549,2.807-4.334,3.548c-0.678,0.282-0.898,0.692-0.961,1.357c-0.256,2.781-0.546,5.557-0.817,8.336
	c-0.249,2.544-0.49,5.089-0.746,7.771c2,0,3.918-0.037,5.833,0.019c0.767,0.022,1.207-0.242,1.634-0.872
	c7.787-11.468,15.609-22.912,23.388-34.384c0.93-1.371,1.963-2.513,3.59-2.998c0.578,0,1.156,0,1.733,0
	c0.578,0.269,1.206,0.465,1.727,0.818c9.528,6.471,19.051,12.949,28.555,19.455c2.192,1.5,2.677,4.138,1.228,6.362
	c-1.155,1.774-2.379,3.504-3.567,5.256c-0.173,0.254-0.323,0.521-0.563,0.908c0.478,0,0.796-0.017,1.112,0.002
	c2.334,0.136,4.162,1.636,4.578,3.831c0.131,0.685,0.035,1.411,0.109,2.109c0.033,0.316,0.147,0.708,0.368,0.904
	c1.632,1.437,2.312,3.238,2.294,5.386c-0.03,3.884-0.008,7.769-0.008,11.653c0,0.342,0,0.684,0,1.105c0.463,0,0.809-0.003,1.156,0
	c2.205,0.022,3.469,1.272,3.472,3.467c0.008,4.816,0.01,9.632-0.001,14.447c-0.004,2.079-1.266,3.343-3.354,3.401
	c-0.401,0.012-0.803,0.001-1.272,0.001c0,0.491,0,0.84,0,1.188c-0.001,4.012,0.016,8.025-0.008,12.038
	c-0.019,2.952-1.846,5.308-4.667,6.115C88.301,99.347,88.131,99.432,87.958,99.5z M5.138,89.336c0,1.665-0.135,3.242,0.062,4.776
	c0.088,0.69,0.709,1.517,1.324,1.885c0.745,0.444,1.741,0.65,2.629,0.651c25.688,0.032,51.377,0.026,77.064,0.024
	c0.385,0,0.773,0.001,1.154-0.043c1.388-0.156,2.71-1.241,2.842-2.615c0.147-1.514,0.035-3.053,0.035-4.679c-0.47,0-0.88,0-1.291,0
	c-22.124,0-44.248,0-66.372-0.001c-0.385,0-0.774,0.019-1.155-0.029c-0.794-0.101-1.211-0.62-1.204-1.376
	c0.008-0.758,0.441-1.265,1.235-1.352c0.381-0.04,0.77-0.021,1.155-0.021c22.124-0.003,44.248-0.001,66.373-0.001
	c0.407,0,0.815,0,1.264,0c0-2.248,0-4.378,0-6.602c-0.444,0-0.821,0-1.201,0c-3.917,0-7.835,0.024-11.752-0.005
	c-6.57-0.051-11.269-4.961-10.948-11.402c0.262-5.272,4.825-9.785,10.118-9.882c4.236-0.079,8.477-0.023,12.715-0.028
	c0.344-0.001,0.688,0,1.134,0c0-1.16,0-2.212,0-3.263c0-1.078,0-2.156,0-3.229c-28.501,0-56.865,0-85.203,0
	c0,11.494,0,22.908,0,34.411c0.422,0,0.769,0,1.116,0c2.055,0,4.11-0.011,6.165,0.006c1.03,0.007,1.598,0.53,1.589,1.396
	c-0.008,0.866-0.564,1.345-1.615,1.374c-0.417,0.015-0.835,0.004-1.252,0.004C9.135,89.336,7.151,89.336,5.138,89.336z
	 M90.318,49.18c0-1.12,0.001-2.144,0-3.168c-0.004-2.869-1.244-4.116-4.095-4.116c-25.691,0-51.381,0-77.071,0
	c-0.321,0-0.644-0.014-0.963,0.012c-1.479,0.124-2.897,1.233-3.038,2.649c-0.15,1.514-0.034,3.052-0.034,4.623
	C33.504,49.18,61.845,49.18,90.318,49.18z M67.229,39.08c1.502,0,2.914,0.029,4.322-0.026c0.277-0.011,0.622-0.294,0.797-0.548
	c1.63-2.347,3.249-4.7,4.812-7.089c0.21-0.321,0.272-0.935,0.112-1.271c-0.866-1.814-1.274-3.7-1.084-5.695
	c0.061-0.636-0.157-0.995-0.669-1.34c-4.651-3.146-9.293-6.31-13.924-9.487c-0.483-0.332-0.871-0.375-1.404-0.102
	c-1.727,0.879-3.577,1.229-5.504,1.037c-0.691-0.069-1.104,0.115-1.505,0.708c-5.203,7.678-10.434,15.337-15.655,23.003
	c-0.149,0.219-0.268,0.461-0.47,0.813c2.179,0,4.199-0.024,6.219,0.014c0.672,0.012,0.857-0.248,0.94-0.875
	c1.134-8.467,11.117-12.787,18.063-7.825C65.215,32.494,66.811,35.383,67.229,39.08z M85.261,77.144c0,0.002,0,0.004,0,0.006
	c2.855,0,5.711-0.033,8.565,0.02c0.876,0.017,1.16-0.218,1.152-1.119c-0.043-4.492-0.048-8.983,0.002-13.474
	c0.012-0.968-0.328-1.165-1.217-1.16c-5.391,0.035-10.779,0.01-16.168,0.026c-0.797,0.004-1.613,0.042-2.385,0.222
	c-3.816,0.886-6.464,4.511-6.073,8.236c0.433,4.146,3.65,7.177,7.75,7.235C79.678,77.176,82.471,77.144,85.261,77.144z
	 M31.495,38.958c1.322,0.317,2.177,0.108,2.93-1.061c2.292-3.56,4.733-7.023,7.118-10.523c3.161-4.64,6.331-9.274,9.483-13.921
	c0.783-1.154,1.809-1.867,3.22-1.709c1.818,0.204,3.503-0.109,5.124-0.93c1.119-0.566,2.258-0.529,3.294,0.171
	c4.996,3.381,9.98,6.777,14.956,10.187c1.034,0.71,1.509,1.76,1.368,3.001c-0.196,1.752,0.121,3.381,0.93,4.932
	c0.654,1.256,0.567,2.467-0.226,3.634c-0.919,1.353-1.841,2.706-2.758,4.061c-0.478,0.705-0.95,1.414-1.457,2.169
	c1.313,0.295,2.159,0.098,2.92-1.079c2.49-3.853,5.133-7.605,7.717-11.396c1.091-1.603,0.962-2.344-0.614-3.417
	c-9.145-6.234-18.292-12.468-27.44-18.698c-1.637-1.115-2.339-0.971-3.47,0.69c-6.812,9.995-13.622,19.992-20.434,29.987
	C33.292,36.323,32.426,37.592,31.495,38.958z M46.972,39.005c5.829,0,11.575,0,17.325,0c-0.18-4.241-4.104-7.851-8.51-7.899
	C51.231,31.056,47.272,34.573,46.972,39.005z M87.616,39.051c0.121-1.261-0.18-2.167-1.078-2.342
	c-1.204-0.233-2.468-0.158-3.705-0.196c-0.095-0.004-0.219,0.126-0.286,0.225c-0.5,0.723-0.989,1.454-1.569,2.313
	C83.296,39.051,85.427,39.051,87.616,39.051z M13.908,36.544c-0.181-0.027-0.304-0.06-0.426-0.061
	c-0.96-0.003-1.92-0.033-2.878,0.008c-1.388,0.059-2.109,1.102-1.753,2.59c0.834,0,1.692,0,2.549,0
	C13.762,39.082,13.762,39.082,13.908,36.544z"/>
<g>
	<path fill-rule="evenodd" clip-rule="evenodd" fill="#393D40" d="M2.264,85.832c0-17.199,0-34.397,0-51.596
		c0.061-0.222,0.13-0.442,0.183-0.668c0.444-1.875,0.667-3.852,1.362-5.61c3.501-8.869,9.687-14.06,18.609-14.832
		c4.743-0.411,9.536-0.126,14.306-0.211c0.678-0.012,1.42-0.201,2.017-0.543c5.681-3.273,11.337-6.598,17-9.906
		c5.819-3.398,12.747-2.303,17.033,2.973c1.442,1.776,2.409,4.031,3.466,6.141c0.482,0.96,0.918,1.45,2.033,1.583
		c8.771,1.043,16.148,7.989,18.464,17.26c0.314,1.254,0.511,2.542,0.763,3.813c0,17.198,0,34.396,0,51.596
		c-0.277,1.089-0.486,2.206-0.842,3.265c-1.899,5.659-7.044,9.928-13.544,9.903c-22.154-0.08-44.308-0.031-66.462-0.031
		c-0.341,0-0.682-0.006-1.022-0.018C9.528,98.717,4.255,94.158,2.7,87.766C2.543,87.123,2.409,86.476,2.264,85.832z M93.601,47.352
		c-0.099-2.912,0.086-5.77-0.349-8.512c-0.823-5.201-4.896-8.638-9.785-8.64c-22.471-0.007-44.943-0.011-67.416,0.015
		c-3.085,0.004-5.623,1.413-7.599,3.981c-1.79,2.326-2.216,5.079-2.212,8.006c0.021,13.702,0,27.404,0.025,41.106
		c0.002,1.163,0.099,2.363,0.376,3.482c1.195,4.832,5.107,7.882,10.024,7.883C34.333,94.682,52,94.677,69.667,94.677
		c4.527,0,9.053,0.017,13.577-0.004c4.848-0.024,8.979-3.185,9.876-8.043c0.539-2.917,0.381-5.986,0.54-9.112
		c-0.584,0-0.917,0-1.25,0c-4.215,0-8.431,0.035-12.647-0.007C72.09,77.432,65.939,71,65.727,62.879
		c-0.223-8.434,6.051-15.477,13.85-15.522c4.278-0.024,8.556-0.005,12.834-0.005C92.741,47.352,93.075,47.352,93.601,47.352z
		 M70.96,9.96c-0.1-0.191-0.154-0.308-0.221-0.416c-2.573-4.205-8.143-6.196-13.174-3.223C47.188,12.449,36.76,18.475,26.353,24.545
		c-0.608,0.355-1.21,0.725-2.03,1.216c0.469,0.041,0.675,0.074,0.88,0.075c5.952,0.002,11.904,0.014,17.856-0.021
		c0.525-0.003,1.094-0.222,1.566-0.495c6.63-3.845,13.249-7.717,19.871-11.582C66.64,12.486,68.782,11.232,70.96,9.96z
		 M93.398,51.721c-0.404,0-0.712,0-1.017,0c-4.089,0-8.179-0.003-12.267,0.003c-0.618,0.002-1.245-0.016-1.854,0.079
		c-5.25,0.813-8.892,5.835-8.481,11.667c0.377,5.332,4.747,9.645,9.846,9.673c4.335,0.023,8.671,0.006,13.008,0.004
		c0.239,0,0.479-0.023,0.765-0.041C93.398,65.98,93.398,58.918,93.398,51.721z M52.614,25.599c0.022,0.062,0.045,0.124,0.068,0.186
		c8.511,0,17.022,0,25.673,0c-1.866-4.039-3.683-7.974-5.532-11.975C66.037,17.769,59.325,21.684,52.614,25.599z M7.916,28.695
		c1.882-1.386,3.914-2.376,6.147-2.638c1.283-0.15,2.375-0.634,3.468-1.277c3.125-1.841,6.263-3.656,9.395-5.485
		c1.021-0.596,2.037-1.203,3.056-1.805c-1.882-0.192-3.723-0.183-5.563-0.194c-4.62-0.027-8.68,1.586-12.157,4.881
		C10.359,23.98,8.896,26.142,7.916,28.695z M79.07,17.627c1.203,2.618,2.318,5.003,3.393,7.412c0.264,0.588,0.574,0.813,1.196,0.821
		c2.814,0.039,5.416,0.875,7.758,2.604c0.126,0.093,0.264,0.169,0.625,0.397C89.278,22.796,85.103,19.152,79.07,17.627z"/>
	<path fill-rule="evenodd" clip-rule="evenodd" fill="#393D40" d="M85.59,62.43c0,3.577-2.656,6.461-5.951,6.459
		c-3.289,0-5.943-2.89-5.943-6.467c-0.002-3.592,2.628-6.434,5.951-6.433C82.966,55.99,85.592,58.834,85.59,62.43z M79.635,64.517
		c1.115,0.003,1.942-0.883,1.946-2.087c0.004-1.174-0.861-2.128-1.933-2.136c-1.066-0.005-1.942,0.951-1.946,2.122
		C77.7,63.621,78.521,64.514,79.635,64.517z"/>
	<path fill-rule="evenodd" clip-rule="evenodd" fill="#393D40" d="M79.635,64.517c-1.113-0.003-1.935-0.896-1.933-2.101
		c0.004-1.171,0.88-2.127,1.946-2.122c1.071,0.008,1.937,0.962,1.933,2.136C81.577,63.634,80.75,64.52,79.635,64.517z"/>
</g>
</svg>
